<svg xmlns="http://www.w3.org/2000/svg" width="1200" height="720" viewBox="0 0 1200 720"><defs><linearGradient id="g" x1="0" x2="1" y1="0" y2="1"><stop stop-color="#006680"/><stop offset="1" stop-color="#00b7c2"/></linearGradient></defs><rect width="1200" height="720" rx="32" fill="#f7f9fa"/><circle cx="1040" cy="95" r="220" fill="#00b7c2" opacity=".12"/><text x="76" y="86" fill="#006680" font-family="Arial" font-size="17" font-weight="700" letter-spacing="3">AI-PATRONEN &amp; VOORSPELLEN</text><text x="76" y="148" fill="#16191b" font-family="Arial" font-size="48" font-weight="700">Weet wanneer je opnieuw moet bestellen.</text><rect x="76" y="202" width="348" height="444" rx="20" fill="#fff" stroke="#d4dadd"/><text x="108" y="250" fill="#16191b" font-family="Arial" font-size="21" font-weight="700">Simulatie-invoer</text><text x="108" y="280" fill="#5b6770" font-family="Arial" font-size="14">Industriële luchtfilter · AF-2048</text><g font-family="Arial"><text x="108" y="344" fill="#16191b" font-size="15" font-weight="700">Huidige voorraad</text><text x="340" y="344" fill="#006680" font-size="15" font-weight="700">240 stuks</text><line x1="108" y1="367" x2="392" y2="367" stroke="#d4dadd" stroke-width="7" stroke-linecap="round"/><line x1="108" y1="367" x2="194" y2="367" stroke="#006680" stroke-width="7" stroke-linecap="round"/><circle cx="194" cy="367" r="10" fill="#006680"/><text x="108" y="427" fill="#16191b" font-size="15" font-weight="700">Gemiddelde dagvraag</text><text x="340" y="427" fill="#006680" font-size="15" font-weight="700">18 / dag</text><line x1="108" y1="450" x2="392" y2="450" stroke="#d4dadd" stroke-width="7" stroke-linecap="round"/><line x1="108" y1="450" x2="210" y2="450" stroke="#006680" stroke-width="7" stroke-linecap="round"/><circle cx="210" cy="450" r="10" fill="#006680"/><text x="108" y="510" fill="#16191b" font-size="15" font-weight="700">Vraagtrend</text><text x="350" y="510" fill="#006680" font-size="15" font-weight="700">+12%</text><line x1="108" y1="533" x2="392" y2="533" stroke="#d4dadd" stroke-width="7" stroke-linecap="round"/><line x1="108" y1="533" x2="258" y2="533" stroke="#006680" stroke-width="7" stroke-linecap="round"/><circle cx="258" cy="533" r="10" fill="#006680"/></g><rect x="454" y="202" width="670" height="176" rx="20" fill="#fff" stroke="#d4dadd"/><circle cx="490" cy="246" r="6" fill="#2e7d32"/><text x="506" y="251" fill="#5b6770" font-family="Arial" font-size="13" font-weight="700">VOORSPELLEND SIGNAAL</text><text x="1080" y="251" fill="#2e7d32" font-family="Arial" font-size="13" font-weight="700" text-anchor="end">LAAG RISICO</text><text x="490" y="302" fill="#16191b" font-family="Arial" font-size="24" font-weight="700">Voorraad blijft nog 11 dagen gezond.</text><text x="490" y="335" fill="#5b6770" font-family="Arial" font-size="15">Plan de bestelling binnen 3 dagen.</text><g transform="translate(454 408)"><rect width="205" height="238" rx="20" fill="#fff" stroke="#d4dadd"/><text x="28" y="44" fill="#5b6770" font-family="Arial" font-size="13">VERWACHTE DEKKING</text><text x="28" y="105" fill="#16191b" font-family="Arial" font-size="48" font-weight="700">11</text><text x="28" y="133" fill="#5b6770" font-family="Arial" font-size="14">dagen</text><rect x="233" width="205" height="238" rx="20" fill="#fff" stroke="#d4dadd"/><text x="261" y="44" fill="#5b6770" font-family="Arial" font-size="13">AANBEVOLEN BESTELLING</text><text x="261" y="105" fill="#16191b" font-family="Arial" font-size="48" font-weight="700">242</text><text x="261" y="133" fill="#5b6770" font-family="Arial" font-size="14">stuks</text><rect x="466" width="204" height="238" rx="20" fill="#fff" stroke="#d4dadd"/><text x="494" y="44" fill="#5b6770" font-family="Arial" font-size="13">VOORSPELDE VRAAG</text><text x="494" y="105" fill="#16191b" font-family="Arial" font-size="48" font-weight="700">20</text><text x="494" y="133" fill="#5b6770" font-family="Arial" font-size="14">stuks / dag</text></g></svg>
