<div class="logo-container">
<svg xmlns="http://www.w3.org/2000/svg" xmlns:xlink="http://www.w3.org/1999/xlink" width="40px" height="40px" viewBox="0 0 42 42" preserveAspectRatio="xMidYMid meet">
<g transform="translate(1.000000,1.000000)">
  <path class="line" d="M 3.839844 6.738281 L 3.660156 6.921875 L 3.660156 11.144531 L 3.78125 11.269531 C 3.863281 11.351562 3.941406 11.394531 4.023438 11.40625 C 4.085938 11.414062 4.179688 11.445312 4.230469 11.472656 C 4.308594 11.511719 4.742188 11.515625 7.707031 11.496094 C 9.570312 11.484375 11.542969 11.464844 12.09375 11.445312 C 13.046875 11.414062 13.09375 11.417969 13.167969 11.472656 L 13.246094 11.527344 L 13.253906 18.308594 C 13.261719 24.296875 13.253906 25.09375 13.214844 25.15625 C 13.183594 25.203125 13.167969 25.304688 13.167969 25.441406 C 13.167969 25.613281 13.15625 25.660156 13.109375 25.707031 C 13.066406 25.746094 13.046875 25.804688 13.046875 25.875 C 13.046875 25.949219 13.03125 26 13 26.011719 C 12.976562 26.023438 12.953125 26.058594 12.953125 26.09375 C 12.953125 26.128906 12.933594 26.195312 12.90625 26.238281 C 12.882812 26.285156 12.847656 26.355469 12.832031 26.398438 C 12.78125 26.519531 12.582031 26.867188 12.449219 27.066406 C 12.242188 27.371094 11.738281 27.828125 11.359375 28.046875 C 11.328125 28.0625 11.273438 28.09375 11.230469 28.125 C 11.1875 28.152344 11.078125 28.203125 10.984375 28.242188 C 10.890625 28.28125 10.792969 28.332031 10.765625 28.355469 C 10.742188 28.382812 10.6875 28.398438 10.644531 28.398438 C 10.601562 28.398438 10.53125 28.417969 10.488281 28.441406 C 10.445312 28.464844 10.351562 28.492188 10.28125 28.503906 C 10.207031 28.515625 10.117188 28.542969 10.082031 28.570312 C 10.035156 28.601562 9.9375 28.617188 9.769531 28.617188 C 9.597656 28.617188 9.5 28.628906 9.457031 28.660156 C 9.371094 28.726562 8.566406 28.726562 8.480469 28.660156 C 8.441406 28.628906 8.347656 28.617188 8.226562 28.617188 C 8.089844 28.617188 7.992188 28.597656 7.90625 28.554688 C 7.839844 28.519531 7.738281 28.492188 7.683594 28.492188 C 7.625 28.492188 7.558594 28.472656 7.539062 28.445312 C 7.515625 28.421875 7.472656 28.398438 7.441406 28.398438 C 7.410156 28.398438 7.332031 28.371094 7.269531 28.339844 C 7.207031 28.304688 7.132812 28.277344 7.105469 28.277344 C 7.078125 28.277344 7.035156 28.257812 7.019531 28.234375 C 6.996094 28.210938 6.949219 28.179688 6.90625 28.171875 C 6.863281 28.160156 6.808594 28.136719 6.789062 28.121094 C 6.644531 28 6.601562 27.96875 6.578125 27.96875 C 6.566406 27.96875 6.5 27.921875 6.441406 27.863281 C 6.375 27.808594 6.292969 27.75 6.253906 27.738281 C 6.171875 27.714844 5.691406 27.25 5.691406 27.195312 C 5.691406 27.179688 5.625 27.078125 5.539062 26.96875 C 5.457031 26.863281 5.382812 26.761719 5.382812 26.746094 C 5.382812 26.730469 5.367188 26.699219 5.339844 26.679688 C 5.316406 26.660156 5.289062 26.605469 5.277344 26.558594 C 5.265625 26.515625 5.238281 26.457031 5.21875 26.429688 C 5.195312 26.40625 5.167969 26.339844 5.160156 26.28125 C 5.148438 26.226562 5.117188 26.160156 5.09375 26.136719 C 5.066406 26.109375 5.046875 26.050781 5.046875 26.007812 C 5.046875 25.960938 5.023438 25.894531 5 25.863281 C 4.976562 25.832031 4.953125 25.738281 4.953125 25.660156 C 4.953125 25.558594 4.933594 25.496094 4.902344 25.457031 C 4.863281 25.421875 4.847656 25.355469 4.847656 25.238281 C 4.847656 25.117188 4.832031 25.0625 4.789062 25.035156 C 4.761719 25.011719 4.738281 24.972656 4.738281 24.949219 C 4.738281 24.875 4.617188 24.757812 4.46875 24.683594 C 4.339844 24.617188 4.324219 24.617188 2.382812 24.617188 L 0.433594 24.617188 L 0.316406 24.695312 C 0.160156 24.800781 0.09375 24.875 0.09375 24.949219 C 0.09375 24.984375 0.0703125 25.023438 0.0390625 25.039062 C -0.00390625 25.066406 -0.0078125 25.085938 0.0234375 25.203125 C 0.046875 25.277344 0.0625 25.386719 0.0625 25.445312 C 0.0585938 25.765625 0.105469 26.269531 0.140625 26.324219 C 0.167969 26.355469 0.183594 26.457031 0.183594 26.542969 C 0.183594 26.652344 0.207031 26.742188 0.246094 26.804688 C 0.28125 26.867188 0.308594 26.964844 0.308594 27.050781 C 0.308594 27.136719 0.324219 27.207031 0.355469 27.230469 C 0.378906 27.253906 0.398438 27.316406 0.398438 27.371094 C 0.398438 27.425781 0.425781 27.519531 0.460938 27.574219 C 0.496094 27.628906 0.523438 27.714844 0.523438 27.757812 C 0.523438 27.804688 0.542969 27.855469 0.570312 27.875 C 0.59375 27.898438 0.625 27.96875 0.632812 28.035156 C 0.644531 28.097656 0.675781 28.167969 0.695312 28.1875 C 0.71875 28.207031 0.738281 28.238281 0.738281 28.253906 C 0.738281 28.304688 0.890625 28.609375 0.921875 28.628906 C 0.941406 28.640625 0.953125 28.675781 0.953125 28.710938 C 0.953125 28.742188 0.980469 28.796875 1.015625 28.832031 C 1.050781 28.863281 1.078125 28.917969 1.078125 28.949219 C 1.078125 28.980469 1.097656 29.023438 1.125 29.046875 C 1.148438 29.066406 1.167969 29.109375 1.167969 29.144531 C 1.167969 29.179688 1.21875 29.25 1.277344 29.304688 C 1.335938 29.363281 1.382812 29.433594 1.382812 29.46875 C 1.382812 29.5 1.433594 29.574219 1.492188 29.628906 C 1.550781 29.6875 1.601562 29.753906 1.601562 29.773438 C 1.601562 29.800781 1.683594 29.90625 1.78125 30.011719 C 1.882812 30.121094 1.992188 30.261719 2.027344 30.324219 C 2.105469 30.480469 3.019531 31.382812 3.199219 31.488281 C 3.277344 31.53125 3.398438 31.628906 3.472656 31.707031 C 3.546875 31.785156 3.628906 31.847656 3.648438 31.847656 C 3.671875 31.847656 3.746094 31.894531 3.816406 31.953125 C 3.886719 32.011719 3.964844 32.0625 3.988281 32.0625 C 4.007812 32.0625 4.078125 32.105469 4.136719 32.160156 C 4.199219 32.210938 4.324219 32.292969 4.410156 32.339844 C 4.5 32.382812 4.625 32.453125 4.691406 32.496094 C 4.902344 32.628906 5.175781 32.761719 5.507812 32.898438 C 5.550781 32.914062 5.632812 32.953125 5.691406 32.984375 C 5.75 33.011719 5.847656 33.050781 5.898438 33.0625 C 5.953125 33.070312 6.007812 33.09375 6.015625 33.109375 C 6.027344 33.125 6.0625 33.136719 6.09375 33.136719 C 6.128906 33.136719 6.210938 33.167969 6.277344 33.199219 C 6.34375 33.234375 6.4375 33.261719 6.484375 33.261719 C 6.535156 33.261719 6.613281 33.289062 6.65625 33.324219 C 6.703125 33.363281 6.777344 33.382812 6.867188 33.382812 C 6.941406 33.382812 7.03125 33.40625 7.066406 33.429688 C 7.101562 33.457031 7.195312 33.472656 7.308594 33.476562 C 7.433594 33.476562 7.527344 33.5 7.609375 33.539062 C 7.703125 33.585938 7.78125 33.601562 8.027344 33.601562 C 8.226562 33.601562 8.371094 33.617188 8.441406 33.644531 C 8.597656 33.710938 9.703125 33.710938 9.816406 33.644531 C 9.867188 33.617188 9.992188 33.601562 10.199219 33.601562 C 10.449219 33.601562 10.53125 33.585938 10.625 33.539062 C 10.699219 33.5 10.796875 33.476562 10.90625 33.476562 C 11.007812 33.476562 11.082031 33.460938 11.105469 33.433594 C 11.125 33.414062 11.214844 33.382812 11.308594 33.378906 C 11.402344 33.371094 11.5 33.339844 11.53125 33.3125 C 11.5625 33.285156 11.640625 33.261719 11.703125 33.261719 C 11.761719 33.261719 11.832031 33.238281 11.855469 33.214844 C 11.878906 33.191406 11.957031 33.164062 12.027344 33.152344 C 12.09375 33.136719 12.167969 33.109375 12.1875 33.089844 C 12.207031 33.066406 12.253906 33.046875 12.292969 33.046875 C 12.328125 33.046875 12.378906 33.027344 12.398438 33.003906 C 12.414062 32.980469 12.476562 32.953125 12.53125 32.941406 C 12.621094 32.921875 12.773438 32.863281 12.890625 32.796875 C 12.917969 32.78125 12.972656 32.753906 13.015625 32.734375 C 13.25 32.636719 13.382812 32.566406 13.382812 32.546875 C 13.382812 32.53125 13.398438 32.523438 13.417969 32.523438 C 13.441406 32.523438 13.523438 32.472656 13.601562 32.414062 C 13.6875 32.355469 13.773438 32.308594 13.792969 32.308594 C 13.816406 32.308594 13.890625 32.257812 13.957031 32.199219 C 14.023438 32.140625 14.09375 32.09375 14.117188 32.09375 C 14.136719 32.09375 14.214844 32.035156 14.289062 31.96875 C 14.363281 31.902344 14.441406 31.847656 14.46875 31.847656 C 14.492188 31.847656 14.605469 31.761719 14.71875 31.660156 C 14.832031 31.554688 14.980469 31.429688 15.050781 31.382812 C 15.226562 31.269531 15.929688 30.566406 16.023438 30.414062 C 16.066406 30.347656 16.167969 30.222656 16.25 30.136719 C 16.328125 30.050781 16.425781 29.929688 16.457031 29.859375 C 16.496094 29.789062 16.574219 29.6875 16.628906 29.628906 C 16.6875 29.574219 16.738281 29.507812 16.738281 29.484375 C 16.738281 29.460938 16.789062 29.378906 16.847656 29.300781 C 16.90625 29.226562 16.953125 29.144531 16.953125 29.125 C 16.953125 29.101562 16.976562 29.066406 17 29.046875 C 17.023438 29.023438 17.046875 28.980469 17.046875 28.949219 C 17.046875 28.917969 17.074219 28.867188 17.109375 28.839844 C 17.140625 28.808594 17.167969 28.757812 17.167969 28.71875 C 17.167969 28.6875 17.195312 28.628906 17.230469 28.601562 C 17.265625 28.570312 17.292969 28.519531 17.292969 28.488281 C 17.292969 28.457031 17.304688 28.425781 17.320312 28.417969 C 17.335938 28.410156 17.355469 28.363281 17.371094 28.316406 C 17.378906 28.269531 17.40625 28.210938 17.429688 28.183594 C 17.453125 28.160156 17.476562 28.085938 17.488281 28.023438 C 17.5 27.964844 17.527344 27.871094 17.554688 27.824219 C 17.578125 27.777344 17.601562 27.722656 17.601562 27.703125 C 17.601562 27.6875 17.617188 27.652344 17.644531 27.632812 C 17.667969 27.613281 17.695312 27.546875 17.707031 27.484375 C 17.71875 27.425781 17.746094 27.34375 17.773438 27.3125 C 17.796875 27.277344 17.816406 27.199219 17.816406 27.136719 C 17.820312 27.078125 17.835938 26.996094 17.863281 26.953125 C 17.886719 26.910156 17.90625 26.800781 17.90625 26.703125 C 17.90625 26.578125 17.921875 26.515625 17.96875 26.460938 C 18.019531 26.402344 18.03125 26.347656 18.03125 26.15625 C 18.03125 26.007812 18.050781 25.890625 18.078125 25.832031 C 18.117188 25.757812 18.125 24.625 18.125 16.328125 L 18.125 6.910156 L 17.949219 6.730469 L 17.773438 6.554688 L 10.890625 6.554688 L 4.015625 6.558594 Z M 3.839844 6.738281 "/>
  <path class="line" d="M 20.089844 6.496094 C 20.039062 6.59375 20.0625 11.335938 20.113281 11.386719 C 20.144531 11.417969 20.671875 11.425781 22.375 11.4375 C 23.601562 11.441406 24.71875 11.460938 24.863281 11.476562 C 25.007812 11.496094 25.601562 11.507812 26.183594 11.507812 C 27.1875 11.507812 27.253906 11.511719 27.363281 11.570312 C 27.453125 11.617188 27.535156 11.628906 27.738281 11.628906 C 27.941406 11.628906 28.023438 11.644531 28.113281 11.691406 C 28.191406 11.730469 28.289062 11.753906 28.402344 11.753906 C 28.519531 11.753906 28.589844 11.769531 28.617188 11.800781 C 28.640625 11.828125 28.707031 11.847656 28.796875 11.847656 C 28.875 11.847656 28.976562 11.863281 29.023438 11.890625 C 29.066406 11.914062 29.15625 11.941406 29.226562 11.953125 C 29.296875 11.964844 29.367188 11.992188 29.386719 12.019531 C 29.40625 12.042969 29.457031 12.0625 29.503906 12.0625 C 29.546875 12.0625 29.628906 12.089844 29.675781 12.125 C 29.730469 12.15625 29.800781 12.183594 29.832031 12.183594 C 29.871094 12.183594 29.917969 12.207031 29.9375 12.230469 C 29.960938 12.253906 30.003906 12.277344 30.035156 12.277344 C 30.0625 12.277344 30.109375 12.296875 30.136719 12.324219 C 30.160156 12.347656 30.199219 12.371094 30.226562 12.371094 C 30.25 12.371094 30.300781 12.394531 30.339844 12.425781 C 30.382812 12.457031 30.453125 12.492188 30.5 12.503906 C 30.546875 12.515625 30.585938 12.539062 30.585938 12.554688 C 30.585938 12.574219 30.601562 12.585938 30.628906 12.585938 C 30.652344 12.585938 30.742188 12.640625 30.828125 12.707031 C 30.914062 12.773438 31 12.832031 31.023438 12.832031 C 31.046875 12.832031 31.109375 12.871094 31.164062 12.921875 C 31.214844 12.96875 31.289062 13.023438 31.324219 13.03125 C 31.359375 13.042969 31.484375 13.136719 31.597656 13.242188 C 31.707031 13.351562 31.890625 13.515625 32 13.605469 C 32.109375 13.699219 32.230469 13.820312 32.269531 13.878906 C 32.3125 13.9375 32.453125 14.097656 32.585938 14.238281 C 32.71875 14.382812 32.832031 14.515625 32.832031 14.542969 C 32.832031 14.570312 32.886719 14.644531 32.953125 14.707031 C 33.023438 14.773438 33.078125 14.851562 33.078125 14.886719 C 33.078125 14.921875 33.097656 14.964844 33.125 14.984375 C 33.148438 15.007812 33.167969 15.039062 33.167969 15.0625 C 33.167969 15.085938 33.21875 15.167969 33.277344 15.242188 C 33.335938 15.324219 33.382812 15.402344 33.382812 15.425781 C 33.382812 15.445312 33.414062 15.515625 33.445312 15.585938 C 33.480469 15.652344 33.507812 15.730469 33.507812 15.757812 C 33.507812 15.785156 33.527344 15.824219 33.554688 15.847656 C 33.578125 15.867188 33.601562 15.902344 33.601562 15.921875 C 33.601562 15.9375 33.628906 16.007812 33.660156 16.078125 C 33.695312 16.144531 33.722656 16.226562 33.722656 16.261719 C 33.722656 16.296875 33.746094 16.351562 33.769531 16.382812 C 33.792969 16.414062 33.816406 16.480469 33.816406 16.527344 C 33.816406 16.570312 33.832031 16.625 33.859375 16.644531 C 33.878906 16.660156 33.90625 16.746094 33.917969 16.832031 C 33.929688 16.921875 33.957031 17.015625 33.984375 17.046875 C 34.011719 17.078125 34.03125 17.15625 34.03125 17.253906 C 34.03125 17.378906 34.046875 17.425781 34.09375 17.46875 C 34.144531 17.511719 34.152344 17.558594 34.152344 17.742188 C 34.152344 17.898438 34.167969 17.972656 34.199219 18 C 34.238281 18.03125 34.246094 18.113281 34.246094 18.367188 C 34.246094 18.609375 34.257812 18.710938 34.292969 18.757812 C 34.355469 18.84375 34.355469 20.777344 34.292969 20.890625 C 34.261719 20.945312 34.25 21.074219 34.246094 21.3125 C 34.246094 21.558594 34.234375 21.664062 34.199219 21.710938 C 34.171875 21.746094 34.152344 21.84375 34.152344 21.96875 C 34.152344 22.117188 34.136719 22.195312 34.09375 22.261719 C 34.050781 22.324219 34.03125 22.40625 34.03125 22.503906 C 34.03125 22.605469 34.011719 22.675781 33.976562 22.714844 C 33.945312 22.75 33.921875 22.824219 33.921875 22.90625 C 33.921875 22.988281 33.902344 23.0625 33.871094 23.097656 C 33.839844 23.132812 33.816406 23.207031 33.816406 23.269531 C 33.816406 23.328125 33.792969 23.394531 33.769531 23.414062 C 33.746094 23.4375 33.722656 23.484375 33.722656 23.519531 C 33.722656 23.558594 33.695312 23.640625 33.660156 23.707031 C 33.628906 23.773438 33.601562 23.847656 33.601562 23.875 C 33.601562 23.902344 33.574219 23.941406 33.539062 23.964844 C 33.503906 23.984375 33.476562 24.035156 33.476562 24.074219 C 33.476562 24.113281 33.457031 24.164062 33.429688 24.183594 C 33.40625 24.207031 33.382812 24.25 33.382812 24.28125 C 33.382812 24.308594 33.363281 24.355469 33.339844 24.378906 C 33.316406 24.402344 33.285156 24.457031 33.277344 24.5 C 33.265625 24.546875 33.238281 24.597656 33.210938 24.617188 C 33.1875 24.636719 33.167969 24.679688 33.167969 24.710938 C 33.167969 24.746094 33.121094 24.820312 33.0625 24.875 C 33.003906 24.933594 32.953125 25.007812 32.953125 25.035156 C 32.953125 25.070312 32.910156 25.136719 32.859375 25.1875 C 32.804688 25.238281 32.714844 25.355469 32.652344 25.445312 C 32.527344 25.636719 31.929688 26.246094 31.867188 26.246094 C 31.847656 26.246094 31.75 26.3125 31.660156 26.398438 C 31.570312 26.484375 31.46875 26.554688 31.4375 26.554688 C 31.40625 26.554688 31.339844 26.597656 31.285156 26.648438 C 31.199219 26.734375 30.90625 26.890625 30.835938 26.890625 C 30.820312 26.890625 30.800781 26.914062 30.789062 26.9375 C 30.777344 26.964844 30.753906 26.984375 30.730469 26.984375 C 30.710938 26.988281 30.636719 27.011719 30.570312 27.046875 C 30.5 27.078125 30.429688 27.105469 30.414062 27.109375 C 30.394531 27.109375 30.359375 27.125 30.339844 27.152344 C 30.324219 27.171875 30.25 27.199219 30.179688 27.210938 C 30.113281 27.21875 30.035156 27.246094 30.003906 27.273438 C 29.972656 27.300781 29.898438 27.324219 29.839844 27.324219 C 29.777344 27.324219 29.714844 27.34375 29.691406 27.371094 C 29.671875 27.394531 29.605469 27.414062 29.546875 27.414062 C 29.484375 27.414062 29.40625 27.441406 29.363281 27.476562 C 29.308594 27.519531 29.238281 27.539062 29.125 27.539062 C 29.035156 27.539062 28.941406 27.558594 28.90625 27.585938 C 28.863281 27.617188 28.769531 27.628906 28.605469 27.628906 C 28.425781 27.628906 28.339844 27.644531 28.253906 27.691406 C 28.152344 27.746094 28.078125 27.753906 27.703125 27.753906 C 27.378906 27.753906 27.246094 27.765625 27.179688 27.800781 C 27.105469 27.839844 26.617188 27.847656 23.445312 27.847656 C 21.441406 27.847656 19.769531 27.855469 19.730469 27.863281 C 19.691406 27.875 19.660156 27.902344 19.660156 27.921875 C 19.660156 27.945312 19.632812 27.996094 19.601562 28.039062 C 19.566406 28.082031 19.539062 28.152344 19.539062 28.199219 C 19.539062 28.246094 19.519531 28.324219 19.496094 28.378906 C 19.472656 28.433594 19.441406 28.527344 19.433594 28.585938 C 19.421875 28.652344 19.394531 28.71875 19.371094 28.738281 C 19.34375 28.761719 19.324219 28.808594 19.324219 28.847656 C 19.324219 28.882812 19.300781 28.933594 19.277344 28.953125 C 19.253906 28.976562 19.230469 29.015625 19.230469 29.046875 C 19.230469 29.074219 19.203125 29.125 19.167969 29.152344 C 19.136719 29.183594 19.109375 29.234375 19.109375 29.265625 C 19.109375 29.296875 19.058594 29.402344 19 29.503906 C 18.941406 29.601562 18.890625 29.707031 18.890625 29.730469 C 18.890625 29.757812 18.871094 29.792969 18.847656 29.816406 C 18.820312 29.835938 18.800781 29.871094 18.800781 29.890625 C 18.800781 29.914062 18.773438 29.964844 18.738281 30.007812 C 18.703125 30.050781 18.675781 30.105469 18.675781 30.128906 C 18.675781 30.152344 18.628906 30.222656 18.570312 30.285156 C 18.511719 30.351562 18.460938 30.425781 18.460938 30.449219 C 18.460938 30.472656 18.414062 30.542969 18.355469 30.613281 C 18.296875 30.675781 18.246094 30.757812 18.246094 30.789062 C 18.246094 30.820312 18.195312 30.886719 18.136719 30.933594 C 18.078125 30.984375 18.03125 31.046875 18.03125 31.066406 C 18.03125 31.09375 18.011719 31.117188 17.988281 31.125 C 17.964844 31.136719 17.933594 31.175781 17.925781 31.214844 C 17.917969 31.253906 17.832031 31.363281 17.734375 31.453125 C 17.640625 31.542969 17.519531 31.660156 17.464844 31.71875 C 17.414062 31.777344 17.207031 31.984375 17.007812 32.179688 C 16.777344 32.40625 16.644531 32.566406 16.628906 32.621094 C 16.617188 32.6875 16.636719 32.746094 16.730469 32.890625 C 16.847656 33.078125 16.863281 33.085938 17.125 33.1875 C 17.269531 33.242188 17.371094 33.246094 18.628906 33.242188 C 19.375 33.238281 20.324219 33.226562 20.738281 33.207031 C 21.152344 33.1875 23.007812 33.164062 24.863281 33.152344 C 27.589844 33.132812 28.25 33.125 28.328125 33.089844 C 28.394531 33.0625 28.558594 33.046875 28.820312 33.046875 C 29.140625 33.046875 29.222656 33.035156 29.269531 32.992188 C 29.3125 32.953125 29.386719 32.941406 29.582031 32.941406 C 29.78125 32.9375 29.851562 32.925781 29.898438 32.886719 C 29.941406 32.847656 30.011719 32.832031 30.148438 32.832031 C 30.285156 32.832031 30.339844 32.820312 30.363281 32.78125 C 30.382812 32.75 30.453125 32.730469 30.582031 32.71875 C 30.703125 32.703125 30.78125 32.683594 30.789062 32.660156 C 30.800781 32.628906 30.855469 32.617188 30.933594 32.617188 C 31.007812 32.617188 31.09375 32.59375 31.125 32.570312 C 31.15625 32.542969 31.226562 32.523438 31.28125 32.523438 C 31.335938 32.523438 31.402344 32.5 31.429688 32.472656 C 31.457031 32.445312 31.535156 32.417969 31.601562 32.410156 C 31.671875 32.398438 31.734375 32.371094 31.746094 32.351562 C 31.75 32.328125 31.824219 32.304688 31.90625 32.292969 C 31.992188 32.28125 32.074219 32.253906 32.09375 32.226562 C 32.113281 32.203125 32.152344 32.183594 32.183594 32.183594 C 32.210938 32.183594 32.269531 32.15625 32.308594 32.125 C 32.347656 32.089844 32.402344 32.0625 32.4375 32.0625 C 32.46875 32.0625 32.515625 32.050781 32.546875 32.035156 C 32.574219 32.019531 32.683594 31.96875 32.785156 31.921875 C 32.886719 31.875 32.992188 31.828125 33.015625 31.8125 C 33.039062 31.796875 33.09375 31.769531 33.136719 31.75 C 33.179688 31.730469 33.253906 31.6875 33.308594 31.648438 C 33.355469 31.613281 33.488281 31.539062 33.601562 31.484375 C 33.710938 31.433594 33.835938 31.355469 33.878906 31.316406 C 33.921875 31.277344 34 31.226562 34.050781 31.203125 C 34.101562 31.183594 34.179688 31.132812 34.226562 31.09375 C 34.269531 31.050781 34.320312 31.015625 34.335938 31.015625 C 34.351562 31.015625 34.429688 30.960938 34.507812 30.890625 C 34.585938 30.824219 34.667969 30.769531 34.6875 30.769531 C 34.710938 30.769531 34.816406 30.6875 34.925781 30.582031 C 35.035156 30.476562 35.179688 30.359375 35.246094 30.316406 C 35.425781 30.207031 36.535156 29.09375 36.683594 28.878906 C 36.75 28.78125 36.890625 28.621094 36.988281 28.523438 C 37.089844 28.425781 37.167969 28.324219 37.167969 28.296875 C 37.167969 28.269531 37.238281 28.167969 37.324219 28.078125 C 37.410156 27.992188 37.476562 27.894531 37.476562 27.871094 C 37.476562 27.84375 37.53125 27.761719 37.601562 27.691406 C 37.667969 27.621094 37.722656 27.542969 37.722656 27.519531 C 37.722656 27.496094 37.765625 27.417969 37.816406 27.347656 C 37.867188 27.28125 37.90625 27.203125 37.90625 27.179688 C 37.90625 27.160156 37.933594 27.125 37.96875 27.109375 C 38.003906 27.089844 38.03125 27.042969 38.03125 27 C 38.03125 26.960938 38.046875 26.917969 38.066406 26.90625 C 38.082031 26.894531 38.121094 26.839844 38.144531 26.789062 C 38.195312 26.679688 38.253906 26.570312 38.378906 26.363281 C 38.425781 26.28125 38.460938 26.195312 38.460938 26.160156 C 38.460938 26.125 38.488281 26.066406 38.523438 26.023438 C 38.558594 25.976562 38.585938 25.917969 38.585938 25.882812 C 38.585938 25.847656 38.605469 25.804688 38.628906 25.785156 C 38.65625 25.761719 38.675781 25.722656 38.675781 25.691406 C 38.675781 25.664062 38.703125 25.617188 38.738281 25.585938 C 38.773438 25.554688 38.800781 25.5 38.800781 25.464844 C 38.800781 25.425781 38.820312 25.371094 38.847656 25.339844 C 38.871094 25.308594 38.890625 25.238281 38.890625 25.179688 C 38.890625 25.125 38.910156 25.066406 38.9375 25.050781 C 38.964844 25.039062 38.992188 24.972656 39.007812 24.90625 C 39.015625 24.839844 39.039062 24.761719 39.0625 24.738281 C 39.082031 24.714844 39.109375 24.628906 39.121094 24.554688 C 39.132812 24.480469 39.15625 24.410156 39.175781 24.398438 C 39.191406 24.382812 39.214844 24.3125 39.222656 24.234375 C 39.230469 24.15625 39.257812 24.078125 39.28125 24.058594 C 39.308594 24.035156 39.324219 23.960938 39.324219 23.847656 C 39.324219 23.714844 39.335938 23.664062 39.382812 23.621094 C 39.433594 23.578125 39.445312 23.53125 39.445312 23.355469 C 39.445312 23.210938 39.457031 23.136719 39.488281 23.109375 C 39.519531 23.085938 39.535156 22.984375 39.542969 22.789062 C 39.550781 22.570312 39.566406 22.492188 39.609375 22.449219 C 39.652344 22.402344 39.660156 22.335938 39.660156 22.023438 C 39.664062 21.742188 39.675781 21.628906 39.707031 21.585938 C 39.777344 21.496094 39.773438 18.058594 39.707031 18 C 39.671875 17.96875 39.660156 17.886719 39.660156 17.617188 C 39.660156 17.328125 39.652344 17.261719 39.601562 17.183594 C 39.554688 17.113281 39.539062 17.039062 39.539062 16.863281 C 39.535156 16.707031 39.519531 16.613281 39.492188 16.574219 C 39.464844 16.535156 39.445312 16.441406 39.445312 16.355469 C 39.445312 16.269531 39.425781 16.15625 39.398438 16.109375 C 39.371094 16.054688 39.339844 15.9375 39.332031 15.847656 C 39.324219 15.753906 39.296875 15.648438 39.277344 15.617188 C 39.257812 15.582031 39.234375 15.484375 39.226562 15.40625 C 39.214844 15.324219 39.183594 15.234375 39.15625 15.203125 C 39.128906 15.171875 39.109375 15.09375 39.109375 15.027344 C 39.109375 14.941406 39.089844 14.894531 39.050781 14.871094 C 39.007812 14.847656 38.992188 14.800781 38.992188 14.726562 C 38.992188 14.667969 38.96875 14.585938 38.941406 14.546875 C 38.914062 14.511719 38.890625 14.457031 38.890625 14.425781 C 38.890625 14.398438 38.875 14.359375 38.847656 14.339844 C 38.824219 14.324219 38.796875 14.242188 38.785156 14.167969 C 38.773438 14.09375 38.753906 14.03125 38.738281 14.03125 C 38.722656 14.03125 38.703125 13.984375 38.6875 13.925781 C 38.679688 13.867188 38.652344 13.8125 38.628906 13.804688 C 38.601562 13.792969 38.585938 13.769531 38.585938 13.746094 C 38.585938 13.726562 38.558594 13.65625 38.523438 13.589844 C 38.488281 13.527344 38.460938 13.457031 38.460938 13.429688 C 38.460938 13.402344 38.441406 13.375 38.414062 13.367188 C 38.390625 13.355469 38.371094 13.332031 38.371094 13.3125 C 38.367188 13.292969 38.339844 13.222656 38.308594 13.152344 C 38.273438 13.085938 38.25 13.011719 38.246094 12.992188 C 38.246094 12.96875 38.226562 12.945312 38.199219 12.933594 C 38.175781 12.921875 38.152344 12.878906 38.152344 12.832031 C 38.152344 12.789062 38.128906 12.738281 38.09375 12.714844 C 38.058594 12.691406 38.03125 12.65625 38.03125 12.632812 C 38.03125 12.609375 37.980469 12.527344 37.921875 12.449219 C 37.863281 12.371094 37.816406 12.296875 37.816406 12.28125 C 37.816406 12.242188 37.625 11.945312 37.539062 11.847656 C 37.5 11.804688 37.441406 11.714844 37.410156 11.644531 C 37.371094 11.578125 37.3125 11.492188 37.273438 11.457031 C 37.234375 11.421875 37.152344 11.316406 37.09375 11.226562 C 37.035156 11.136719 36.925781 11 36.847656 10.921875 C 36.765625 10.847656 36.652344 10.710938 36.59375 10.621094 C 36.464844 10.425781 35.8125 9.773438 35.625 9.644531 C 35.550781 9.59375 35.371094 9.441406 35.222656 9.300781 C 35.074219 9.160156 34.933594 9.046875 34.90625 9.046875 C 34.886719 9.046875 34.820312 9 34.765625 8.949219 C 34.660156 8.839844 34.585938 8.789062 34.457031 8.738281 C 34.410156 8.71875 34.351562 8.667969 34.324219 8.628906 C 34.296875 8.585938 34.238281 8.535156 34.191406 8.515625 C 34.144531 8.496094 34.050781 8.433594 33.976562 8.378906 C 33.90625 8.324219 33.832031 8.277344 33.804688 8.277344 C 33.78125 8.277344 33.746094 8.253906 33.722656 8.230469 C 33.703125 8.207031 33.664062 8.183594 33.636719 8.183594 C 33.609375 8.183594 33.492188 8.117188 33.371094 8.035156 C 33.253906 7.953125 33.121094 7.875 33.078125 7.863281 C 33.035156 7.847656 32.976562 7.820312 32.953125 7.800781 C 32.929688 7.777344 32.875 7.75 32.832031 7.738281 C 32.789062 7.726562 32.738281 7.695312 32.714844 7.675781 C 32.691406 7.648438 32.644531 7.628906 32.617188 7.628906 C 32.585938 7.628906 32.542969 7.613281 32.527344 7.585938 C 32.507812 7.566406 32.445312 7.539062 32.390625 7.527344 C 32.339844 7.515625 32.210938 7.46875 32.109375 7.417969 C 32.007812 7.371094 31.875 7.320312 31.8125 7.3125 C 31.746094 7.296875 31.683594 7.269531 31.660156 7.246094 C 31.640625 7.222656 31.585938 7.199219 31.535156 7.199219 C 31.488281 7.199219 31.4375 7.179688 31.421875 7.152344 C 31.40625 7.125 31.339844 7.09375 31.269531 7.085938 C 31.195312 7.078125 31.125 7.050781 31.105469 7.027344 C 31.085938 7.003906 31.011719 6.984375 30.945312 6.984375 C 30.875 6.984375 30.796875 6.964844 30.761719 6.933594 C 30.730469 6.90625 30.636719 6.875 30.546875 6.867188 C 30.457031 6.859375 30.371094 6.832031 30.359375 6.8125 C 30.34375 6.78125 30.273438 6.769531 30.148438 6.769531 C 30.007812 6.769531 29.949219 6.757812 29.921875 6.71875 C 29.890625 6.675781 29.824219 6.660156 29.660156 6.652344 C 29.53125 6.644531 29.410156 6.621094 29.382812 6.601562 C 29.355469 6.574219 29.21875 6.558594 29.007812 6.546875 C 28.757812 6.539062 28.667969 6.527344 28.644531 6.492188 C 28.621094 6.453125 28.070312 6.445312 24.371094 6.4375 L 20.125 6.429688 Z M 20.089844 6.496094 "/>
</g>
</svg>