<?xml version="1.0" standalone="no"?>
<!DOCTYPE svg PUBLIC "-//W3C//DTD SVG 20010904//EN"
 "http://www.w3.org/TR/2001/REC-SVG-20010904/DTD/svg10.dtd">
<svg version="1.0" xmlns="http://www.w3.org/2000/svg"
 width="1733.000000pt" height="1733.000000pt" viewBox="0 0 1733.000000 1733.000000"
 preserveAspectRatio="xMidYMid meet">

<g transform="translate(0.000000,1733.000000) scale(0.100000,-0.100000)"
fill="#000000" stroke="none"
    stroke-width="130pt">
<path class="line" d="M8711 14523 c-27 -52 -19 -2099 9 -2127 7 -7 242 -13 783 -18 425 -4
923 -12 1107 -18 184 -6 526 -14 760 -17 411 -6 427 -7 498 -29 53 -18 96 -24
158 -24 61 0 101 -6 142 -21 31 -11 92 -25 135 -29 43 -5 89 -16 102 -24 14
-9 39 -16 57 -16 19 0 58 -7 88 -16 30 -8 79 -22 109 -31 29 -8 67 -23 85 -34
17 -10 41 -19 54 -19 13 0 44 -11 70 -25 26 -14 54 -25 62 -25 8 0 29 -9 45
-20 17 -11 37 -20 45 -20 8 0 26 -9 40 -20 14 -11 32 -20 40 -20 9 0 31 -11
50 -24 19 -13 46 -27 60 -31 13 -4 36 -15 50 -25 14 -9 60 -40 102 -68 42 -29
81 -52 86 -52 5 0 31 -17 58 -39 27 -21 63 -45 79 -54 41 -21 350 -302 405
-368 25 -29 78 -90 119 -134 41 -44 89 -104 108 -134 19 -29 50 -70 67 -90 18
-20 50 -70 71 -111 20 -41 51 -94 67 -117 16 -24 45 -82 64 -130 20 -49 51
-119 70 -158 33 -69 76 -186 94 -255 5 -19 16 -49 24 -66 9 -17 20 -54 26 -82
5 -29 17 -66 25 -83 9 -17 20 -61 24 -98 5 -46 14 -76 29 -96 18 -23 22 -40
22 -104 0 -52 5 -85 17 -106 12 -22 18 -68 23 -175 4 -97 11 -153 21 -170 20
-36 21 -867 1 -920 -8 -19 -17 -102 -21 -185 -4 -90 -13 -160 -20 -174 -7 -13
-17 -65 -21 -115 -5 -58 -16 -106 -29 -133 -12 -23 -21 -60 -21 -83 0 -22 -11
-67 -25 -100 -14 -33 -25 -74 -25 -92 0 -18 -9 -50 -20 -70 -11 -21 -23 -57
-26 -80 -4 -24 -15 -59 -26 -78 -10 -19 -18 -40 -18 -47 0 -24 -54 -148 -77
-176 -13 -16 -23 -34 -23 -40 0 -26 -157 -326 -192 -366 -21 -24 -38 -52 -38
-61 0 -9 -17 -37 -38 -61 -21 -24 -67 -82 -104 -129 -80 -104 -287 -314 -331
-336 -18 -9 -58 -38 -89 -66 -32 -27 -72 -55 -90 -63 -18 -7 -58 -33 -88 -55
-57 -44 -140 -90 -162 -90 -6 0 -23 -10 -37 -23 -15 -13 -60 -36 -101 -52 -41
-16 -82 -34 -90 -41 -9 -7 -37 -18 -64 -24 -26 -6 -65 -19 -86 -30 -22 -11
-51 -20 -65 -20 -14 0 -43 -9 -65 -20 -22 -11 -50 -20 -62 -20 -13 0 -45 -11
-73 -23 -27 -13 -77 -27 -110 -30 -34 -3 -76 -13 -95 -20 -19 -8 -78 -17 -131
-20 -64 -4 -115 -14 -150 -28 -46 -18 -84 -23 -249 -29 -107 -5 -213 -14 -235
-20 -30 -9 -416 -13 -1605 -16 -861 -3 -1579 -7 -1597 -10 -22 -3 -36 -13 -46
-32 -8 -15 -21 -40 -29 -57 -9 -16 -23 -57 -31 -90 -27 -108 -46 -168 -66
-209 -64 -135 -87 -178 -98 -188 -7 -6 -13 -17 -13 -25 0 -34 -181 -377 -242
-459 -21 -28 -38 -55 -38 -61 0 -5 -20 -36 -45 -67 -25 -32 -45 -65 -45 -72 0
-8 -21 -38 -47 -68 -61 -70 -86 -104 -106 -141 -9 -16 -109 -122 -222 -235
-114 -113 -233 -235 -266 -273 -73 -84 -76 -108 -21 -193 48 -74 63 -87 137
-120 57 -26 70 -28 255 -33 213 -7 911 0 1835 18 325 6 1074 16 1665 21 703 6
1089 14 1115 21 22 6 121 14 220 18 146 5 185 10 206 24 19 13 56 19 130 23
73 4 115 12 142 25 24 12 59 19 97 19 44 0 73 7 108 24 26 13 72 27 102 31 30
4 66 14 80 23 14 9 48 19 75 23 28 4 73 15 100 24 205 70 232 80 246 91 8 7
38 17 66 23 29 6 69 20 90 31 21 11 41 20 46 20 4 0 25 11 45 25 20 14 44 25
53 25 33 0 273 115 401 193 40 24 98 57 128 72 30 15 71 40 90 55 19 14 60 41
91 58 30 17 64 41 74 52 10 11 23 20 28 20 5 0 42 25 82 55 39 30 76 55 81 55
6 0 46 32 89 71 44 39 114 97 155 128 99 74 515 491 613 613 42 53 108 130
147 172 38 42 70 82 70 89 0 7 29 48 65 91 36 43 65 83 65 90 0 7 20 36 45 65
24 28 56 75 70 103 14 27 34 62 45 75 11 14 20 32 20 39 0 7 14 29 30 47 17
19 30 42 30 51 0 10 11 32 24 49 13 18 38 61 56 97 18 35 44 82 57 104 14 21
33 63 43 91 10 29 27 70 38 91 11 22 33 66 48 99 15 33 33 67 40 75 18 23 64
143 64 169 0 13 11 44 24 70 24 45 38 82 76 206 10 33 25 78 34 100 8 22 15
47 16 56 0 9 9 36 20 60 12 27 20 66 20 100 0 43 5 63 25 89 20 28 25 45 25
97 0 37 8 86 19 118 10 29 22 98 26 152 5 67 13 110 27 137 16 32 21 72 28
200 5 89 14 188 21 221 18 86 18 1408 0 1480 -7 28 -17 117 -21 198 -7 122
-13 156 -30 190 -16 29 -24 71 -30 146 -5 59 -16 124 -24 146 -8 22 -15 59
-16 81 0 23 -7 61 -16 85 -8 24 -24 85 -35 134 -32 149 -50 218 -69 265 -11
25 -22 64 -26 88 -3 24 -14 51 -24 60 -10 9 -21 37 -25 62 -7 46 -31 108 -64
171 -11 19 -23 53 -27 74 -4 22 -15 53 -26 70 -10 16 -18 37 -18 46 0 9 -9 24
-19 33 -11 10 -22 27 -25 40 -5 22 -48 113 -92 196 -13 25 -31 65 -40 90 -10
25 -26 53 -36 63 -10 10 -18 28 -18 41 0 12 -11 33 -25 46 -14 13 -25 29 -25
36 0 6 -20 40 -43 75 -24 35 -51 80 -61 99 -9 20 -36 65 -61 100 -25 36 -74
108 -109 161 -35 53 -69 100 -75 103 -6 4 -29 34 -51 66 -22 32 -70 92 -108
132 -37 41 -88 100 -112 133 -74 100 -360 385 -455 453 -39 28 -79 62 -136
115 -82 78 -111 102 -141 118 -12 7 -45 31 -73 54 -27 24 -70 53 -95 65 -25
12 -68 43 -96 69 -51 46 -177 130 -224 150 -35 15 -174 92 -180 100 -11 13
-112 71 -136 77 -13 3 -26 10 -29 14 -7 12 -230 119 -285 137 -25 8 -80 30
-123 49 -43 19 -85 34 -93 34 -8 0 -36 11 -62 25 -26 14 -56 25 -68 25 -12 0
-33 9 -47 20 -14 11 -40 23 -59 27 -18 3 -49 14 -68 23 -19 9 -56 20 -83 23
-26 4 -64 15 -85 25 -20 11 -59 23 -87 26 -27 4 -60 14 -73 22 -13 9 -56 18
-95 21 -42 3 -84 13 -102 23 -18 11 -68 23 -122 29 -51 5 -102 15 -114 21 -11
7 -82 16 -157 21 -77 6 -142 15 -151 22 -23 19 -486 25 -2158 26 -1459 1
-1543 0 -1552 -16z m2599 -142 c888 -7 1041 -10 1075 -23 22 -8 93 -18 157
-22 65 -4 137 -14 160 -22 24 -8 72 -18 108 -21 38 -3 86 -15 114 -29 33 -16
68 -24 100 -24 28 0 75 -9 104 -20 29 -11 61 -20 72 -20 12 0 47 -11 80 -25
33 -14 72 -25 88 -25 15 0 45 -9 67 -20 22 -11 46 -20 54 -20 7 0 32 -9 55
-20 74 -35 184 -80 196 -80 50 0 519 -216 630 -290 30 -21 98 -59 150 -86 109
-56 206 -120 267 -175 22 -21 65 -50 93 -64 28 -14 71 -43 93 -64 23 -21 61
-50 84 -65 24 -14 84 -64 135 -109 51 -46 127 -110 168 -142 93 -73 281 -262
345 -347 27 -34 81 -99 120 -143 78 -87 166 -201 232 -298 23 -34 65 -94 93
-133 27 -39 67 -103 89 -142 21 -38 50 -85 65 -104 14 -19 26 -40 26 -46 0 -6
11 -23 23 -39 13 -15 29 -43 36 -62 6 -19 18 -42 25 -50 8 -9 29 -51 46 -94
17 -42 42 -93 55 -113 13 -19 34 -61 45 -92 12 -31 27 -64 35 -72 16 -18 42
-78 61 -141 8 -26 29 -80 48 -120 18 -41 36 -94 39 -118 3 -24 14 -56 25 -70
10 -14 21 -42 24 -62 4 -19 14 -53 24 -75 9 -21 23 -61 29 -89 26 -107 48
-193 67 -265 11 -41 24 -104 29 -140 4 -36 15 -90 24 -120 8 -30 15 -82 15
-115 0 -41 8 -79 25 -120 22 -52 25 -76 25 -176 0 -87 4 -128 17 -160 16 -40
18 -104 18 -754 0 -645 -2 -715 -18 -770 -12 -41 -17 -95 -17 -176 0 -96 -4
-125 -21 -163 -14 -32 -23 -83 -29 -154 -4 -59 -15 -124 -24 -144 -9 -21 -16
-64 -16 -97 0 -43 -6 -70 -21 -95 -11 -19 -27 -70 -34 -113 -15 -82 -40 -178
-67 -253 -8 -25 -28 -85 -44 -135 -16 -49 -37 -101 -47 -115 -10 -14 -21 -48
-26 -75 -4 -29 -43 -123 -94 -225 -47 -96 -89 -188 -93 -205 -4 -16 -20 -52
-36 -79 -16 -27 -44 -79 -63 -116 -18 -36 -40 -72 -49 -79 -8 -7 -20 -29 -27
-49 -7 -20 -22 -50 -35 -65 -13 -16 -24 -33 -24 -37 0 -5 -18 -37 -40 -71 -22
-34 -40 -66 -40 -72 0 -5 -19 -30 -41 -55 -23 -26 -48 -61 -55 -79 -8 -17 -37
-58 -65 -90 -28 -32 -60 -76 -71 -98 -12 -22 -49 -69 -83 -105 -34 -36 -88
-99 -120 -140 -74 -95 -491 -513 -567 -568 -31 -23 -87 -69 -125 -103 -37 -34
-97 -81 -133 -105 -36 -24 -94 -64 -130 -89 -36 -25 -83 -58 -105 -72 -162
-107 -208 -135 -265 -163 -36 -18 -76 -41 -90 -50 -43 -31 -262 -137 -325
-158 -33 -11 -93 -37 -133 -57 -40 -20 -98 -43 -129 -51 -31 -8 -67 -21 -82
-28 -49 -25 -136 -58 -176 -66 -22 -5 -57 -16 -77 -24 -21 -9 -49 -16 -63 -16
-15 0 -47 -9 -73 -19 -26 -11 -67 -22 -92 -26 -24 -3 -64 -15 -88 -25 -25 -11
-64 -20 -88 -20 -24 0 -73 -11 -110 -25 -48 -18 -86 -25 -138 -25 -44 0 -94
-7 -131 -19 -41 -14 -113 -23 -230 -30 -93 -6 -215 -15 -270 -20 -55 -6 -665
-15 -1355 -20 -690 -6 -1543 -18 -1894 -27 -352 -9 -813 -14 -1025 -12 -345 4
-390 6 -426 22 -41 19 -64 42 -65 64 0 6 114 128 254 270 139 141 260 271 269
287 9 17 41 59 72 93 30 35 65 83 77 105 11 23 33 58 48 77 15 19 35 51 45 70
9 19 28 46 41 60 26 29 84 135 180 330 36 74 70 142 75 150 5 8 27 53 50 100
22 47 47 96 54 110 18 35 75 224 75 248 0 12 6 24 13 29 6 4 719 10 1582 13
1273 5 1576 8 1600 19 19 9 100 16 225 21 166 6 203 10 248 28 36 15 74 22
120 22 37 0 92 7 122 16 30 9 84 19 120 23 36 4 88 17 115 29 28 11 91 32 140
47 50 14 118 37 153 51 34 13 68 24 75 24 7 0 35 11 63 24 27 14 87 41 134 61
47 20 92 42 100 49 8 7 40 24 70 38 30 14 82 46 116 70 33 25 71 49 83 53 12
3 48 28 79 54 31 26 77 60 102 75 61 38 333 313 403 407 31 42 74 97 96 123
22 25 43 56 46 68 4 13 22 41 40 63 18 22 70 117 117 210 46 94 91 181 100
195 9 14 33 68 53 120 20 52 45 116 55 142 11 26 20 55 20 66 0 11 9 39 19 63
11 24 23 67 26 94 4 28 14 63 22 79 8 16 19 56 24 90 4 34 17 82 28 106 10 25
22 81 26 125 4 44 13 98 21 120 8 22 18 108 23 190 6 83 15 173 22 200 8 35
12 178 12 465 1 348 -2 425 -15 480 -9 36 -19 120 -22 188 -4 74 -12 137 -21
158 -8 20 -15 56 -15 79 0 66 -18 147 -40 177 -13 17 -20 43 -20 70 0 24 -9
62 -19 84 -10 23 -22 57 -26 75 -14 74 -137 416 -171 479 -20 38 -74 167 -74
178 0 6 -16 34 -37 63 -20 30 -55 92 -79 139 -23 47 -52 94 -65 105 -12 11
-38 46 -58 77 -44 68 -208 255 -346 393 -200 200 -341 318 -489 409 -17 10
-74 47 -126 81 -179 117 -491 258 -775 349 -44 14 -97 26 -116 26 -20 0 -56 8
-80 19 -24 10 -75 22 -112 25 -37 4 -90 15 -117 26 -32 13 -87 22 -157 26 -72
4 -126 13 -163 27 -52 19 -83 21 -590 28 -294 3 -542 9 -550 13 -8 3 -435 10
-948 15 -513 4 -935 11 -939 15 -3 3 -9 420 -11 926 l-5 920 714 -1 c393 -1
1180 -4 1749 -8z"/>
<path class="line" d="M1667 14412 l-77 -78 2 -924 3 -924 51 -41 c36 -29 77 -50 140 -70
l89 -29 950 2 c523 1 1310 8 1750 15 1090 17 1103 16 1138 -7 l27 -18 3 -1667
c3 -2609 -2 -4161 -14 -4217 -6 -27 -14 -90 -18 -140 -6 -69 -13 -99 -29 -121
-12 -17 -24 -50 -28 -74 -4 -24 -15 -55 -26 -68 -10 -13 -18 -32 -18 -43 0
-26 -125 -267 -194 -373 -98 -151 -314 -351 -495 -460 -90 -54 -296 -155 -317
-155 -9 0 -42 -9 -73 -19 -156 -53 -230 -70 -317 -74 -51 -3 -101 -10 -115
-18 -34 -20 -399 -20 -422 -1 -9 8 -59 17 -114 22 -61 6 -115 16 -143 29 -25
11 -58 21 -74 21 -16 0 -47 9 -70 19 -23 11 -79 34 -126 51 -47 18 -92 36
-100 41 -8 5 -33 18 -55 28 -22 10 -61 35 -88 55 -26 20 -51 36 -56 36 -5 0
-31 18 -57 41 -27 22 -65 49 -84 59 -52 27 -212 187 -254 253 -20 32 -53 80
-74 107 -69 91 -84 120 -172 330 -32 78 -51 143 -62 210 -5 36 -18 79 -28 95
-10 18 -20 59 -23 99 -3 47 -10 72 -20 78 -9 4 -21 24 -27 43 -15 45 -99 110
-160 124 -29 7 -341 11 -877 11 l-832 0 -63 -48 c-41 -31 -67 -58 -73 -79 -6
-17 -18 -40 -28 -50 -15 -18 -16 -25 -2 -89 8 -38 15 -109 15 -159 0 -112 16
-255 34 -315 8 -25 17 -73 20 -108 3 -34 13 -77 22 -94 9 -17 20 -63 26 -102
5 -39 14 -76 19 -82 5 -6 18 -42 28 -80 24 -88 48 -156 78 -219 12 -28 23 -56
23 -64 0 -7 9 -30 19 -50 11 -20 33 -65 50 -101 16 -36 36 -76 44 -90 8 -14
22 -41 31 -60 9 -19 23 -46 31 -60 8 -14 26 -52 42 -84 15 -33 44 -79 65 -103
21 -24 38 -51 38 -58 0 -8 19 -38 42 -67 24 -29 49 -65 56 -79 8 -14 36 -50
63 -80 27 -30 72 -85 100 -124 96 -135 427 -465 529 -530 21 -14 71 -54 111
-90 40 -36 77 -65 82 -65 6 0 34 -18 63 -40 30 -22 65 -45 79 -50 14 -5 49
-27 78 -49 58 -44 286 -176 391 -228 108 -53 334 -152 364 -159 15 -4 38 -12
52 -19 33 -16 115 -44 165 -57 22 -5 63 -19 90 -30 28 -11 73 -25 100 -30 28
-5 64 -14 80 -20 17 -6 66 -15 110 -21 44 -5 112 -20 152 -33 55 -19 93 -24
168 -24 57 0 125 -7 168 -17 104 -26 534 -25 622 0 38 11 94 17 158 17 78 0
114 5 170 24 40 13 99 27 132 30 33 3 74 12 90 20 17 8 59 20 94 26 35 6 80
20 100 31 19 10 48 19 64 19 15 0 44 8 65 19 20 10 53 22 72 26 19 4 50 16 68
26 18 10 40 19 49 19 9 0 30 9 47 19 17 11 58 28 91 40 85 28 317 142 400 196
39 25 86 53 105 61 19 9 53 31 75 49 22 17 54 39 70 48 17 8 53 34 80 57 28
23 64 47 80 54 17 8 57 37 90 66 33 30 103 88 155 129 112 89 361 336 422 418
23 32 68 87 99 123 31 36 72 91 92 122 20 31 51 74 70 95 19 21 42 54 52 73
10 19 32 55 50 80 18 25 45 72 61 105 17 34 40 75 52 92 12 17 22 37 22 45 0
7 11 30 25 50 14 20 25 42 25 48 0 6 9 28 19 48 48 94 60 121 76 177 9 33 31
92 50 130 51 109 85 203 85 236 0 16 7 46 15 66 9 21 20 75 24 120 6 57 14 90
26 104 14 14 20 45 26 127 4 59 14 121 21 137 11 25 14 786 16 4121 l3 4091
-74 77 -73 76 -2980 0 -2979 0 -78 -78z m6007 -111 l28 -29 -5 -4013 c-4
-2962 -8 -4027 -17 -4064 -6 -27 -14 -92 -17 -144 -4 -71 -11 -105 -28 -138
-15 -28 -26 -70 -30 -120 -4 -43 -12 -86 -17 -96 -5 -10 -15 -48 -23 -85 -16
-77 -43 -156 -67 -192 -9 -14 -30 -68 -48 -120 -17 -52 -40 -113 -50 -135 -26
-58 -69 -146 -85 -175 -8 -14 -20 -37 -27 -51 -66 -136 -151 -282 -205 -352
-18 -23 -55 -75 -83 -115 -28 -39 -71 -95 -95 -122 -24 -27 -63 -76 -87 -107
-53 -73 -247 -272 -328 -338 -35 -27 -101 -83 -149 -124 -47 -40 -106 -86
-131 -102 -25 -15 -70 -46 -100 -69 -85 -63 -150 -106 -210 -139 -30 -17 -86
-51 -125 -76 -84 -54 -274 -148 -365 -180 -58 -20 -105 -40 -190 -77 -53 -24
-157 -59 -197 -68 -24 -5 -56 -16 -72 -24 -15 -8 -55 -19 -88 -25 -33 -5 -77
-16 -98 -25 -20 -9 -52 -16 -71 -16 -18 0 -68 -11 -111 -24 -54 -16 -115 -26
-197 -30 -65 -4 -144 -14 -175 -22 -78 -21 -423 -21 -512 0 -35 8 -120 18
-189 22 -90 5 -145 13 -197 30 -39 13 -94 24 -121 24 -27 0 -66 7 -86 15 -20
8 -62 19 -94 24 -31 5 -79 18 -107 29 -27 11 -68 25 -90 30 -22 6 -71 22 -110
37 -38 15 -88 33 -110 40 -161 54 -511 232 -679 344 -38 25 -83 55 -100 65
-96 58 -224 147 -241 166 -11 13 -63 55 -115 93 -114 85 -390 358 -448 444
-23 34 -65 88 -93 120 -29 32 -66 81 -84 108 -18 28 -41 57 -50 65 -9 8 -29
39 -45 69 -15 31 -37 64 -49 75 -11 10 -45 71 -76 135 -30 64 -62 127 -70 141
-32 55 -114 227 -125 265 -7 22 -17 49 -23 60 -17 32 -57 146 -67 192 -5 23
-16 58 -25 78 -8 21 -15 49 -15 62 0 14 -11 57 -24 96 -13 40 -27 97 -31 128
-3 31 -12 77 -20 102 -12 40 -20 123 -39 400 -5 69 12 117 47 136 36 19 1610
12 1649 -8 33 -17 64 -78 73 -146 4 -27 16 -70 26 -94 10 -24 19 -56 19 -72 0
-87 149 -439 239 -564 27 -38 63 -90 78 -115 37 -59 279 -302 323 -325 19 -9
55 -34 80 -55 25 -20 56 -43 70 -50 14 -7 39 -24 55 -38 17 -14 53 -35 82 -48
28 -13 54 -28 58 -33 3 -6 27 -17 53 -25 26 -8 91 -33 145 -55 53 -23 106 -41
117 -41 11 0 51 -11 89 -24 37 -13 101 -27 142 -30 41 -4 97 -15 124 -24 72
-23 408 -24 480 0 28 9 95 19 150 23 57 4 119 14 145 24 61 25 213 71 231 71
25 0 300 139 389 197 186 121 417 345 519 503 83 127 251 466 251 506 0 10 11
41 25 68 19 37 25 65 25 111 0 34 8 84 17 111 16 46 18 243 21 3004 1 1625 0
2970 -3 2988 -8 46 -75 116 -142 148 l-55 27 -791 -12 c-436 -7 -1291 -14
-1902 -14 -1069 -2 -1112 -1 -1175 17 -36 11 -71 24 -77 29 -10 7 -13 192 -13
865 l0 856 27 28 27 28 2926 0 2926 0 28 -29z"/>
</g>
</svg>
