<?xml version="1.0" encoding="UTF-8"?>
<svg xmlns="http://www.w3.org/2000/svg" xmlns:xlink="http://www.w3.org/1999/xlink" width="24px" height="24px" viewBox="0 0 24 24" version="1.1">
<g id="surface1">
<path style=" stroke:none;fill-rule:nonzero;fill:rgb(0%,0%,0%);fill-opacity:1;" d="M 3.164062 1.621094 C 3.207031 1.621094 3.25 1.621094 3.292969 1.621094 C 3.339844 1.621094 3.382812 1.621094 3.429688 1.621094 C 3.480469 1.621094 3.527344 1.621094 3.578125 1.621094 C 3.738281 1.621094 3.898438 1.621094 4.058594 1.621094 C 4.171875 1.621094 4.285156 1.621094 4.394531 1.621094 C 4.628906 1.621094 4.863281 1.621094 5.097656 1.621094 C 5.398438 1.625 5.699219 1.621094 5.996094 1.621094 C 6.226562 1.621094 6.457031 1.621094 6.6875 1.621094 C 6.800781 1.621094 6.910156 1.621094 7.019531 1.621094 C 7.175781 1.621094 7.328125 1.621094 7.484375 1.621094 C 7.554688 1.621094 7.554688 1.621094 7.625 1.621094 C 7.855469 1.625 8.015625 1.628906 8.203125 1.78125 C 8.339844 1.953125 8.308594 2.167969 8.304688 2.375 C 8.304688 2.414062 8.304688 2.457031 8.304688 2.496094 C 8.304688 2.621094 8.304688 2.746094 8.300781 2.871094 C 8.300781 2.957031 8.300781 3.039062 8.300781 3.125 C 8.300781 3.335938 8.296875 3.542969 8.296875 3.75 C 8.347656 3.75 8.398438 3.75 8.453125 3.746094 C 8.644531 3.746094 8.835938 3.742188 9.023438 3.742188 C 9.109375 3.742188 9.191406 3.742188 9.273438 3.738281 C 9.390625 3.738281 9.511719 3.738281 9.628906 3.734375 C 9.664062 3.734375 9.703125 3.734375 9.742188 3.734375 C 9.957031 3.734375 10.09375 3.753906 10.265625 3.890625 C 10.390625 4.078125 10.390625 4.230469 10.359375 4.453125 C 10.273438 4.585938 10.21875 4.664062 10.078125 4.734375 C 9.957031 4.738281 9.839844 4.742188 9.71875 4.738281 C 9.664062 4.738281 9.664062 4.738281 9.605469 4.738281 C 9.480469 4.738281 9.355469 4.738281 9.226562 4.738281 C 9.136719 4.738281 9.046875 4.738281 8.957031 4.738281 C 8.714844 4.738281 8.46875 4.738281 8.222656 4.738281 C 7.96875 4.738281 7.710938 4.738281 7.453125 4.738281 C 6.96875 4.738281 6.484375 4.738281 6 4.738281 C 5.449219 4.738281 4.894531 4.738281 4.34375 4.738281 C 3.207031 4.734375 2.074219 4.734375 0.9375 4.734375 C 0.9375 5.230469 0.9375 5.722656 0.9375 6.234375 C 8.238281 6.234375 15.539062 6.234375 23.0625 6.234375 C 23.0625 5.738281 23.0625 5.246094 23.0625 4.734375 C 22.949219 4.734375 22.835938 4.734375 22.71875 4.734375 C 21.644531 4.738281 20.570312 4.742188 19.5 4.742188 C 18.949219 4.746094 18.394531 4.746094 17.84375 4.75 C 17.363281 4.75 16.882812 4.75 16.402344 4.753906 C 16.148438 4.753906 15.894531 4.753906 15.640625 4.753906 C 15.398438 4.753906 15.160156 4.757812 14.921875 4.753906 C 14.832031 4.753906 14.746094 4.757812 14.65625 4.757812 C 14.535156 4.757812 14.417969 4.757812 14.296875 4.757812 C 14.246094 4.757812 14.246094 4.757812 14.191406 4.757812 C 13.964844 4.757812 13.847656 4.710938 13.6875 4.546875 C 13.605469 4.382812 13.613281 4.207031 13.640625 4.03125 C 13.742188 3.902344 13.820312 3.824219 13.96875 3.75 C 14.097656 3.746094 14.226562 3.746094 14.355469 3.746094 C 14.414062 3.746094 14.414062 3.746094 14.472656 3.746094 C 14.597656 3.746094 14.71875 3.746094 14.839844 3.746094 C 14.925781 3.746094 15.007812 3.746094 15.089844 3.746094 C 15.296875 3.75 15.5 3.75 15.703125 3.75 C 15.703125 3.699219 15.703125 3.644531 15.699219 3.589844 C 15.699219 3.394531 15.695312 3.199219 15.695312 3 C 15.695312 2.917969 15.695312 2.832031 15.691406 2.746094 C 15.691406 2.625 15.691406 2.503906 15.6875 2.382812 C 15.6875 2.34375 15.6875 2.304688 15.6875 2.265625 C 15.6875 2.050781 15.699219 1.90625 15.84375 1.734375 C 15.980469 1.652344 16.082031 1.628906 16.242188 1.628906 C 16.304688 1.628906 16.304688 1.628906 16.371094 1.625 C 16.4375 1.625 16.4375 1.625 16.507812 1.628906 C 16.558594 1.625 16.605469 1.625 16.65625 1.625 C 16.816406 1.625 16.976562 1.625 17.136719 1.625 C 17.25 1.625 17.363281 1.625 17.472656 1.625 C 17.707031 1.625 17.941406 1.625 18.175781 1.625 C 18.476562 1.625 18.777344 1.621094 19.074219 1.621094 C 19.304688 1.621094 19.535156 1.617188 19.765625 1.621094 C 19.878906 1.617188 19.988281 1.617188 20.097656 1.617188 C 20.253906 1.617188 20.40625 1.617188 20.5625 1.617188 C 20.609375 1.617188 20.65625 1.617188 20.703125 1.617188 C 20.902344 1.617188 21.015625 1.621094 21.191406 1.730469 C 21.390625 1.949219 21.386719 2.167969 21.382812 2.453125 C 21.382812 2.511719 21.382812 2.511719 21.382812 2.566406 C 21.382812 2.683594 21.382812 2.804688 21.378906 2.921875 C 21.378906 3 21.378906 3.082031 21.378906 3.160156 C 21.378906 3.359375 21.375 3.554688 21.375 3.75 C 21.402344 3.75 21.429688 3.75 21.460938 3.75 C 21.753906 3.746094 22.046875 3.742188 22.339844 3.738281 C 22.449219 3.738281 22.558594 3.738281 22.667969 3.734375 C 22.828125 3.734375 22.984375 3.734375 23.140625 3.730469 C 23.191406 3.730469 23.238281 3.730469 23.289062 3.730469 C 23.574219 3.730469 23.738281 3.746094 23.953125 3.9375 C 24.015625 4.0625 24.007812 4.164062 24.007812 4.304688 C 24.011719 4.363281 24.011719 4.417969 24.011719 4.480469 C 24.011719 4.542969 24.011719 4.605469 24.011719 4.667969 C 24.011719 4.714844 24.011719 4.714844 24.011719 4.765625 C 24.015625 4.933594 24.015625 5.097656 24.015625 5.265625 C 24.015625 5.40625 24.019531 5.542969 24.019531 5.683594 C 24.023438 5.851562 24.023438 6.019531 24.023438 6.1875 C 24.023438 6.25 24.023438 6.3125 24.027344 6.378906 C 24.027344 6.464844 24.027344 6.554688 24.027344 6.644531 C 24.027344 6.695312 24.027344 6.746094 24.027344 6.800781 C 24 6.9375 24 6.9375 23.765625 7.171875 C 23.394531 7.171875 23.023438 7.171875 22.640625 7.171875 C 22.640625 11.054688 22.640625 14.9375 22.640625 18.9375 C 22.996094 18.9375 23.351562 18.9375 23.71875 18.9375 C 23.953125 19.125 23.953125 19.125 24 19.21875 C 24.003906 19.308594 24.007812 19.398438 24.007812 19.488281 C 24.007812 19.542969 24.007812 19.601562 24.011719 19.660156 C 24.011719 19.75 24.011719 19.75 24.011719 19.84375 C 24.011719 19.875 24.011719 19.90625 24.011719 19.941406 C 24.011719 20.105469 24.011719 20.269531 24.015625 20.433594 C 24.015625 20.605469 24.015625 20.773438 24.019531 20.945312 C 24.019531 21.078125 24.019531 21.207031 24.019531 21.339844 C 24.019531 21.433594 24.019531 21.523438 24.023438 21.617188 C 24.023438 21.675781 24.023438 21.730469 24.023438 21.789062 C 24.023438 21.839844 24.023438 21.890625 24.023438 21.941406 C 23.996094 22.113281 23.933594 22.191406 23.8125 22.3125 C 23.636719 22.371094 23.472656 22.367188 23.289062 22.367188 C 23.25 22.367188 23.210938 22.367188 23.171875 22.367188 C 23.039062 22.367188 22.902344 22.367188 22.769531 22.367188 C 22.675781 22.367188 22.578125 22.367188 22.480469 22.367188 C 22.214844 22.367188 21.949219 22.367188 21.683594 22.367188 C 21.398438 22.367188 21.113281 22.367188 20.828125 22.367188 C 20.167969 22.367188 19.511719 22.367188 18.855469 22.367188 C 18.527344 22.367188 18.203125 22.367188 17.878906 22.371094 C 16.765625 22.371094 15.652344 22.371094 14.542969 22.371094 C 14.472656 22.371094 14.402344 22.371094 14.332031 22.371094 C 14.261719 22.371094 14.191406 22.371094 14.121094 22.371094 C 13.980469 22.371094 13.839844 22.371094 13.699219 22.371094 C 13.664062 22.371094 13.632812 22.371094 13.59375 22.371094 C 12.464844 22.371094 11.335938 22.371094 10.207031 22.371094 C 9.011719 22.375 7.820312 22.375 6.625 22.375 C 6.492188 22.375 6.363281 22.375 6.230469 22.375 C 6.199219 22.375 6.167969 22.375 6.132812 22.375 C 5.613281 22.375 5.09375 22.375 4.574219 22.375 C 4.054688 22.375 3.53125 22.375 3.007812 22.375 C 2.726562 22.375 2.441406 22.375 2.160156 22.375 C 1.902344 22.378906 1.644531 22.378906 1.382812 22.375 C 1.289062 22.375 1.195312 22.375 1.101562 22.378906 C 0.976562 22.378906 0.847656 22.378906 0.722656 22.375 C 0.683594 22.378906 0.648438 22.378906 0.609375 22.378906 C 0.398438 22.375 0.261719 22.351562 0.09375 22.21875 C -0.015625 22.058594 -0.0117188 21.996094 -0.0117188 21.804688 C -0.015625 21.746094 -0.015625 21.691406 -0.015625 21.632812 C -0.015625 21.570312 -0.015625 21.511719 -0.015625 21.445312 C -0.015625 21.382812 -0.015625 21.320312 -0.015625 21.257812 C -0.015625 21.125 -0.015625 20.992188 -0.015625 20.859375 C -0.015625 20.6875 -0.0195312 20.519531 -0.0195312 20.347656 C -0.0195312 20.21875 -0.0234375 20.085938 -0.0195312 19.957031 C -0.0234375 19.863281 -0.0234375 19.769531 -0.0234375 19.675781 C -0.0234375 19.621094 -0.0234375 19.5625 -0.0234375 19.503906 C -0.0234375 19.457031 -0.0234375 19.40625 -0.0234375 19.355469 C 0.00390625 19.183594 0.0703125 19.105469 0.1875 18.984375 C 0.539062 18.808594 0.96875 18.9375 1.359375 18.9375 C 1.359375 15.054688 1.359375 11.171875 1.359375 7.171875 C 0.988281 7.171875 0.617188 7.171875 0.234375 7.171875 C -0.03125 6.90625 -0.03125 6.90625 -0.03125 6.648438 C -0.03125 6.589844 -0.03125 6.53125 -0.03125 6.472656 C -0.03125 6.414062 -0.03125 6.351562 -0.03125 6.289062 C -0.03125 6.222656 -0.03125 6.160156 -0.03125 6.09375 C -0.03125 5.960938 -0.03125 5.824219 -0.03125 5.691406 C -0.0273438 5.519531 -0.03125 5.347656 -0.03125 5.175781 C -0.03125 5.042969 -0.03125 4.910156 -0.03125 4.777344 C -0.03125 4.683594 -0.03125 4.589844 -0.03125 4.496094 C -0.0273438 4.019531 -0.0273438 4.019531 0.113281 3.875 C 0.277344 3.769531 0.355469 3.746094 0.550781 3.746094 C 0.59375 3.746094 0.640625 3.746094 0.6875 3.746094 C 0.738281 3.746094 0.789062 3.746094 0.839844 3.746094 C 0.890625 3.746094 0.941406 3.746094 0.992188 3.746094 C 1.15625 3.746094 1.320312 3.746094 1.480469 3.746094 C 1.59375 3.746094 1.703125 3.746094 1.8125 3.746094 C 2.082031 3.75 2.355469 3.75 2.625 3.75 C 2.625 3.699219 2.625 3.652344 2.621094 3.597656 C 2.621094 3.414062 2.617188 3.230469 2.617188 3.042969 C 2.617188 2.964844 2.617188 2.882812 2.613281 2.804688 C 2.613281 2.691406 2.613281 2.574219 2.609375 2.460938 C 2.609375 2.421875 2.609375 2.386719 2.609375 2.351562 C 2.609375 2.128906 2.640625 1.972656 2.765625 1.78125 C 2.898438 1.660156 2.984375 1.621094 3.164062 1.621094 Z M 3.609375 2.625 C 3.609375 2.996094 3.609375 3.367188 3.609375 3.75 C 4.832031 3.75 6.054688 3.75 7.3125 3.75 C 7.3125 3.378906 7.3125 3.007812 7.3125 2.625 C 6.089844 2.625 4.867188 2.625 3.609375 2.625 Z M 16.6875 2.625 C 16.6875 2.996094 16.6875 3.367188 16.6875 3.75 C 17.910156 3.75 19.132812 3.75 20.390625 3.75 C 20.390625 3.378906 20.390625 3.007812 20.390625 2.625 C 19.167969 2.625 17.945312 2.625 16.6875 2.625 Z M 2.34375 7.171875 C 2.34375 11.054688 2.34375 14.9375 2.34375 18.9375 C 8.71875 18.9375 15.089844 18.9375 21.65625 18.9375 C 21.65625 15.054688 21.65625 11.171875 21.65625 7.171875 C 15.28125 7.171875 8.910156 7.171875 2.34375 7.171875 Z M 0.9375 19.921875 C 0.9375 20.402344 0.9375 20.882812 0.9375 21.375 C 8.238281 21.375 15.539062 21.375 23.0625 21.375 C 23.0625 20.894531 23.0625 20.414062 23.0625 19.921875 C 15.761719 19.921875 8.460938 19.921875 0.9375 19.921875 Z M 0.9375 19.921875 "/>
<path style=" stroke:none;fill-rule:nonzero;fill:rgb(0%,0%,0%);fill-opacity:1;" d="M 12.65625 8.15625 C 12.8125 8.308594 12.882812 8.382812 12.917969 8.597656 C 12.917969 8.65625 12.917969 8.714844 12.917969 8.773438 C 12.917969 8.808594 12.917969 8.839844 12.917969 8.875 C 12.917969 8.980469 12.914062 9.085938 12.914062 9.191406 C 12.914062 9.265625 12.914062 9.339844 12.914062 9.414062 C 12.910156 9.609375 12.910156 9.804688 12.90625 10 C 12.90625 10.199219 12.902344 10.398438 12.902344 10.597656 C 12.898438 10.984375 12.894531 11.375 12.890625 11.765625 C 12.945312 11.765625 13 11.765625 13.054688 11.765625 C 13.257812 11.761719 13.457031 11.761719 13.660156 11.761719 C 13.746094 11.761719 13.832031 11.757812 13.921875 11.757812 C 14.046875 11.757812 14.171875 11.757812 14.296875 11.757812 C 14.355469 11.753906 14.355469 11.753906 14.414062 11.753906 C 14.675781 11.753906 14.859375 11.773438 15.0625 11.960938 C 15.164062 12.132812 15.167969 12.277344 15.140625 12.46875 C 15.089844 12.589844 15.035156 12.691406 14.96875 12.804688 C 14.949219 12.835938 14.929688 12.867188 14.910156 12.898438 C 14.871094 12.96875 14.828125 13.039062 14.785156 13.109375 C 14.71875 13.222656 14.648438 13.335938 14.582031 13.449219 C 14.484375 13.621094 14.382812 13.792969 14.28125 13.960938 C 14.109375 14.25 13.941406 14.535156 13.773438 14.824219 C 13.722656 14.910156 13.671875 14.996094 13.621094 15.082031 C 13.464844 15.347656 13.308594 15.613281 13.15625 15.878906 C 12.515625 16.972656 12.515625 16.972656 12.21875 17.46875 C 12.195312 17.5 12.175781 17.535156 12.15625 17.570312 C 11.933594 17.929688 11.933594 17.929688 11.761719 17.980469 C 11.582031 18.003906 11.46875 18.011719 11.300781 17.945312 C 11.152344 17.816406 11.113281 17.71875 11.097656 17.523438 C 11.097656 17.433594 11.097656 17.433594 11.097656 17.34375 C 11.097656 17.3125 11.097656 17.28125 11.097656 17.246094 C 11.097656 17.140625 11.097656 17.03125 11.101562 16.925781 C 11.101562 16.851562 11.101562 16.777344 11.101562 16.703125 C 11.101562 16.507812 11.101562 16.3125 11.101562 16.117188 C 11.105469 15.917969 11.105469 15.71875 11.105469 15.519531 C 11.105469 15.125 11.105469 14.734375 11.109375 14.34375 C 11.054688 14.34375 11 14.34375 10.941406 14.347656 C 10.734375 14.347656 10.53125 14.351562 10.324219 14.351562 C 10.234375 14.351562 10.144531 14.351562 10.058594 14.355469 C 9.929688 14.355469 9.800781 14.355469 9.671875 14.359375 C 9.632812 14.359375 9.59375 14.359375 9.550781 14.359375 C 9.316406 14.359375 9.15625 14.335938 8.953125 14.203125 C 8.828125 14.011719 8.820312 13.859375 8.859375 13.640625 C 8.945312 13.4375 9.058594 13.257812 9.171875 13.070312 C 9.207031 13.015625 9.238281 12.960938 9.269531 12.90625 C 9.335938 12.796875 9.402344 12.6875 9.46875 12.578125 C 9.578125 12.398438 9.683594 12.21875 9.789062 12.039062 C 9.863281 11.914062 9.9375 11.789062 10.011719 11.664062 C 10.179688 11.375 10.351562 11.085938 10.519531 10.800781 C 10.847656 10.234375 11.179688 9.671875 11.511719 9.113281 C 11.574219 9.003906 11.640625 8.894531 11.703125 8.785156 C 11.742188 8.722656 11.777344 8.65625 11.816406 8.59375 C 11.832031 8.5625 11.847656 8.535156 11.863281 8.507812 C 12.058594 8.175781 12.273438 8.058594 12.65625 8.15625 Z M 11.859375 10.5 C 11.808594 10.582031 11.757812 10.664062 11.707031 10.75 C 11.691406 10.777344 11.675781 10.800781 11.660156 10.828125 C 11.609375 10.917969 11.558594 11.007812 11.507812 11.09375 C 11.472656 11.15625 11.4375 11.21875 11.402344 11.277344 C 11.34375 11.375 11.289062 11.46875 11.234375 11.5625 C 11.101562 11.792969 10.96875 12.019531 10.835938 12.246094 C 10.796875 12.308594 10.761719 12.371094 10.722656 12.433594 C 10.671875 12.523438 10.617188 12.613281 10.5625 12.703125 C 10.515625 12.789062 10.464844 12.871094 10.417969 12.957031 C 10.386719 13.003906 10.359375 13.050781 10.332031 13.097656 C 10.261719 13.21875 10.261719 13.21875 10.21875 13.359375 C 10.289062 13.359375 10.289062 13.359375 10.359375 13.363281 C 10.527344 13.367188 10.699219 13.371094 10.871094 13.375 C 10.941406 13.378906 11.015625 13.378906 11.089844 13.382812 C 11.195312 13.386719 11.304688 13.386719 11.410156 13.390625 C 11.441406 13.390625 11.476562 13.394531 11.507812 13.394531 C 11.859375 13.40625 11.859375 13.40625 11.953125 13.453125 C 12.066406 13.683594 12.0625 13.921875 12.066406 14.171875 C 12.066406 14.214844 12.066406 14.253906 12.070312 14.296875 C 12.070312 14.429688 12.074219 14.558594 12.078125 14.6875 C 12.078125 14.777344 12.078125 14.867188 12.082031 14.957031 C 12.085938 15.175781 12.089844 15.390625 12.09375 15.609375 C 12.207031 15.5 12.285156 15.394531 12.363281 15.257812 C 12.390625 15.214844 12.414062 15.171875 12.441406 15.125 C 12.464844 15.078125 12.492188 15.03125 12.523438 14.984375 C 12.578125 14.882812 12.636719 14.78125 12.695312 14.679688 C 12.710938 14.652344 12.726562 14.625 12.742188 14.597656 C 12.863281 14.390625 12.984375 14.183594 13.109375 13.976562 C 13.144531 13.914062 13.179688 13.851562 13.21875 13.789062 C 13.269531 13.699219 13.324219 13.609375 13.378906 13.519531 C 13.425781 13.433594 13.476562 13.351562 13.527344 13.265625 C 13.570312 13.191406 13.570312 13.191406 13.613281 13.117188 C 13.679688 12.996094 13.734375 12.878906 13.78125 12.75 C 13.710938 12.75 13.710938 12.75 13.636719 12.75 C 13.460938 12.746094 13.285156 12.742188 13.109375 12.742188 C 13.035156 12.738281 12.957031 12.738281 12.882812 12.738281 C 12.773438 12.734375 12.664062 12.734375 12.554688 12.730469 C 12.519531 12.730469 12.488281 12.730469 12.453125 12.730469 C 12.289062 12.726562 12.203125 12.714844 12.074219 12.613281 C 11.925781 12.417969 11.941406 12.230469 11.9375 11.992188 C 11.9375 11.949219 11.9375 11.90625 11.933594 11.863281 C 11.933594 11.726562 11.929688 11.589844 11.925781 11.453125 C 11.925781 11.363281 11.921875 11.269531 11.921875 11.179688 C 11.914062 10.953125 11.910156 10.726562 11.90625 10.5 C 11.890625 10.5 11.875 10.5 11.859375 10.5 Z M 11.859375 10.5 "/>
<path style=" stroke:none;fill-rule:nonzero;fill:rgb(0%,0%,0%);fill-opacity:1;" d="M 18.75 11.625 C 18.878906 11.726562 18.957031 11.804688 19.03125 11.953125 C 19.035156 12.054688 19.035156 12.160156 19.035156 12.265625 C 19.035156 12.320312 19.035156 12.375 19.03125 12.433594 C 19.03125 12.476562 19.03125 12.519531 19.03125 12.5625 C 19.070312 12.558594 19.113281 12.558594 19.15625 12.554688 C 19.652344 12.539062 19.652344 12.539062 19.816406 12.648438 C 19.957031 12.785156 19.976562 12.859375 19.984375 13.046875 C 19.980469 13.210938 19.972656 13.261719 19.882812 13.40625 C 19.707031 13.570312 19.589844 13.550781 19.351562 13.550781 C 19.292969 13.550781 19.234375 13.550781 19.171875 13.546875 C 19.101562 13.546875 19.101562 13.546875 19.03125 13.546875 C 19.035156 13.585938 19.035156 13.628906 19.039062 13.671875 C 19.054688 14.167969 19.054688 14.167969 18.949219 14.328125 C 18.785156 14.5 18.785156 14.5 18.65625 14.53125 C 18.425781 14.53125 18.328125 14.519531 18.140625 14.382812 C 17.96875 14.148438 18.03125 13.820312 18.046875 13.546875 C 18.003906 13.550781 17.957031 13.550781 17.914062 13.554688 C 17.375 13.574219 17.375 13.574219 17.210938 13.453125 C 17.085938 13.28125 17.042969 13.152344 17.0625 12.9375 C 17.140625 12.738281 17.246094 12.65625 17.4375 12.5625 C 17.59375 12.546875 17.59375 12.546875 17.757812 12.554688 C 17.839844 12.554688 17.839844 12.554688 17.921875 12.558594 C 17.964844 12.558594 18.003906 12.5625 18.046875 12.5625 C 18.042969 12.519531 18.042969 12.472656 18.039062 12.425781 C 18.039062 12.367188 18.035156 12.308594 18.035156 12.25 C 18.03125 12.191406 18.03125 12.132812 18.027344 12.074219 C 18.050781 11.878906 18.097656 11.808594 18.234375 11.671875 C 18.398438 11.589844 18.574219 11.597656 18.75 11.625 Z M 18.75 11.625 "/>
<path style=" stroke:none;fill-rule:nonzero;fill:rgb(0%,0%,0%);fill-opacity:1;" d="M 4.570312 12.554688 C 4.613281 12.554688 4.65625 12.554688 4.699219 12.554688 C 4.746094 12.554688 4.792969 12.554688 4.84375 12.554688 C 4.914062 12.550781 4.914062 12.550781 4.988281 12.550781 C 5.089844 12.550781 5.191406 12.550781 5.292969 12.550781 C 5.449219 12.550781 5.605469 12.550781 5.761719 12.546875 C 5.863281 12.546875 5.960938 12.546875 6.0625 12.546875 C 6.109375 12.546875 6.15625 12.546875 6.203125 12.546875 C 6.609375 12.546875 6.609375 12.546875 6.796875 12.703125 C 6.914062 12.84375 6.949219 12.945312 6.941406 13.125 C 6.929688 13.273438 6.882812 13.320312 6.78125 13.433594 C 6.570312 13.601562 6.34375 13.578125 6.085938 13.578125 C 6.011719 13.578125 6.011719 13.578125 5.9375 13.578125 C 5.832031 13.578125 5.726562 13.574219 5.621094 13.574219 C 5.457031 13.574219 5.296875 13.574219 5.136719 13.574219 C 5.03125 13.574219 4.929688 13.574219 4.828125 13.574219 C 4.753906 13.574219 4.753906 13.574219 4.683594 13.574219 C 4.472656 13.570312 4.347656 13.566406 4.167969 13.457031 C 4.019531 13.292969 4.011719 13.164062 4.015625 12.949219 C 4.042969 12.78125 4.132812 12.710938 4.265625 12.609375 C 4.375 12.554688 4.445312 12.554688 4.570312 12.554688 Z M 4.570312 12.554688 "/>
<path style=" stroke:none;fill-rule:nonzero;fill:rgb(0%,0%,0%);fill-opacity:1;" d="M 12.28125 3.796875 C 12.425781 3.921875 12.464844 4.011719 12.511719 4.195312 C 12.515625 4.421875 12.445312 4.515625 12.296875 4.679688 C 12.136719 4.761719 11.984375 4.765625 11.8125 4.734375 C 11.679688 4.648438 11.601562 4.59375 11.53125 4.453125 C 11.511719 4.308594 11.507812 4.175781 11.53125 4.03125 C 11.738281 3.761719 11.953125 3.703125 12.28125 3.796875 Z M 12.28125 3.796875 "/>
</g>
</svg>
