<?xml version="1.0" encoding="UTF-8"?>
<svg xmlns="http://www.w3.org/2000/svg" xmlns:xlink="http://www.w3.org/1999/xlink" width="24px" height="24px" viewBox="0 0 24 24" version="1.1">
<g id="surface1">
<path style=" stroke:none;fill-rule:nonzero;fill:rgb(0%,0%,0%);fill-opacity:1;" d="M 11.984375 1.578125 C 12.039062 1.578125 12.039062 1.578125 12.101562 1.578125 C 14.871094 1.589844 17.371094 2.6875 19.359375 4.59375 C 19.398438 4.628906 19.4375 4.667969 19.476562 4.703125 C 21.269531 6.445312 22.378906 9.046875 22.421875 11.539062 C 22.421875 11.6875 22.421875 11.835938 22.421875 11.984375 C 22.421875 12.019531 22.421875 12.058594 22.421875 12.101562 C 22.410156 14.867188 21.3125 17.375 19.40625 19.359375 C 19.371094 19.398438 19.332031 19.4375 19.296875 19.476562 C 17.898438 20.914062 15.929688 21.90625 13.96875 22.265625 C 13.914062 22.277344 13.914062 22.277344 13.859375 22.285156 C 12.648438 22.507812 11.285156 22.511719 10.078125 22.265625 C 10.03125 22.257812 9.988281 22.246094 9.941406 22.238281 C 7.898438 21.820312 6.136719 20.839844 4.640625 19.40625 C 4.582031 19.351562 4.582031 19.351562 4.523438 19.296875 C 2.746094 17.566406 1.617188 14.96875 1.578125 12.492188 C 1.578125 12.332031 1.578125 12.175781 1.578125 12.015625 C 1.578125 11.976562 1.578125 11.933594 1.578125 11.894531 C 1.582031 11.261719 1.601562 10.648438 1.734375 10.03125 C 1.742188 9.988281 1.753906 9.945312 1.761719 9.898438 C 2.191406 7.875 3.171875 6.125 4.59375 4.640625 C 4.628906 4.601562 4.667969 4.5625 4.703125 4.523438 C 6.582031 2.589844 9.316406 1.566406 11.984375 1.578125 Z M 11.023438 2.914062 C 10.839844 3.207031 10.78125 3.5 10.828125 3.84375 C 10.949219 4.246094 11.183594 4.46875 11.53125 4.6875 C 11.777344 4.8125 12.046875 4.820312 12.308594 4.746094 C 12.550781 4.65625 12.722656 4.5625 12.890625 4.359375 C 12.925781 4.320312 12.957031 4.285156 12.992188 4.246094 C 13.183594 3.972656 13.203125 3.695312 13.171875 3.375 C 13.101562 3.042969 12.921875 2.792969 12.648438 2.597656 C 12.082031 2.277344 11.421875 2.386719 11.023438 2.914062 Z M 6.609375 4.078125 C 6.722656 4.191406 6.828125 4.234375 6.96875 4.300781 C 7.445312 4.535156 7.703125 4.804688 7.921875 5.296875 C 7.988281 5.511719 8.027344 5.730469 8.0625 5.953125 C 8.097656 5.929688 8.136719 5.90625 8.175781 5.882812 C 8.894531 5.457031 9.640625 5.171875 10.453125 4.96875 C 10.367188 4.738281 10.253906 4.527344 10.140625 4.308594 C 9.914062 3.8125 10.003906 3.230469 10.179688 2.734375 C 10.191406 2.699219 10.203125 2.660156 10.21875 2.625 C 9.054688 2.546875 7.519531 3.4375 6.609375 4.078125 Z M 13.78125 2.625 C 13.792969 2.660156 13.808594 2.695312 13.820312 2.730469 C 14.015625 3.28125 14.070312 3.835938 13.839844 4.386719 C 13.765625 4.53125 13.683594 4.667969 13.589844 4.800781 C 13.539062 4.875 13.539062 4.875 13.546875 4.96875 C 13.585938 4.980469 13.585938 4.980469 13.625 4.988281 C 14.378906 5.1875 15.101562 5.429688 15.761719 5.859375 C 15.839844 5.914062 15.839844 5.914062 15.9375 5.90625 C 15.945312 5.867188 15.953125 5.828125 15.957031 5.789062 C 16.03125 5.417969 16.140625 5.136719 16.359375 4.828125 C 16.394531 4.777344 16.429688 4.726562 16.464844 4.675781 C 16.722656 4.417969 17.050781 4.257812 17.390625 4.125 C 16.667969 3.308594 15.050781 2.796875 14.015625 2.625 C 13.878906 2.617188 13.878906 2.617188 13.78125 2.625 Z M 5.109375 5.34375 C 4.925781 5.625 4.847656 5.898438 4.875 6.234375 C 4.96875 6.554688 5.09375 6.863281 5.390625 7.042969 C 5.734375 7.21875 6.074219 7.296875 6.453125 7.179688 C 6.773438 7.035156 7.023438 6.816406 7.179688 6.5 C 7.28125 6.175781 7.265625 5.820312 7.121094 5.511719 C 6.933594 5.183594 6.699219 5 6.335938 4.898438 C 5.847656 4.792969 5.429688 4.976562 5.109375 5.34375 Z M 17.089844 5.210938 C 16.824219 5.519531 16.742188 5.828125 16.761719 6.230469 C 16.808594 6.582031 16.976562 6.789062 17.246094 7.007812 C 17.546875 7.222656 17.828125 7.265625 18.1875 7.21875 C 18.523438 7.117188 18.785156 6.953125 18.972656 6.652344 C 19.132812 6.34375 19.171875 6.023438 19.078125 5.6875 C 18.941406 5.34375 18.703125 5.105469 18.371094 4.953125 C 17.917969 4.789062 17.441406 4.875 17.089844 5.210938 Z M 7.25 7.714844 C 6.070312 9.121094 5.480469 10.792969 5.636719 12.636719 C 5.785156 13.957031 6.308594 15.160156 7.171875 16.171875 C 7.203125 16.210938 7.238281 16.25 7.269531 16.289062 C 8.292969 17.472656 9.882812 18.246094 11.4375 18.375 C 12.738281 18.441406 13.953125 18.210938 15.09375 17.578125 C 15.136719 17.554688 15.179688 17.53125 15.222656 17.507812 C 15.84375 17.15625 16.425781 16.675781 16.875 16.125 C 16.910156 16.082031 16.945312 16.039062 16.984375 15.996094 C 18.039062 14.683594 18.503906 13.035156 18.363281 11.363281 C 18.21875 10.050781 17.699219 8.820312 16.828125 7.828125 C 16.792969 7.789062 16.761719 7.75 16.726562 7.707031 C 15.730469 6.554688 14.195312 5.773438 12.679688 5.632812 C 10.628906 5.488281 8.644531 6.167969 7.25 7.714844 Z M 4.078125 6.609375 C 3.421875 7.539062 2.550781 9.039062 2.625 10.21875 C 2.660156 10.207031 2.695312 10.191406 2.730469 10.179688 C 3.339844 9.964844 3.949219 9.933594 4.546875 10.21875 C 4.664062 10.289062 4.765625 10.367188 4.875 10.453125 C 4.90625 10.453125 4.9375 10.453125 4.96875 10.453125 C 4.976562 10.425781 4.980469 10.402344 4.988281 10.375 C 5.1875 9.621094 5.429688 8.898438 5.859375 8.238281 C 5.914062 8.160156 5.914062 8.160156 5.90625 8.0625 C 5.863281 8.054688 5.816406 8.042969 5.769531 8.03125 C 5.222656 7.90625 4.769531 7.714844 4.429688 7.242188 C 4.308594 7.039062 4.214844 6.828125 4.125 6.609375 C 4.109375 6.609375 4.09375 6.609375 4.078125 6.609375 Z M 19.875 6.609375 C 19.855469 6.652344 19.835938 6.695312 19.8125 6.742188 C 19.542969 7.304688 19.285156 7.675781 18.683594 7.921875 C 18.488281 7.988281 18.296875 8.035156 18.09375 8.0625 C 18.15625 8.230469 18.234375 8.390625 18.316406 8.546875 C 18.632812 9.164062 18.867188 9.78125 19.03125 10.453125 C 19.261719 10.367188 19.472656 10.253906 19.691406 10.140625 C 20.117188 9.945312 20.652344 9.976562 21.085938 10.128906 C 21.128906 10.144531 21.175781 10.164062 21.21875 10.183594 C 21.257812 10.195312 21.292969 10.207031 21.328125 10.21875 C 21.359375 10.203125 21.390625 10.1875 21.421875 10.171875 C 21.125 8.921875 20.707031 7.648438 19.921875 6.609375 C 19.90625 6.609375 19.890625 6.609375 19.875 6.609375 Z M 2.671875 11.25 C 2.445312 11.574219 2.375 11.890625 2.4375 12.28125 C 2.554688 12.644531 2.753906 12.898438 3.085938 13.078125 C 3.367188 13.203125 3.664062 13.226562 3.960938 13.136719 C 4.332031 12.984375 4.550781 12.726562 4.734375 12.375 C 4.835938 12.039062 4.785156 11.765625 4.648438 11.449219 C 4.574219 11.308594 4.484375 11.210938 4.359375 11.109375 C 4.320312 11.074219 4.285156 11.042969 4.246094 11.007812 C 3.738281 10.648438 3.0625 10.800781 2.671875 11.25 Z M 19.5 11.25 C 19.285156 11.554688 19.171875 11.804688 19.21875 12.1875 C 19.300781 12.476562 19.40625 12.695312 19.640625 12.890625 C 19.679688 12.925781 19.714844 12.957031 19.753906 12.992188 C 20.027344 13.183594 20.304688 13.203125 20.625 13.171875 C 20.957031 13.101562 21.207031 12.921875 21.402344 12.648438 C 21.574219 12.34375 21.617188 12.0625 21.5625 11.71875 C 21.445312 11.355469 21.246094 11.101562 20.914062 10.921875 C 20.402344 10.699219 19.851562 10.820312 19.5 11.25 Z M 4.664062 13.679688 C 4.160156 13.980469 3.632812 14.0625 3.054688 13.925781 C 2.910156 13.882812 2.765625 13.835938 2.625 13.78125 C 2.644531 14.121094 2.710938 14.433594 2.8125 14.757812 C 2.828125 14.804688 2.839844 14.851562 2.855469 14.902344 C 3.132812 15.773438 3.546875 16.644531 4.078125 17.390625 C 4.191406 17.277344 4.234375 17.171875 4.300781 17.03125 C 4.535156 16.554688 4.804688 16.296875 5.296875 16.078125 C 5.511719 16.011719 5.730469 15.972656 5.953125 15.9375 C 5.929688 15.902344 5.90625 15.863281 5.882812 15.824219 C 5.457031 15.105469 5.171875 14.359375 4.96875 13.546875 C 4.835938 13.546875 4.773438 13.605469 4.664062 13.679688 Z M 19.03125 13.546875 C 19.023438 13.574219 19.019531 13.597656 19.011719 13.625 C 18.8125 14.378906 18.570312 15.101562 18.140625 15.761719 C 18.085938 15.839844 18.085938 15.839844 18.09375 15.9375 C 18.148438 15.949219 18.148438 15.949219 18.199219 15.960938 C 18.714844 16.078125 19.214844 16.257812 19.53125 16.703125 C 19.667969 16.925781 19.78125 17.148438 19.875 17.390625 C 20.0625 17.226562 20.167969 17.035156 20.285156 16.820312 C 20.304688 16.78125 20.324219 16.746094 20.347656 16.707031 C 20.410156 16.589844 20.46875 16.476562 20.53125 16.359375 C 20.546875 16.328125 20.566406 16.292969 20.582031 16.261719 C 20.984375 15.488281 21.277344 14.640625 21.421875 13.78125 C 21.390625 13.789062 21.359375 13.800781 21.324219 13.808594 C 21.261719 13.828125 21.261719 13.828125 21.199219 13.847656 C 21.15625 13.859375 21.117188 13.875 21.074219 13.886719 C 21.035156 13.898438 20.996094 13.910156 20.953125 13.921875 C 20.925781 13.929688 20.894531 13.941406 20.867188 13.949219 C 20.300781 14.058594 19.773438 13.957031 19.285156 13.652344 C 19.257812 13.632812 19.226562 13.613281 19.199219 13.589844 C 19.125 13.539062 19.125 13.539062 19.03125 13.546875 Z M 5.136719 17.195312 C 4.925781 17.511719 4.816406 17.8125 4.894531 18.195312 C 4.984375 18.515625 5.160156 18.773438 5.441406 18.953125 C 5.734375 19.105469 6.023438 19.1875 6.351562 19.089844 C 6.742188 18.945312 6.996094 18.753906 7.175781 18.371094 C 7.273438 18.0625 7.277344 17.71875 7.144531 17.417969 C 6.992188 17.160156 6.765625 16.90625 6.476562 16.800781 C 5.964844 16.695312 5.476562 16.773438 5.136719 17.195312 Z M 16.921875 17.296875 C 16.742188 17.589844 16.738281 17.898438 16.78125 18.234375 C 16.882812 18.582031 17.074219 18.808594 17.390625 18.984375 C 17.695312 19.136719 17.96875 19.167969 18.300781 19.074219 C 18.613281 18.960938 18.851562 18.757812 19.003906 18.460938 C 19.148438 18.144531 19.167969 17.855469 19.046875 17.527344 C 18.894531 17.1875 18.707031 16.980469 18.371094 16.824219 C 17.78125 16.636719 17.296875 16.832031 16.921875 17.296875 Z M 8.0625 18.09375 C 8.050781 18.148438 8.050781 18.148438 8.039062 18.199219 C 7.921875 18.714844 7.742188 19.214844 7.296875 19.53125 C 7.074219 19.667969 6.851562 19.78125 6.609375 19.875 C 6.773438 20.0625 6.964844 20.167969 7.179688 20.285156 C 7.21875 20.304688 7.253906 20.324219 7.292969 20.347656 C 7.410156 20.410156 7.523438 20.46875 7.640625 20.53125 C 7.671875 20.546875 7.707031 20.566406 7.738281 20.582031 C 8.441406 20.945312 9.414062 21.425781 10.21875 21.375 C 10.207031 21.339844 10.191406 21.304688 10.179688 21.269531 C 9.964844 20.660156 9.933594 20.050781 10.21875 19.453125 C 10.289062 19.335938 10.367188 19.234375 10.453125 19.125 C 10.453125 19.09375 10.453125 19.0625 10.453125 19.03125 C 10.414062 19.019531 10.414062 19.019531 10.375 19.011719 C 9.621094 18.8125 8.898438 18.570312 8.238281 18.140625 C 8.160156 18.085938 8.160156 18.085938 8.0625 18.09375 Z M 15.617188 18.226562 C 14.980469 18.605469 14.277344 18.886719 13.546875 19.03125 C 13.632812 19.261719 13.746094 19.476562 13.859375 19.695312 C 14.058594 20.113281 14.023438 20.660156 13.871094 21.085938 C 13.855469 21.132812 13.835938 21.175781 13.816406 21.222656 C 13.804688 21.257812 13.792969 21.292969 13.78125 21.328125 C 13.796875 21.359375 13.8125 21.390625 13.828125 21.421875 C 15.105469 21.117188 16.304688 20.675781 17.390625 19.921875 C 17.277344 19.808594 17.171875 19.765625 17.03125 19.699219 C 16.519531 19.445312 16.230469 19.117188 16.039062 18.574219 C 15.992188 18.414062 15.957031 18.257812 15.9375 18.09375 C 15.808594 18.09375 15.726562 18.160156 15.617188 18.226562 Z M 11.109375 19.640625 C 11.074219 19.679688 11.042969 19.714844 11.007812 19.753906 C 10.816406 20.027344 10.796875 20.304688 10.828125 20.625 C 10.898438 20.957031 11.078125 21.207031 11.351562 21.402344 C 11.65625 21.574219 11.9375 21.617188 12.28125 21.5625 C 12.644531 21.445312 12.898438 21.246094 13.078125 20.910156 C 13.203125 20.632812 13.226562 20.335938 13.136719 20.039062 C 12.984375 19.667969 12.726562 19.449219 12.375 19.265625 C 11.902344 19.121094 11.421875 19.261719 11.109375 19.640625 Z M 11.109375 19.640625 "/>
<path style=" stroke:none;fill-rule:nonzero;fill:rgb(0%,0%,0%);fill-opacity:1;" d="M 11.957031 -0.015625 C 12.003906 -0.015625 12.050781 -0.015625 12.097656 -0.015625 C 12.792969 -0.0117188 13.472656 0.00390625 14.15625 0.140625 C 14.226562 0.15625 14.226562 0.15625 14.296875 0.167969 C 16.125 0.550781 17.835938 1.285156 19.3125 2.4375 C 19.359375 2.472656 19.402344 2.507812 19.449219 2.546875 C 20.171875 3.125 20.855469 3.769531 21.421875 4.5 C 21.476562 4.566406 21.476562 4.566406 21.53125 4.632812 C 22.796875 6.214844 23.605469 8.171875 23.90625 10.171875 C 23.914062 10.222656 23.921875 10.277344 23.929688 10.332031 C 24.011719 10.878906 24.015625 11.425781 24.015625 11.980469 C 24.015625 12.027344 24.015625 12.074219 24.015625 12.125 C 24.011719 12.808594 24 13.484375 23.859375 14.15625 C 23.84375 14.226562 23.84375 14.226562 23.832031 14.292969 C 23.355469 16.5625 22.328125 18.625 20.71875 20.296875 C 20.6875 20.328125 20.660156 20.359375 20.628906 20.390625 C 20.199219 20.835938 19.765625 21.246094 19.265625 21.609375 C 19.210938 21.648438 19.15625 21.691406 19.105469 21.730469 C 18.71875 22.011719 18.320312 22.265625 17.90625 22.5 C 17.875 22.519531 17.839844 22.539062 17.804688 22.558594 C 16.722656 23.167969 15.542969 23.578125 14.324219 23.828125 C 14.289062 23.835938 14.253906 23.839844 14.222656 23.847656 C 13.535156 23.980469 12.851562 24.015625 12.152344 24.015625 C 12.015625 24.015625 11.878906 24.015625 11.738281 24.015625 C 11.113281 24.019531 10.507812 23.960938 9.890625 23.859375 C 9.8125 23.847656 9.8125 23.847656 9.730469 23.832031 C 7.699219 23.46875 5.777344 22.53125 4.21875 21.1875 C 4.183594 21.15625 4.148438 21.128906 4.113281 21.097656 C 3.480469 20.542969 2.886719 19.945312 2.390625 19.265625 C 2.351562 19.210938 2.308594 19.15625 2.269531 19.105469 C 1.988281 18.71875 1.734375 18.320312 1.5 17.90625 C 1.480469 17.875 1.460938 17.839844 1.441406 17.804688 C 0.832031 16.722656 0.421875 15.542969 0.171875 14.324219 C 0.164062 14.289062 0.160156 14.253906 0.152344 14.222656 C 0.0117188 13.488281 -0.015625 12.761719 -0.015625 12.015625 C -0.015625 11.96875 -0.015625 11.921875 -0.015625 11.871094 C -0.0117188 11.1875 0 10.515625 0.140625 9.84375 C 0.148438 9.796875 0.160156 9.753906 0.167969 9.707031 C 0.644531 7.4375 1.671875 5.375 3.28125 3.703125 C 3.3125 3.671875 3.339844 3.640625 3.371094 3.609375 C 3.800781 3.164062 4.234375 2.753906 4.734375 2.390625 C 4.789062 2.351562 4.84375 2.308594 4.894531 2.269531 C 5.28125 1.988281 5.679688 1.734375 6.09375 1.5 C 6.125 1.480469 6.160156 1.460938 6.195312 1.441406 C 7.277344 0.832031 8.457031 0.421875 9.675781 0.171875 C 9.710938 0.164062 9.746094 0.160156 9.777344 0.152344 C 10.503906 0.015625 11.21875 -0.015625 11.957031 -0.015625 Z M 4.300781 3.902344 C 4.21875 3.984375 4.132812 4.066406 4.046875 4.148438 C 3.703125 4.480469 3.390625 4.832031 3.105469 5.214844 C 3.046875 5.292969 2.988281 5.371094 2.929688 5.449219 C 1.53125 7.316406 0.820312 9.648438 0.828125 11.96875 C 0.828125 12.011719 0.828125 12.054688 0.828125 12.097656 C 0.832031 14.597656 1.683594 16.980469 3.234375 18.9375 C 3.253906 18.964844 3.273438 18.988281 3.296875 19.015625 C 3.847656 19.714844 4.496094 20.371094 5.21875 20.898438 C 5.296875 20.953125 5.371094 21.011719 5.449219 21.070312 C 7.3125 22.46875 9.648438 23.179688 11.96875 23.171875 C 12.011719 23.171875 12.054688 23.171875 12.097656 23.171875 C 14.46875 23.167969 16.890625 22.410156 18.75 20.90625 C 18.789062 20.875 18.828125 20.847656 18.867188 20.816406 C 19.1875 20.566406 19.488281 20.296875 19.78125 20.015625 C 19.804688 19.992188 19.832031 19.96875 19.855469 19.945312 C 20.246094 19.574219 20.585938 19.179688 20.90625 18.75 C 20.925781 18.722656 20.945312 18.695312 20.96875 18.667969 C 22.410156 16.734375 23.179688 14.417969 23.171875 12.003906 C 23.171875 11.964844 23.171875 11.921875 23.171875 11.878906 C 23.167969 9.390625 22.3125 7.011719 20.765625 5.0625 C 20.746094 5.035156 20.726562 5.011719 20.703125 4.984375 C 20.152344 4.285156 19.503906 3.628906 18.78125 3.101562 C 18.703125 3.046875 18.628906 2.988281 18.550781 2.929688 C 16.6875 1.53125 14.351562 0.820312 12.03125 0.828125 C 11.988281 0.828125 11.945312 0.828125 11.902344 0.828125 C 9.085938 0.832031 6.316406 1.917969 4.300781 3.902344 Z M 4.300781 3.902344 "/>
<path style=" stroke:none;fill-rule:nonzero;fill:rgb(0%,0%,0%);fill-opacity:1;" d="M 15.558594 7.605469 C 16.742188 8.636719 17.472656 9.957031 17.625 11.53125 C 17.730469 13.066406 17.265625 14.53125 16.265625 15.703125 C 15.34375 16.757812 14.054688 17.464844 12.652344 17.613281 C 11.101562 17.710938 9.613281 17.371094 8.410156 16.351562 C 8.292969 16.246094 8.175781 16.140625 8.0625 16.03125 C 8.027344 16 7.992188 15.96875 7.957031 15.933594 C 6.96875 14.996094 6.417969 13.609375 6.363281 12.261719 C 6.320312 10.652344 6.863281 9.234375 7.96875 8.0625 C 8 8.027344 8.03125 7.992188 8.066406 7.957031 C 9.992188 5.921875 13.429688 5.871094 15.558594 7.605469 Z M 8.578125 8.671875 C 8.535156 8.714844 8.492188 8.753906 8.449219 8.796875 C 7.613281 9.664062 7.1875 10.875 7.203125 12.074219 C 7.246094 13.378906 7.746094 14.511719 8.671875 15.421875 C 8.714844 15.464844 8.753906 15.507812 8.796875 15.550781 C 9.675781 16.398438 10.894531 16.8125 12.105469 16.796875 C 13.480469 16.753906 14.632812 16.152344 15.585938 15.175781 C 16.425781 14.253906 16.824219 13.015625 16.792969 11.78125 C 16.738281 10.539062 16.207031 9.445312 15.328125 8.578125 C 15.285156 8.535156 15.246094 8.492188 15.203125 8.449219 C 14.324219 7.601562 13.105469 7.1875 11.894531 7.203125 C 10.605469 7.242188 9.476562 7.761719 8.578125 8.671875 Z M 8.578125 8.671875 "/>
<path style=" stroke:none;fill-rule:nonzero;fill:rgb(0%,0%,0%);fill-opacity:1;" d="M 4.40625 8.34375 C 4.558594 8.457031 4.628906 8.539062 4.6875 8.71875 C 4.6875 8.890625 4.652344 8.960938 4.546875 9.09375 C 4.371094 9.210938 4.285156 9.210938 4.078125 9.1875 C 3.941406 9.09375 3.859375 9.027344 3.824219 8.859375 C 3.816406 8.710938 3.832031 8.597656 3.90625 8.464844 C 4.054688 8.328125 4.214844 8.320312 4.40625 8.34375 Z M 4.40625 8.34375 "/>
<path style=" stroke:none;fill-rule:nonzero;fill:rgb(0%,0%,0%);fill-opacity:1;" d="M 15.375 19.359375 C 15.515625 19.453125 15.59375 19.519531 15.628906 19.6875 C 15.640625 19.84375 15.621094 19.949219 15.535156 20.082031 C 15.382812 20.183594 15.277344 20.203125 15.09375 20.203125 C 14.9375 20.136719 14.9375 20.136719 14.8125 20.015625 C 14.753906 19.851562 14.746094 19.699219 14.800781 19.53125 C 14.953125 19.332031 15.144531 19.316406 15.375 19.359375 Z M 15.375 19.359375 "/>
<path style=" stroke:none;fill-rule:nonzero;fill:rgb(0%,0%,0%);fill-opacity:1;" d="M 4.453125 14.8125 C 4.566406 14.886719 4.566406 14.886719 4.640625 15 C 4.671875 15.230469 4.675781 15.320312 4.546875 15.515625 C 4.351562 15.644531 4.261719 15.640625 4.03125 15.609375 C 3.875 15.511719 3.847656 15.441406 3.796875 15.265625 C 3.796875 15.054688 3.847656 14.96875 3.984375 14.8125 C 4.164062 14.753906 4.269531 14.769531 4.453125 14.8125 Z M 4.453125 14.8125 "/>
<path style=" stroke:none;fill-rule:nonzero;fill:rgb(0%,0%,0%);fill-opacity:1;" d="M 19.96875 8.390625 C 20.125 8.488281 20.152344 8.558594 20.203125 8.734375 C 20.203125 8.953125 20.167969 9.03125 20.015625 9.1875 C 19.851562 9.246094 19.699219 9.253906 19.53125 9.199219 C 19.453125 9.140625 19.453125 9.140625 19.359375 9 C 19.332031 8.773438 19.324219 8.675781 19.453125 8.484375 C 19.648438 8.355469 19.738281 8.359375 19.96875 8.390625 Z M 19.96875 8.390625 "/>
<path style=" stroke:none;fill-rule:nonzero;fill:rgb(0%,0%,0%);fill-opacity:1;" d="M 15.421875 3.84375 C 15.535156 3.886719 15.535156 3.886719 15.609375 3.984375 C 15.652344 4.128906 15.671875 4.257812 15.65625 4.40625 C 15.550781 4.554688 15.476562 4.621094 15.304688 4.683594 C 15.117188 4.6875 15.003906 4.640625 14.867188 4.515625 C 14.789062 4.355469 14.789062 4.253906 14.8125 4.078125 C 14.988281 3.820312 15.132812 3.808594 15.421875 3.84375 Z M 15.421875 3.84375 "/>
<path style=" stroke:none;fill-rule:nonzero;fill:rgb(0%,0%,0%);fill-opacity:1;" d="M 8.84375 3.796875 C 9.09375 3.871094 9.09375 3.871094 9.1875 3.984375 C 9.269531 4.277344 9.269531 4.277344 9.199219 4.445312 C 9.121094 4.554688 9.039062 4.628906 8.910156 4.667969 C 8.726562 4.679688 8.640625 4.648438 8.484375 4.546875 C 8.382812 4.390625 8.351562 4.304688 8.363281 4.121094 C 8.433594 3.882812 8.609375 3.796875 8.84375 3.796875 Z M 8.84375 3.796875 "/>
<path style=" stroke:none;fill-rule:nonzero;fill:rgb(0%,0%,0%);fill-opacity:1;" d="M 9.046875 19.40625 C 9.175781 19.519531 9.1875 19.585938 9.210938 19.753906 C 9.1875 19.921875 9.1875 19.921875 9.09375 20.058594 C 8.898438 20.191406 8.808594 20.1875 8.578125 20.15625 C 8.464844 20.109375 8.464844 20.109375 8.390625 20.015625 C 8.339844 19.8125 8.320312 19.703125 8.398438 19.507812 C 8.597656 19.277344 8.773438 19.292969 9.046875 19.40625 Z M 9.046875 19.40625 "/>
<path style=" stroke:none;fill-rule:nonzero;fill:rgb(0%,0%,0%);fill-opacity:1;" d="M 19.921875 14.8125 C 20.058594 14.90625 20.140625 14.972656 20.175781 15.140625 C 20.183594 15.28125 20.164062 15.402344 20.109375 15.535156 C 19.964844 15.648438 19.816406 15.664062 19.640625 15.65625 C 19.507812 15.609375 19.507812 15.609375 19.40625 15.515625 C 19.335938 15.347656 19.300781 15.238281 19.34375 15.058594 C 19.488281 14.816406 19.640625 14.773438 19.921875 14.8125 Z M 19.921875 14.8125 "/>
</g>
</svg>
