<?xml version="1.0" encoding="UTF-8"?>
<svg xmlns="http://www.w3.org/2000/svg" xmlns:xlink="http://www.w3.org/1999/xlink" width="24px" height="24px" viewBox="0 0 24 24" version="1.1">
<g id="surface1">
<path style=" stroke:none;fill-rule:nonzero;fill:rgb(0%,0%,0%);fill-opacity:1;" d="M 14.921875 -0.015625 C 15 -0.0195312 15 -0.0195312 15.082031 -0.0234375 C 15.375 0.0195312 15.574219 0.234375 15.777344 0.441406 C 15.804688 0.464844 15.828125 0.488281 15.855469 0.515625 C 15.933594 0.59375 16.015625 0.675781 16.09375 0.757812 C 16.152344 0.8125 16.207031 0.867188 16.265625 0.925781 C 16.382812 1.042969 16.5 1.160156 16.617188 1.277344 C 16.765625 1.429688 16.917969 1.578125 17.066406 1.730469 C 17.183594 1.847656 17.300781 1.960938 17.414062 2.078125 C 17.46875 2.132812 17.527344 2.191406 17.582031 2.246094 C 17.660156 2.324219 17.738281 2.402344 17.8125 2.480469 C 17.835938 2.5 17.859375 2.523438 17.882812 2.546875 C 18.015625 2.679688 18.085938 2.757812 18.109375 2.945312 C 18.09375 3.09375 18.09375 3.09375 17.992188 3.226562 C 17.859375 3.328125 17.859375 3.328125 17.726562 3.363281 C 17.496094 3.308594 17.367188 3.164062 17.203125 3 C 17.164062 2.960938 17.125 2.921875 17.085938 2.882812 C 16.984375 2.78125 16.882812 2.679688 16.78125 2.578125 C 16.601562 2.652344 16.488281 2.765625 16.351562 2.902344 C 16.328125 2.925781 16.304688 2.949219 16.28125 2.972656 C 16.207031 3.050781 16.128906 3.125 16.050781 3.203125 C 16 3.257812 15.945312 3.3125 15.890625 3.363281 C 15.753906 3.503906 15.613281 3.644531 15.472656 3.785156 C 15.328125 3.929688 15.1875 4.074219 15.042969 4.21875 C 14.761719 4.5 14.484375 4.78125 14.203125 5.0625 C 14.429688 5.332031 14.671875 5.582031 14.921875 5.832031 C 14.964844 5.875 15.007812 5.917969 15.050781 5.960938 C 15.167969 6.078125 15.285156 6.195312 15.402344 6.3125 C 15.527344 6.4375 15.648438 6.558594 15.769531 6.679688 C 16.003906 6.914062 16.234375 7.144531 16.46875 7.375 C 16.730469 7.640625 16.996094 7.90625 17.261719 8.167969 C 17.804688 8.710938 18.347656 9.253906 18.890625 9.796875 C 19.085938 9.632812 19.277344 9.464844 19.457031 9.28125 C 19.480469 9.261719 19.5 9.238281 19.523438 9.214844 C 19.59375 9.144531 19.664062 9.078125 19.734375 9.007812 C 19.78125 8.957031 19.832031 8.910156 19.878906 8.859375 C 20.007812 8.730469 20.136719 8.601562 20.261719 8.476562 C 20.394531 8.34375 20.523438 8.214844 20.65625 8.082031 C 20.910156 7.824219 21.167969 7.570312 21.421875 7.3125 C 21.347656 7.121094 21.207031 6.992188 21.0625 6.851562 C 21.039062 6.824219 21.011719 6.796875 20.984375 6.769531 C 20.894531 6.679688 20.804688 6.59375 20.714844 6.503906 C 20.652344 6.445312 20.59375 6.382812 20.53125 6.320312 C 20.367188 6.160156 20.207031 5.996094 20.042969 5.835938 C 19.78125 5.578125 19.519531 5.316406 19.261719 5.058594 C 19.167969 4.96875 19.078125 4.878906 18.988281 4.785156 C 18.929688 4.730469 18.875 4.675781 18.820312 4.621094 C 18.792969 4.59375 18.769531 4.570312 18.742188 4.542969 C 18.519531 4.324219 18.519531 4.324219 18.5 4.109375 C 18.515625 3.9375 18.515625 3.9375 18.589844 3.824219 C 18.753906 3.71875 18.835938 3.714844 19.03125 3.75 C 19.335938 3.96875 19.597656 4.261719 19.859375 4.523438 C 19.925781 4.589844 19.925781 4.589844 19.992188 4.65625 C 20.113281 4.773438 20.230469 4.894531 20.351562 5.011719 C 20.425781 5.085938 20.5 5.160156 20.574219 5.234375 C 20.804688 5.46875 21.039062 5.699219 21.273438 5.933594 C 21.539062 6.199219 21.808594 6.46875 22.078125 6.734375 C 22.285156 6.941406 22.492188 7.152344 22.703125 7.359375 C 22.824219 7.484375 22.949219 7.605469 23.074219 7.730469 C 23.210938 7.867188 23.351562 8.003906 23.488281 8.144531 C 23.53125 8.183594 23.570312 8.226562 23.613281 8.265625 C 23.652344 8.304688 23.6875 8.34375 23.726562 8.382812 C 23.757812 8.414062 23.792969 8.445312 23.824219 8.480469 C 23.976562 8.660156 24.011719 8.835938 24.015625 9.066406 C 24.015625 9.109375 24.015625 9.152344 24.015625 9.195312 C 23.972656 9.550781 23.726562 9.761719 23.480469 10 C 23.445312 10.03125 23.414062 10.066406 23.378906 10.101562 C 23.074219 10.402344 23.074219 10.402344 22.859375 10.421875 C 22.6875 10.40625 22.6875 10.40625 22.574219 10.332031 C 22.46875 10.167969 22.464844 10.085938 22.5 9.890625 C 22.621094 9.710938 22.777344 9.5625 22.933594 9.414062 C 22.96875 9.382812 23.003906 9.351562 23.039062 9.316406 C 23.070312 9.289062 23.105469 9.257812 23.136719 9.226562 C 23.210938 9.148438 23.210938 9.148438 23.199219 9.058594 C 23.136719 8.90625 23.03125 8.808594 22.914062 8.699219 C 22.890625 8.675781 22.867188 8.652344 22.84375 8.628906 C 22.765625 8.550781 22.691406 8.476562 22.613281 8.402344 C 22.5625 8.351562 22.511719 8.300781 22.460938 8.25 C 22.332031 8.125 22.207031 8 22.078125 7.875 C 21.898438 7.949219 21.785156 8.0625 21.648438 8.199219 C 21.625 8.222656 21.601562 8.246094 21.578125 8.269531 C 21.503906 8.347656 21.425781 8.421875 21.347656 8.5 C 21.296875 8.554688 21.242188 8.609375 21.1875 8.660156 C 21.050781 8.800781 20.910156 8.941406 20.769531 9.082031 C 20.625 9.226562 20.484375 9.371094 20.339844 9.515625 C 20.058594 9.796875 19.78125 10.078125 19.5 10.359375 C 19.726562 10.628906 19.964844 10.878906 20.210938 11.125 C 20.25 11.164062 20.289062 11.203125 20.328125 11.242188 C 20.363281 11.28125 20.398438 11.316406 20.4375 11.355469 C 20.46875 11.386719 20.503906 11.417969 20.535156 11.453125 C 20.625 11.542969 20.625 11.542969 20.765625 11.578125 C 20.796875 11.546875 20.796875 11.546875 20.828125 11.515625 C 20.921875 11.417969 21.015625 11.324219 21.109375 11.230469 C 21.144531 11.195312 21.175781 11.164062 21.210938 11.128906 C 21.242188 11.097656 21.273438 11.066406 21.304688 11.035156 C 21.335938 11.003906 21.363281 10.976562 21.394531 10.945312 C 21.496094 10.847656 21.554688 10.828125 21.695312 10.8125 C 21.84375 10.828125 21.84375 10.828125 21.976562 10.929688 C 22.078125 11.0625 22.078125 11.0625 22.113281 11.195312 C 22.058594 11.425781 21.914062 11.550781 21.75 11.71875 C 21.710938 11.761719 21.667969 11.808594 21.625 11.851562 C 21.144531 12.367188 21.144531 12.367188 20.753906 12.378906 C 20.277344 12.351562 19.996094 12.046875 19.675781 11.722656 C 19.636719 11.683594 19.597656 11.640625 19.554688 11.601562 C 19.429688 11.472656 19.300781 11.34375 19.175781 11.214844 C 19.089844 11.128906 19 11.039062 18.914062 10.953125 C 18.703125 10.738281 18.492188 10.527344 18.28125 10.3125 C 18.089844 10.472656 17.902344 10.636719 17.726562 10.816406 C 17.667969 10.875 17.667969 10.875 17.609375 10.933594 C 17.566406 10.976562 17.527344 11.015625 17.488281 11.054688 C 17.445312 11.097656 17.40625 11.140625 17.363281 11.179688 C 17.261719 11.28125 17.164062 11.382812 17.0625 11.484375 C 17.128906 11.652344 17.128906 11.652344 17.207031 11.8125 C 17.347656 12.113281 17.316406 12.472656 17.210938 12.78125 C 17.054688 13.097656 16.816406 13.304688 16.5 13.453125 C 16.125 13.570312 15.777344 13.519531 15.429688 13.34375 C 15.328125 13.300781 15.328125 13.300781 15.238281 13.347656 C 15.125 13.414062 15.042969 13.496094 14.949219 13.589844 C 14.894531 13.644531 14.894531 13.644531 14.839844 13.699219 C 14.804688 13.734375 14.769531 13.773438 14.730469 13.8125 C 14.691406 13.847656 14.65625 13.886719 14.617188 13.925781 C 14.527344 14.015625 14.433594 14.109375 14.34375 14.203125 C 14.410156 14.371094 14.410156 14.371094 14.488281 14.53125 C 14.625 14.828125 14.601562 15.191406 14.492188 15.496094 C 14.347656 15.792969 14.136719 16.015625 13.835938 16.152344 C 13.484375 16.269531 13.167969 16.265625 12.824219 16.117188 C 12.785156 16.101562 12.75 16.082031 12.710938 16.0625 C 12.609375 16.019531 12.609375 16.019531 12.519531 16.066406 C 12.40625 16.132812 12.324219 16.214844 12.230469 16.308594 C 12.175781 16.363281 12.175781 16.363281 12.121094 16.417969 C 12.085938 16.453125 12.050781 16.492188 12.011719 16.53125 C 11.972656 16.566406 11.9375 16.605469 11.898438 16.644531 C 11.808594 16.734375 11.714844 16.828125 11.625 16.921875 C 11.636719 16.949219 11.652344 16.976562 11.664062 17.003906 C 11.851562 17.410156 11.925781 17.78125 11.773438 18.214844 C 11.628906 18.511719 11.417969 18.734375 11.117188 18.871094 C 10.722656 19 10.414062 18.964844 10.042969 18.785156 C 9.914062 18.742188 9.875 18.75 9.75 18.796875 C 9.648438 18.878906 9.648438 18.878906 9.546875 18.984375 C 9.492188 19.042969 9.492188 19.042969 9.433594 19.101562 C 9.394531 19.140625 9.355469 19.179688 9.316406 19.222656 C 9.277344 19.261719 9.238281 19.300781 9.195312 19.34375 C 9.101562 19.441406 9.003906 19.542969 8.90625 19.640625 C 8.917969 19.667969 8.933594 19.695312 8.945312 19.726562 C 8.960938 19.765625 8.980469 19.800781 8.996094 19.839844 C 9.015625 19.875 9.03125 19.914062 9.046875 19.953125 C 9.203125 20.324219 9.160156 20.652344 9.015625 21.019531 C 8.855469 21.335938 8.613281 21.507812 8.277344 21.625 C 7.921875 21.714844 7.652344 21.664062 7.324219 21.503906 C 7.199219 21.460938 7.152344 21.472656 7.03125 21.515625 C 6.957031 21.574219 6.957031 21.574219 6.890625 21.652344 C 6.863281 21.679688 6.839844 21.707031 6.8125 21.734375 C 6.757812 21.792969 6.707031 21.847656 6.652344 21.90625 C 6.527344 22.039062 6.449219 22.117188 6.269531 22.171875 C 6.105469 22.171875 6.035156 22.128906 5.90625 22.03125 C 5.8125 21.890625 5.8125 21.890625 5.816406 21.734375 C 5.867188 21.527344 5.9375 21.453125 6.09375 21.3125 C 6.253906 21.171875 6.253906 21.171875 6.375 21 C 6.335938 20.988281 6.296875 20.976562 6.257812 20.964844 C 6.078125 20.902344 5.914062 20.824219 5.75 20.738281 C 5.699219 20.714844 5.699219 20.714844 5.648438 20.691406 C 5.546875 20.636719 5.441406 20.585938 5.335938 20.53125 C 5.261719 20.496094 5.1875 20.457031 5.113281 20.421875 C 4.761719 20.242188 4.410156 20.0625 4.0625 19.878906 C 3.65625 19.664062 3.246094 19.453125 2.839844 19.246094 C 2.761719 19.207031 2.683594 19.167969 2.605469 19.128906 C 2.496094 19.070312 2.386719 19.015625 2.277344 18.960938 C 2.246094 18.941406 2.210938 18.925781 2.175781 18.910156 C 2.007812 18.820312 2.007812 18.820312 1.824219 18.8125 C 1.703125 18.855469 1.636719 18.921875 1.546875 19.015625 C 1.511719 19.050781 1.476562 19.082031 1.441406 19.121094 C 1.40625 19.15625 1.371094 19.191406 1.332031 19.230469 C 1.277344 19.285156 1.277344 19.285156 1.222656 19.339844 C 0.894531 19.65625 0.894531 19.65625 0.777344 20.082031 C 0.777344 20.117188 0.773438 20.152344 0.773438 20.183594 C 0.828125 20.453125 1.046875 20.652344 1.234375 20.839844 C 1.257812 20.867188 1.285156 20.890625 1.308594 20.914062 C 1.390625 20.996094 1.46875 21.074219 1.550781 21.15625 C 1.605469 21.210938 1.660156 21.269531 1.71875 21.324219 C 1.835938 21.441406 1.953125 21.558594 2.070312 21.675781 C 2.21875 21.824219 2.371094 21.976562 2.519531 22.125 C 2.636719 22.242188 2.75 22.359375 2.867188 22.472656 C 2.921875 22.527344 2.976562 22.582031 3.03125 22.640625 C 3.109375 22.714844 3.1875 22.792969 3.265625 22.871094 C 3.289062 22.894531 3.308594 22.917969 3.332031 22.941406 C 3.511719 23.117188 3.652344 23.214844 3.90625 23.21875 C 4.238281 23.210938 4.398438 23.023438 4.617188 22.796875 C 4.652344 22.757812 4.683594 22.722656 4.71875 22.683594 C 4.851562 22.574219 4.9375 22.554688 5.109375 22.546875 C 5.242188 22.605469 5.320312 22.65625 5.40625 22.773438 C 5.449219 22.921875 5.433594 23.007812 5.390625 23.15625 C 5.308594 23.273438 5.210938 23.367188 5.105469 23.46875 C 5.082031 23.492188 5.054688 23.519531 5.027344 23.546875 C 4.679688 23.890625 4.320312 24.015625 3.835938 24.015625 C 2.9375 23.996094 2.230469 22.964844 1.628906 22.367188 C 1.519531 22.257812 1.410156 22.148438 1.296875 22.039062 C 1.164062 21.90625 1.027344 21.773438 0.890625 21.640625 C 0.839844 21.589844 0.789062 21.539062 0.738281 21.488281 C 0.386719 21.144531 0.03125 20.757812 -0.0390625 20.25 C -0.0273438 19.476562 0.308594 19.117188 0.839844 18.597656 C 0.933594 18.507812 1.027344 18.417969 1.125 18.328125 C 1.082031 18.191406 1.035156 18.058594 0.980469 17.929688 C 0.871094 17.628906 0.898438 17.25 1.03125 16.960938 C 1.214844 16.632812 1.464844 16.425781 1.828125 16.3125 C 2.175781 16.265625 2.464844 16.289062 2.769531 16.46875 C 2.859375 16.511719 2.859375 16.511719 2.945312 16.464844 C 3.0625 16.398438 3.144531 16.320312 3.238281 16.222656 C 3.292969 16.167969 3.292969 16.167969 3.347656 16.113281 C 3.382812 16.078125 3.417969 16.039062 3.457031 16 C 3.496094 15.964844 3.53125 15.925781 3.570312 15.886719 C 3.660156 15.796875 3.753906 15.703125 3.84375 15.609375 C 3.800781 15.472656 3.757812 15.339844 3.699219 15.210938 C 3.585938 14.894531 3.613281 14.53125 3.753906 14.230469 C 3.914062 13.953125 4.140625 13.730469 4.445312 13.617188 C 4.816406 13.535156 5.160156 13.558594 5.488281 13.75 C 5.578125 13.792969 5.578125 13.792969 5.664062 13.746094 C 5.78125 13.679688 5.863281 13.601562 5.957031 13.503906 C 6.011719 13.449219 6.011719 13.449219 6.066406 13.394531 C 6.101562 13.359375 6.136719 13.320312 6.175781 13.28125 C 6.214844 13.246094 6.25 13.207031 6.289062 13.167969 C 6.378906 13.078125 6.472656 12.984375 6.5625 12.890625 C 6.519531 12.753906 6.476562 12.621094 6.417969 12.492188 C 6.304688 12.175781 6.332031 11.8125 6.472656 11.511719 C 6.644531 11.214844 6.875 11.003906 7.203125 10.898438 C 7.570312 10.820312 7.882812 10.84375 8.207031 11.03125 C 8.296875 11.074219 8.296875 11.074219 8.382812 11.027344 C 8.5 10.960938 8.582031 10.882812 8.675781 10.785156 C 8.710938 10.75 8.746094 10.714844 8.785156 10.675781 C 8.820312 10.640625 8.855469 10.601562 8.894531 10.5625 C 8.933594 10.527344 8.96875 10.488281 9.007812 10.449219 C 9.097656 10.359375 9.191406 10.265625 9.28125 10.171875 C 9.265625 10.136719 9.253906 10.101562 9.238281 10.0625 C 9.085938 9.683594 9.011719 9.316406 9.132812 8.914062 C 9.285156 8.582031 9.5 8.355469 9.832031 8.210938 C 10.214844 8.085938 10.558594 8.132812 10.914062 8.3125 C 11.011719 8.355469 11.011719 8.355469 11.101562 8.3125 C 11.234375 8.230469 11.339844 8.125 11.453125 8.011719 C 11.488281 7.976562 11.488281 7.976562 11.527344 7.9375 C 11.605469 7.859375 11.683594 7.777344 11.765625 7.699219 C 11.820312 7.640625 11.875 7.585938 11.929688 7.53125 C 12.078125 7.382812 12.222656 7.238281 12.367188 7.09375 C 12.515625 6.941406 12.664062 6.792969 12.8125 6.644531 C 13.105469 6.351562 13.394531 6.058594 13.6875 5.765625 C 13.480469 5.519531 13.265625 5.289062 13.035156 5.066406 C 12.964844 4.996094 12.894531 4.925781 12.820312 4.855469 C 12.710938 4.742188 12.601562 4.632812 12.488281 4.523438 C 12.378906 4.417969 12.273438 4.3125 12.164062 4.203125 C 12.132812 4.171875 12.097656 4.136719 12.0625 4.105469 C 11.804688 3.847656 11.644531 3.640625 11.609375 3.269531 C 11.640625 2.921875 11.828125 2.675781 12.070312 2.4375 C 12.097656 2.410156 12.121094 2.386719 12.148438 2.359375 C 12.230469 2.277344 12.316406 2.195312 12.398438 2.109375 C 12.457031 2.054688 12.515625 1.996094 12.574219 1.9375 C 12.695312 1.816406 12.816406 1.695312 12.9375 1.574219 C 13.09375 1.417969 13.25 1.265625 13.40625 1.109375 C 13.523438 0.988281 13.644531 0.871094 13.765625 0.75 C 13.824219 0.691406 13.878906 0.636719 13.9375 0.578125 C 14.015625 0.5 14.097656 0.417969 14.179688 0.339844 C 14.203125 0.316406 14.226562 0.292969 14.25 0.269531 C 14.472656 0.0507812 14.613281 -0.015625 14.921875 -0.015625 Z M 14.683594 0.90625 C 14.660156 0.929688 14.640625 0.953125 14.617188 0.976562 C 14.589844 1.003906 14.566406 1.027344 14.542969 1.050781 C 14.460938 1.132812 14.382812 1.210938 14.300781 1.292969 C 14.246094 1.347656 14.191406 1.40625 14.136719 1.460938 C 13.988281 1.605469 13.84375 1.753906 13.699219 1.902344 C 13.550781 2.050781 13.398438 2.203125 13.25 2.351562 C 12.957031 2.644531 12.667969 2.941406 12.375 3.234375 C 12.484375 3.425781 12.609375 3.574219 12.765625 3.726562 C 12.789062 3.75 12.8125 3.773438 12.835938 3.800781 C 12.914062 3.875 12.988281 3.949219 13.0625 4.023438 C 13.113281 4.074219 13.167969 4.125 13.21875 4.175781 C 13.34375 4.300781 13.46875 4.421875 13.59375 4.546875 C 13.894531 4.296875 14.171875 4.023438 14.445312 3.746094 C 14.496094 3.695312 14.546875 3.644531 14.597656 3.597656 C 14.726562 3.464844 14.855469 3.335938 14.988281 3.203125 C 15.121094 3.070312 15.253906 2.933594 15.386719 2.800781 C 15.648438 2.539062 15.910156 2.277344 16.171875 2.015625 C 16.089844 1.835938 15.976562 1.710938 15.839844 1.574219 C 15.816406 1.550781 15.792969 1.527344 15.765625 1.503906 C 15.71875 1.453125 15.667969 1.402344 15.617188 1.351562 C 15.542969 1.277344 15.464844 1.199219 15.390625 1.125 C 15.34375 1.074219 15.292969 1.027344 15.246094 0.980469 C 15.222656 0.957031 15.199219 0.933594 15.179688 0.910156 C 14.976562 0.710938 14.886719 0.707031 14.683594 0.90625 Z M 14.152344 6.375 C 14.109375 6.417969 14.066406 6.460938 14.019531 6.503906 C 13.996094 6.527344 13.972656 6.550781 13.949219 6.578125 C 13.871094 6.65625 13.792969 6.734375 13.710938 6.8125 C 13.65625 6.867188 13.601562 6.921875 13.546875 6.976562 C 13.40625 7.121094 13.261719 7.265625 13.117188 7.410156 C 12.96875 7.558594 12.824219 7.707031 12.675781 7.851562 C 12.386719 8.140625 12.101562 8.429688 11.8125 8.71875 C 11.921875 8.832031 12.019531 8.898438 12.160156 8.96875 C 12.222656 9 12.222656 9 12.289062 9.03125 C 12.332031 9.054688 12.375 9.074219 12.421875 9.097656 C 12.746094 9.253906 13.070312 9.417969 13.390625 9.589844 C 13.898438 9.859375 14.417969 10.117188 14.933594 10.378906 C 15.09375 10.457031 15.253906 10.539062 15.414062 10.617188 C 15.515625 10.667969 15.617188 10.71875 15.71875 10.769531 C 15.765625 10.796875 15.8125 10.820312 15.863281 10.84375 C 15.929688 10.875 15.929688 10.875 15.996094 10.910156 C 16.035156 10.929688 16.074219 10.949219 16.113281 10.96875 C 16.253906 11.03125 16.253906 11.03125 16.40625 11.0625 C 16.519531 10.972656 16.613281 10.882812 16.710938 10.78125 C 16.742188 10.75 16.769531 10.722656 16.800781 10.691406 C 16.890625 10.597656 16.984375 10.503906 17.074219 10.410156 C 17.136719 10.34375 17.199219 10.28125 17.261719 10.21875 C 17.414062 10.0625 17.566406 9.90625 17.71875 9.75 C 17.527344 9.519531 17.328125 9.304688 17.117188 9.097656 C 17.085938 9.066406 17.058594 9.035156 17.023438 9.003906 C 16.925781 8.902344 16.824219 8.804688 16.726562 8.703125 C 16.65625 8.632812 16.585938 8.5625 16.515625 8.492188 C 16.367188 8.347656 16.222656 8.199219 16.078125 8.054688 C 15.890625 7.867188 15.703125 7.679688 15.515625 7.492188 C 15.371094 7.347656 15.226562 7.203125 15.082031 7.058594 C 15.011719 6.992188 14.945312 6.921875 14.875 6.851562 C 14.777344 6.757812 14.683594 6.660156 14.585938 6.5625 C 14.558594 6.535156 14.527344 6.507812 14.5 6.476562 C 14.335938 6.269531 14.335938 6.269531 14.152344 6.375 Z M 9.9375 9.046875 C 9.820312 9.222656 9.820312 9.304688 9.84375 9.515625 C 10.039062 9.828125 10.339844 9.949219 10.664062 10.105469 C 10.722656 10.132812 10.78125 10.164062 10.839844 10.191406 C 10.992188 10.269531 11.148438 10.34375 11.300781 10.417969 C 11.457031 10.492188 11.609375 10.570312 11.761719 10.644531 C 11.792969 10.660156 11.824219 10.675781 11.855469 10.691406 C 11.914062 10.71875 11.972656 10.75 12.035156 10.777344 C 12.125 10.824219 12.214844 10.867188 12.300781 10.910156 C 12.660156 11.085938 13.011719 11.265625 13.359375 11.453125 C 13.804688 11.6875 14.253906 11.914062 14.699219 12.140625 C 14.800781 12.191406 14.902344 12.242188 15.003906 12.296875 C 15.152344 12.371094 15.300781 12.445312 15.449219 12.519531 C 15.515625 12.554688 15.515625 12.554688 15.585938 12.589844 C 15.886719 12.746094 15.886719 12.746094 16.21875 12.75 C 16.386719 12.640625 16.480469 12.570312 16.550781 12.378906 C 16.546875 12.191406 16.507812 12.109375 16.40625 11.953125 C 16.285156 11.863281 16.152344 11.800781 16.015625 11.734375 C 15.953125 11.703125 15.953125 11.703125 15.894531 11.671875 C 15.8125 11.628906 15.726562 11.589844 15.644531 11.546875 C 15.480469 11.464844 15.316406 11.382812 15.15625 11.296875 C 14.945312 11.191406 14.734375 11.082031 14.523438 10.976562 C 14.476562 10.953125 14.433594 10.929688 14.386719 10.90625 C 13.648438 10.527344 12.910156 10.15625 12.167969 9.789062 C 11.6875 9.546875 11.207031 9.300781 10.730469 9.046875 C 10.699219 9.03125 10.671875 9.015625 10.640625 9 C 10.609375 8.984375 10.578125 8.964844 10.542969 8.949219 C 10.316406 8.84375 10.128906 8.902344 9.9375 9.046875 Z M 9.84375 10.671875 C 9.808594 10.707031 9.773438 10.742188 9.738281 10.777344 C 9.703125 10.816406 9.664062 10.855469 9.625 10.894531 C 9.585938 10.933594 9.546875 10.972656 9.507812 11.015625 C 9.46875 11.054688 9.425781 11.097656 9.386719 11.136719 C 9.289062 11.238281 9.191406 11.335938 9.09375 11.4375 C 9.1875 11.539062 9.273438 11.609375 9.398438 11.671875 C 9.429688 11.6875 9.460938 11.703125 9.492188 11.71875 C 9.539062 11.742188 9.539062 11.742188 9.589844 11.769531 C 9.925781 11.941406 9.925781 11.941406 10.03125 12.046875 C 10.046875 12.25 10.050781 12.34375 9.9375 12.515625 C 9.675781 12.589844 9.515625 12.542969 9.285156 12.414062 C 9.21875 12.378906 9.152344 12.34375 9.089844 12.308594 C 9.050781 12.289062 9.015625 12.273438 8.980469 12.25 C 8.746094 12.125 8.507812 12.003906 8.269531 11.882812 C 8.222656 11.859375 8.175781 11.832031 8.125 11.804688 C 7.78125 11.628906 7.78125 11.628906 7.40625 11.625 C 7.277344 11.710938 7.195312 11.769531 7.125 11.90625 C 7.101562 12.109375 7.105469 12.203125 7.222656 12.375 C 7.351562 12.519531 7.488281 12.601562 7.664062 12.6875 C 7.695312 12.703125 7.722656 12.714844 7.753906 12.730469 C 7.851562 12.78125 7.949219 12.828125 8.046875 12.875 C 8.117188 12.910156 8.1875 12.945312 8.253906 12.976562 C 8.4375 13.066406 8.617188 13.15625 8.800781 13.246094 C 8.984375 13.335938 9.164062 13.425781 9.347656 13.515625 C 9.382812 13.53125 9.417969 13.550781 9.453125 13.566406 C 9.523438 13.601562 9.59375 13.636719 9.664062 13.671875 C 9.769531 13.726562 9.875 13.777344 9.980469 13.828125 C 10.4375 14.054688 10.886719 14.285156 11.335938 14.523438 C 11.640625 14.683594 11.945312 14.839844 12.25 14.992188 C 12.328125 15.035156 12.40625 15.074219 12.484375 15.113281 C 12.601562 15.171875 12.71875 15.230469 12.832031 15.289062 C 12.867188 15.308594 12.902344 15.328125 12.9375 15.34375 C 13.132812 15.441406 13.277344 15.5 13.5 15.46875 C 13.667969 15.359375 13.761719 15.289062 13.832031 15.097656 C 13.828125 14.914062 13.789062 14.828125 13.6875 14.671875 C 13.570312 14.585938 13.445312 14.523438 13.3125 14.460938 C 13.230469 14.421875 13.152344 14.378906 13.070312 14.339844 C 13.027344 14.316406 12.984375 14.296875 12.9375 14.273438 C 12.671875 14.140625 12.410156 14.003906 12.148438 13.867188 C 12.070312 13.824219 12.070312 13.824219 11.988281 13.785156 C 11.886719 13.734375 11.785156 13.679688 11.683594 13.628906 C 11.578125 13.570312 11.46875 13.515625 11.359375 13.460938 C 11.304688 13.433594 11.25 13.402344 11.195312 13.375 C 11.144531 13.347656 11.09375 13.324219 11.042969 13.296875 C 10.917969 13.214844 10.871094 13.171875 10.828125 13.03125 C 10.847656 12.777344 10.847656 12.777344 10.96875 12.65625 C 11.324219 12.609375 11.558594 12.742188 11.867188 12.90625 C 11.914062 12.929688 11.964844 12.957031 12.015625 12.980469 C 12.171875 13.0625 12.324219 13.144531 12.480469 13.226562 C 12.683594 13.332031 12.890625 13.4375 13.097656 13.542969 C 13.144531 13.570312 13.191406 13.59375 13.238281 13.621094 C 13.28125 13.644531 13.328125 13.664062 13.371094 13.6875 C 13.410156 13.707031 13.449219 13.730469 13.488281 13.75 C 13.59375 13.792969 13.59375 13.792969 13.695312 13.746094 C 13.796875 13.675781 13.878906 13.601562 13.964844 13.515625 C 13.996094 13.484375 14.03125 13.453125 14.0625 13.417969 C 14.097656 13.382812 14.132812 13.347656 14.167969 13.3125 C 14.203125 13.277344 14.238281 13.242188 14.273438 13.207031 C 14.308594 13.175781 14.339844 13.140625 14.375 13.109375 C 14.402344 13.078125 14.433594 13.046875 14.464844 13.015625 C 14.542969 12.941406 14.542969 12.941406 14.53125 12.84375 C 14.492188 12.824219 14.457031 12.804688 14.417969 12.785156 C 14.054688 12.605469 13.691406 12.425781 13.332031 12.246094 C 13.144531 12.152344 12.957031 12.058594 12.773438 11.964844 C 11.269531 11.21875 11.269531 11.21875 10.625 10.875 C 10.570312 10.84375 10.511719 10.8125 10.453125 10.78125 C 10.417969 10.761719 10.386719 10.746094 10.351562 10.726562 C 10.320312 10.710938 10.285156 10.691406 10.25 10.675781 C 10.222656 10.660156 10.191406 10.644531 10.160156 10.628906 C 10.023438 10.570312 9.960938 10.574219 9.84375 10.671875 Z M 7.125 13.390625 C 7.089844 13.425781 7.054688 13.460938 7.019531 13.496094 C 6.964844 13.554688 6.964844 13.554688 6.90625 13.613281 C 6.867188 13.652344 6.828125 13.691406 6.789062 13.734375 C 6.75 13.773438 6.707031 13.816406 6.667969 13.855469 C 6.570312 13.957031 6.472656 14.054688 6.375 14.15625 C 6.472656 14.261719 6.5625 14.328125 6.691406 14.390625 C 6.722656 14.410156 6.757812 14.425781 6.792969 14.445312 C 6.832031 14.460938 6.871094 14.480469 6.90625 14.5 C 6.96875 14.527344 6.96875 14.527344 7.027344 14.558594 C 7.152344 14.621094 7.28125 14.683594 7.40625 14.746094 C 7.570312 14.824219 7.734375 14.90625 7.898438 14.988281 C 7.941406 15.007812 7.980469 15.027344 8.023438 15.050781 C 8.410156 15.242188 8.792969 15.445312 9.171875 15.644531 C 9.453125 15.792969 9.734375 15.941406 10.019531 16.085938 C 10.089844 16.121094 10.160156 16.15625 10.230469 16.191406 C 10.332031 16.246094 10.4375 16.296875 10.539062 16.351562 C 10.570312 16.367188 10.601562 16.382812 10.632812 16.402344 C 10.800781 16.484375 10.800781 16.484375 10.976562 16.472656 C 11.074219 16.398438 11.160156 16.320312 11.246094 16.234375 C 11.277344 16.203125 11.3125 16.171875 11.34375 16.136719 C 11.378906 16.101562 11.414062 16.066406 11.449219 16.03125 C 11.484375 15.996094 11.519531 15.960938 11.554688 15.925781 C 11.589844 15.894531 11.621094 15.859375 11.65625 15.828125 C 11.699219 15.78125 11.699219 15.78125 11.746094 15.734375 C 11.824219 15.660156 11.824219 15.660156 11.8125 15.5625 C 11.78125 15.546875 11.75 15.53125 11.714844 15.515625 C 11.410156 15.359375 11.101562 15.207031 10.796875 15.054688 C 10.636719 14.976562 10.480469 14.898438 10.324219 14.820312 C 9.640625 14.480469 8.960938 14.136719 8.289062 13.78125 C 8.105469 13.683594 7.917969 13.585938 7.734375 13.492188 C 7.699219 13.476562 7.664062 13.457031 7.628906 13.441406 C 7.371094 13.292969 7.371094 13.292969 7.125 13.390625 Z M 4.453125 14.53125 C 4.378906 14.675781 4.394531 14.792969 4.40625 14.953125 C 4.535156 15.152344 4.667969 15.242188 4.878906 15.347656 C 4.90625 15.363281 4.933594 15.378906 4.964844 15.390625 C 5.058594 15.441406 5.15625 15.488281 5.25 15.535156 C 5.316406 15.570312 5.386719 15.605469 5.453125 15.640625 C 5.683594 15.753906 5.910156 15.871094 6.140625 15.984375 C 6.226562 16.027344 6.3125 16.070312 6.402344 16.113281 C 6.933594 16.382812 6.933594 16.382812 7.46875 16.648438 C 7.945312 16.882812 8.414062 17.125 8.882812 17.375 C 9.167969 17.523438 9.457031 17.671875 9.746094 17.820312 C 9.804688 17.851562 9.867188 17.882812 9.925781 17.914062 C 10.015625 17.960938 10.105469 18.003906 10.195312 18.050781 C 10.246094 18.078125 10.300781 18.101562 10.351562 18.128906 C 10.511719 18.191406 10.613281 18.207031 10.78125 18.1875 C 10.949219 18.078125 11.042969 18.007812 11.113281 17.816406 C 11.109375 17.628906 11.070312 17.546875 10.96875 17.390625 C 10.835938 17.289062 10.6875 17.214844 10.539062 17.140625 C 10.472656 17.101562 10.472656 17.101562 10.402344 17.066406 C 10.246094 16.984375 10.09375 16.90625 9.9375 16.828125 C 9.910156 16.8125 9.882812 16.800781 9.851562 16.785156 C 9.414062 16.5625 8.96875 16.339844 8.527344 16.121094 C 8.234375 15.976562 7.9375 15.828125 7.644531 15.683594 C 7.613281 15.667969 7.582031 15.652344 7.550781 15.636719 C 7.074219 15.398438 6.601562 15.15625 6.132812 14.90625 C 5.921875 14.792969 5.710938 14.683594 5.496094 14.570312 C 5.453125 14.550781 5.410156 14.527344 5.367188 14.503906 C 5.027344 14.332031 4.753906 14.230469 4.453125 14.53125 Z M 4.40625 16.109375 C 4.371094 16.144531 4.335938 16.179688 4.300781 16.214844 C 4.246094 16.273438 4.246094 16.273438 4.1875 16.332031 C 4.148438 16.371094 4.109375 16.410156 4.070312 16.453125 C 4.03125 16.492188 3.988281 16.535156 3.949219 16.574219 C 3.851562 16.675781 3.753906 16.773438 3.65625 16.875 C 3.765625 16.996094 3.871094 17.0625 4.015625 17.132812 C 4.058594 17.152344 4.101562 17.175781 4.148438 17.199219 C 4.195312 17.222656 4.242188 17.246094 4.292969 17.269531 C 4.339844 17.292969 4.390625 17.320312 4.441406 17.34375 C 4.601562 17.421875 4.761719 17.503906 4.921875 17.582031 C 5.128906 17.683594 5.339844 17.785156 5.546875 17.890625 C 5.597656 17.914062 5.648438 17.941406 5.699219 17.96875 C 6.117188 18.171875 6.527344 18.386719 6.9375 18.605469 C 7.167969 18.730469 7.402344 18.851562 7.636719 18.972656 C 7.710938 19.011719 7.710938 19.011719 7.785156 19.050781 C 7.828125 19.074219 7.875 19.097656 7.921875 19.121094 C 7.964844 19.140625 8.003906 19.164062 8.046875 19.183594 C 8.152344 19.230469 8.152344 19.230469 8.253906 19.1875 C 8.355469 19.117188 8.4375 19.042969 8.527344 18.953125 C 8.558594 18.921875 8.59375 18.890625 8.625 18.855469 C 8.660156 18.820312 8.695312 18.785156 8.730469 18.75 C 8.765625 18.714844 8.800781 18.679688 8.835938 18.644531 C 8.871094 18.613281 8.902344 18.578125 8.9375 18.546875 C 8.980469 18.5 8.980469 18.5 9.027344 18.453125 C 9.105469 18.378906 9.105469 18.378906 9.09375 18.28125 C 9.066406 18.269531 9.039062 18.253906 9.011719 18.238281 C 8.722656 18.09375 8.429688 17.949219 8.140625 17.804688 C 8.035156 17.753906 7.925781 17.699219 7.820312 17.644531 C 7.226562 17.351562 6.640625 17.054688 6.054688 16.746094 C 5.773438 16.59375 5.488281 16.449219 5.203125 16.304688 C 5.125 16.265625 5.125 16.265625 5.042969 16.226562 C 4.992188 16.199219 4.941406 16.175781 4.890625 16.148438 C 4.84375 16.125 4.800781 16.101562 4.753906 16.078125 C 4.601562 16.015625 4.535156 16 4.40625 16.109375 Z M 1.734375 17.25 C 1.660156 17.394531 1.675781 17.511719 1.6875 17.671875 C 1.828125 17.898438 2.007812 17.992188 2.238281 18.109375 C 2.269531 18.125 2.300781 18.140625 2.332031 18.15625 C 2.445312 18.214844 2.558594 18.269531 2.671875 18.328125 C 2.746094 18.367188 2.746094 18.367188 2.820312 18.402344 C 3.167969 18.578125 3.511719 18.75 3.859375 18.921875 C 4.074219 19.03125 4.292969 19.136719 4.511719 19.246094 C 4.621094 19.300781 4.734375 19.359375 4.84375 19.414062 C 5.484375 19.730469 6.125 20.054688 6.753906 20.390625 C 6.953125 20.496094 7.152344 20.597656 7.351562 20.703125 C 7.390625 20.722656 7.425781 20.742188 7.464844 20.761719 C 7.671875 20.867188 7.828125 20.941406 8.0625 20.90625 C 8.246094 20.789062 8.328125 20.71875 8.398438 20.511719 C 8.390625 20.308594 8.34375 20.203125 8.203125 20.0625 C 8.027344 19.945312 7.835938 19.855469 7.648438 19.761719 C 7.585938 19.730469 7.527344 19.703125 7.46875 19.671875 C 7.300781 19.585938 7.132812 19.503906 6.960938 19.417969 C 6.742188 19.308594 6.523438 19.199219 6.304688 19.089844 C 6.023438 18.949219 5.746094 18.808594 5.464844 18.671875 C 4.976562 18.425781 4.488281 18.179688 4.007812 17.925781 C 3.707031 17.765625 3.410156 17.609375 3.105469 17.457031 C 3.042969 17.421875 2.976562 17.390625 2.914062 17.355469 C 2.816406 17.308594 2.722656 17.257812 2.625 17.210938 C 2.597656 17.195312 2.570312 17.179688 2.539062 17.164062 C 2.230469 17.011719 1.984375 17 1.734375 17.25 Z M 1.734375 17.25 "/>
</g>
</svg>
