<?xml version="1.0" encoding="UTF-8"?>
<svg xmlns="http://www.w3.org/2000/svg" xmlns:xlink="http://www.w3.org/1999/xlink" width="24px" height="24px" viewBox="0 0 24 24" version="1.1">
<g id="surface1">
<path style=" stroke:none;fill-rule:nonzero;fill:rgb(0%,0%,0%);fill-opacity:1;" d="M 23.484375 0.1875 C 23.617188 0.300781 23.617188 0.300781 23.71875 0.421875 C 23.753906 0.460938 23.785156 0.496094 23.820312 0.535156 C 24.054688 0.867188 24.03125 1.253906 24 1.640625 C 23.914062 2 23.585938 2.328125 23.304688 2.554688 C 23.238281 2.625 23.238281 2.625 23.257812 2.734375 C 23.300781 2.867188 23.34375 3 23.386719 3.132812 C 23.695312 4.136719 23.621094 5.199219 23.15625 6.140625 C 22.804688 6.792969 22.238281 7.304688 21.71875 7.824219 C 21.628906 7.914062 21.539062 8.003906 21.453125 8.09375 C 21.148438 8.398438 20.855469 8.683594 20.484375 8.90625 C 20.457031 8.921875 20.425781 8.941406 20.398438 8.957031 C 19.882812 9.253906 19.300781 9.445312 18.703125 9.46875 C 18.664062 9.472656 18.621094 9.472656 18.578125 9.476562 C 18.027344 9.492188 17.484375 9.386719 16.980469 9.171875 C 16.851562 9.132812 16.808594 9.132812 16.6875 9.1875 C 16.59375 9.273438 16.503906 9.355469 16.417969 9.449219 C 16.382812 9.484375 16.382812 9.484375 16.347656 9.523438 C 16.289062 9.582031 16.230469 9.644531 16.171875 9.703125 C 16.1875 9.746094 16.203125 9.792969 16.21875 9.839844 C 16.582031 10.878906 16.660156 11.980469 16.183594 13 C 15.855469 13.675781 15.375 14.179688 14.847656 14.707031 C 14.738281 14.816406 14.625 14.929688 14.515625 15.042969 C 13.640625 15.925781 12.695312 16.507812 11.417969 16.515625 C 10.8125 16.511719 10.261719 16.402344 9.703125 16.171875 C 9.609375 16.261719 9.511719 16.347656 9.417969 16.4375 C 9.378906 16.476562 9.378906 16.476562 9.335938 16.515625 C 9.261719 16.585938 9.199219 16.652344 9.140625 16.734375 C 9.132812 16.855469 9.132812 16.855469 9.1875 16.96875 C 9.203125 17.011719 9.214844 17.058594 9.230469 17.101562 C 9.246094 17.152344 9.261719 17.199219 9.277344 17.25 C 9.621094 18.355469 9.460938 19.375 8.964844 20.402344 C 8.660156 20.9375 8.179688 21.367188 7.75 21.796875 C 7.644531 21.902344 7.539062 22.011719 7.429688 22.117188 C 6.765625 22.785156 6.765625 22.785156 6.375 23.015625 C 6.347656 23.03125 6.320312 23.050781 6.289062 23.066406 C 5.753906 23.375 5.164062 23.554688 4.546875 23.578125 C 4.515625 23.578125 4.480469 23.582031 4.449219 23.582031 C 3.910156 23.601562 3.414062 23.480469 2.914062 23.292969 C 2.738281 23.238281 2.738281 23.238281 2.578125 23.296875 C 2.46875 23.398438 2.46875 23.398438 2.359375 23.519531 C 2.023438 23.859375 1.765625 24.011719 1.28125 24.023438 C 1.019531 24.015625 0.832031 23.996094 0.609375 23.859375 C 0.582031 23.84375 0.554688 23.828125 0.527344 23.8125 C 0.28125 23.65625 0.113281 23.441406 0.0195312 23.164062 C -0.0429688 22.820312 -0.0703125 22.382812 0.117188 22.074219 C 0.289062 21.851562 0.476562 21.625 0.695312 21.445312 C 0.761719 21.375 0.761719 21.375 0.742188 21.265625 C 0.699219 21.132812 0.65625 20.996094 0.613281 20.863281 C 0.3125 19.882812 0.371094 18.863281 0.824219 17.933594 C 1.183594 17.265625 1.703125 16.753906 2.234375 16.21875 C 2.296875 16.15625 2.355469 16.09375 2.417969 16.03125 C 2.917969 15.515625 3.449219 15.027344 4.140625 14.789062 C 4.175781 14.777344 4.207031 14.765625 4.238281 14.757812 C 4.324219 14.726562 4.414062 14.699219 4.5 14.671875 C 4.535156 14.660156 4.574219 14.648438 4.609375 14.636719 C 5.351562 14.433594 6.199219 14.507812 6.910156 14.769531 C 6.949219 14.785156 6.988281 14.796875 7.03125 14.8125 C 7.070312 14.828125 7.105469 14.84375 7.144531 14.859375 C 7.289062 14.859375 7.308594 14.835938 7.410156 14.742188 C 7.460938 14.6875 7.511719 14.636719 7.5625 14.582031 C 7.601562 14.539062 7.601562 14.539062 7.640625 14.5 C 7.703125 14.433594 7.765625 14.363281 7.828125 14.296875 C 7.804688 14.230469 7.804688 14.230469 7.78125 14.160156 C 7.757812 14.097656 7.738281 14.035156 7.71875 13.976562 C 7.707031 13.945312 7.695312 13.914062 7.683594 13.886719 C 7.546875 13.476562 7.484375 13.078125 7.484375 12.644531 C 7.484375 12.601562 7.484375 12.558594 7.484375 12.515625 C 7.511719 11.042969 8.371094 10.089844 9.347656 9.101562 C 9.40625 9.042969 9.464844 8.984375 9.523438 8.925781 C 10.320312 8.101562 11.28125 7.507812 12.464844 7.488281 C 13.117188 7.488281 13.683594 7.585938 14.296875 7.828125 C 14.484375 7.640625 14.667969 7.457031 14.859375 7.265625 C 14.839844 7.199219 14.820312 7.132812 14.796875 7.066406 C 14.449219 5.902344 14.417969 4.765625 15.007812 3.660156 C 15.324219 3.113281 15.769531 2.675781 16.210938 2.234375 C 16.320312 2.125 16.429688 2.015625 16.535156 1.90625 C 17.363281 1.070312 18.300781 0.476562 19.511719 0.421875 C 20.070312 0.425781 20.570312 0.503906 21.09375 0.707031 C 21.261719 0.757812 21.261719 0.757812 21.421875 0.703125 C 21.507812 0.625 21.507812 0.625 21.59375 0.53125 C 22.109375 -0.0117188 22.808594 -0.195312 23.484375 0.1875 Z M 21.386719 1.949219 C 21.28125 2.054688 21.171875 2.160156 21.066406 2.265625 C 21 2.335938 20.929688 2.402344 20.863281 2.46875 C 20.832031 2.503906 20.796875 2.535156 20.765625 2.566406 C 20.734375 2.597656 20.707031 2.625 20.675781 2.65625 C 20.652344 2.683594 20.625 2.707031 20.597656 2.734375 C 20.472656 2.878906 20.4375 2.96875 20.445312 3.164062 C 20.488281 3.347656 20.519531 3.410156 20.671875 3.515625 C 20.828125 3.570312 20.828125 3.570312 21 3.5625 C 21.273438 3.414062 21.476562 3.191406 21.695312 2.972656 C 21.734375 2.933594 21.773438 2.894531 21.8125 2.855469 C 21.894531 2.773438 21.976562 2.691406 22.058594 2.609375 C 22.183594 2.480469 22.308594 2.355469 22.433594 2.230469 C 22.515625 2.148438 22.59375 2.070312 22.671875 1.992188 C 22.710938 1.953125 22.75 1.914062 22.789062 1.875 C 22.820312 1.839844 22.855469 1.804688 22.894531 1.769531 C 22.921875 1.738281 22.953125 1.707031 22.984375 1.675781 C 23.136719 1.511719 23.179688 1.394531 23.171875 1.171875 C 23.160156 1.0625 23.160156 1.0625 23.0625 0.9375 C 22.921875 0.84375 22.820312 0.796875 22.648438 0.808594 C 22.1875 0.960938 21.722656 1.609375 21.386719 1.949219 Z M 18.421875 1.546875 C 18.378906 1.566406 18.339844 1.585938 18.296875 1.601562 C 18.050781 1.726562 17.851562 1.871094 17.648438 2.058594 C 17.613281 2.089844 17.613281 2.089844 17.574219 2.125 C 17.308594 2.375 17.042969 2.628906 16.785156 2.886719 C 16.730469 2.941406 16.675781 2.996094 16.621094 3.046875 C 15.894531 3.75 15.410156 4.5 15.367188 5.539062 C 15.382812 6.089844 15.382812 6.089844 15.609375 6.5625 C 15.726562 6.457031 15.84375 6.347656 15.960938 6.242188 C 15.996094 6.210938 16.027344 6.179688 16.0625 6.152344 C 16.25 5.976562 16.25 5.976562 16.332031 5.738281 C 16.332031 5.621094 16.324219 5.507812 16.3125 5.390625 C 16.359375 4.753906 16.671875 4.285156 17.109375 3.84375 C 17.222656 3.730469 17.335938 3.613281 17.449219 3.496094 C 17.515625 3.425781 17.582031 3.359375 17.652344 3.289062 C 17.71875 3.222656 17.78125 3.152344 17.847656 3.085938 C 18.230469 2.699219 18.664062 2.332031 19.21875 2.25 C 19.308594 2.253906 19.394531 2.257812 19.484375 2.257812 C 19.769531 2.265625 19.949219 2.238281 20.171875 2.042969 C 20.351562 1.871094 20.515625 1.691406 20.671875 1.5 C 20.175781 1.003906 18.972656 1.300781 18.421875 1.546875 Z M 18.003906 4.113281 C 17.933594 4.179688 17.867188 4.25 17.796875 4.316406 C 17.753906 4.359375 17.710938 4.40625 17.664062 4.449219 C 17.625 4.488281 17.585938 4.527344 17.546875 4.566406 C 17.292969 4.84375 17.148438 5.105469 17.15625 5.484375 C 17.191406 5.492188 17.230469 5.5 17.269531 5.507812 C 17.710938 5.609375 18.003906 5.710938 18.28125 6.09375 C 18.425781 6.332031 18.46875 6.574219 18.515625 6.84375 C 19.160156 6.824219 19.53125 6.363281 19.960938 5.933594 C 20.054688 5.839844 20.148438 5.746094 20.238281 5.65625 C 20.300781 5.59375 20.359375 5.535156 20.417969 5.476562 C 20.445312 5.449219 20.472656 5.421875 20.5 5.394531 C 20.722656 5.167969 20.921875 4.925781 20.941406 4.597656 C 20.945312 4.542969 20.945312 4.542969 20.949219 4.488281 C 20.949219 4.460938 20.953125 4.433594 20.953125 4.40625 C 20.914062 4.398438 20.875 4.390625 20.832031 4.386719 C 20.402344 4.300781 20.121094 4.175781 19.835938 3.839844 C 19.679688 3.605469 19.644531 3.320312 19.59375 3.046875 C 18.917969 3.019531 18.4375 3.675781 18.003906 4.113281 Z M 22.144531 3.652344 C 22.113281 3.683594 22.078125 3.714844 22.042969 3.746094 C 21.863281 3.914062 21.863281 3.914062 21.777344 4.140625 C 21.777344 4.246094 21.785156 4.347656 21.796875 4.453125 C 21.714844 5.289062 21.234375 5.835938 20.660156 6.40625 C 20.570312 6.496094 20.480469 6.589844 20.390625 6.679688 C 19.800781 7.273438 19.285156 7.636719 18.429688 7.675781 C 18.203125 7.691406 18.089844 7.71875 17.933594 7.882812 C 17.886719 7.925781 17.886719 7.925781 17.84375 7.972656 C 17.8125 8.003906 17.785156 8.035156 17.753906 8.066406 C 17.707031 8.113281 17.707031 8.113281 17.660156 8.160156 C 17.585938 8.234375 17.511719 8.3125 17.4375 8.390625 C 17.660156 8.613281 18.117188 8.621094 18.421875 8.632812 C 19.683594 8.585938 20.460938 7.859375 21.3125 7.015625 C 21.375 6.957031 21.433594 6.898438 21.496094 6.839844 C 22.195312 6.15625 22.691406 5.425781 22.738281 4.417969 C 22.730469 4.042969 22.671875 3.683594 22.546875 3.328125 C 22.410156 3.328125 22.238281 3.5625 22.144531 3.652344 Z M 16.578125 6.75 C 16.546875 6.777344 16.515625 6.808594 16.488281 6.839844 C 16.453125 6.871094 16.421875 6.90625 16.390625 6.9375 C 16.28125 7.042969 16.175781 7.152344 16.070312 7.257812 C 15.996094 7.332031 15.921875 7.40625 15.847656 7.480469 C 15.695312 7.632812 15.539062 7.789062 15.386719 7.945312 C 15.1875 8.144531 14.992188 8.339844 14.792969 8.539062 C 14.640625 8.691406 14.488281 8.84375 14.335938 9 C 14.261719 9.070312 14.1875 9.144531 14.117188 9.21875 C 14.015625 9.320312 13.914062 9.421875 13.8125 9.523438 C 13.78125 9.554688 13.75 9.585938 13.71875 9.617188 C 13.679688 9.660156 13.679688 9.660156 13.636719 9.703125 C 13.597656 9.738281 13.597656 9.738281 13.5625 9.773438 C 13.449219 9.898438 13.40625 9.972656 13.390625 10.140625 C 13.410156 10.339844 13.457031 10.410156 13.59375 10.546875 C 13.742188 10.621094 13.859375 10.636719 14.015625 10.59375 C 14.445312 10.277344 14.816406 9.847656 15.191406 9.472656 C 15.226562 9.441406 15.257812 9.410156 15.292969 9.375 C 15.464844 9.199219 15.640625 9.027344 15.8125 8.855469 C 15.992188 8.675781 16.171875 8.496094 16.351562 8.316406 C 16.492188 8.179688 16.628906 8.042969 16.769531 7.902344 C 16.832031 7.835938 16.898438 7.773438 16.964844 7.707031 C 17.058594 7.613281 17.152344 7.523438 17.242188 7.429688 C 17.269531 7.402344 17.296875 7.375 17.324219 7.347656 C 17.480469 7.191406 17.59375 7.050781 17.671875 6.84375 C 17.644531 6.625 17.609375 6.542969 17.441406 6.402344 C 17.089844 6.222656 16.816406 6.511719 16.578125 6.75 Z M 11.246094 8.648438 C 11.21875 8.660156 11.191406 8.675781 11.160156 8.6875 C 10.832031 8.855469 10.574219 9.121094 10.3125 9.375 C 10.285156 9.402344 10.257812 9.425781 10.230469 9.453125 C 10.0625 9.617188 9.894531 9.78125 9.726562 9.945312 C 9.671875 10.003906 9.613281 10.058594 9.554688 10.117188 C 8.835938 10.816406 8.34375 11.570312 8.328125 12.601562 C 8.328125 12.945312 8.390625 13.261719 8.484375 13.59375 C 8.78125 13.46875 9.0625 13.207031 9.234375 12.9375 C 9.277344 12.753906 9.28125 12.59375 9.277344 12.40625 C 9.289062 11.628906 9.851562 11.070312 10.367188 10.5625 C 10.464844 10.464844 10.5625 10.367188 10.660156 10.269531 C 11.144531 9.78125 11.589844 9.421875 12.28125 9.28125 C 12.390625 9.28125 12.5 9.285156 12.605469 9.289062 C 12.976562 9.273438 13.152344 9.074219 13.394531 8.816406 C 13.542969 8.671875 13.542969 8.671875 13.59375 8.484375 C 12.78125 8.25 12.015625 8.285156 11.246094 8.648438 Z M 10.953125 11.15625 C 10.90625 11.203125 10.859375 11.25 10.8125 11.296875 C 10.421875 11.671875 10.109375 12.003906 10.078125 12.5625 C 10.121094 12.570312 10.164062 12.578125 10.207031 12.582031 C 10.65625 12.664062 10.9375 12.765625 11.21875 13.125 C 11.363281 13.386719 11.40625 13.628906 11.4375 13.921875 C 12.066406 13.898438 12.46875 13.4375 12.882812 13.015625 C 12.976562 12.921875 13.066406 12.832031 13.160156 12.742188 C 13.722656 12.183594 13.722656 12.183594 13.921875 11.4375 C 13.886719 11.433594 13.851562 11.429688 13.8125 11.425781 C 13.410156 11.375 13.132812 11.273438 12.851562 10.96875 C 12.644531 10.695312 12.59375 10.414062 12.5625 10.078125 C 11.875 10.078125 11.40625 10.710938 10.953125 11.15625 Z M 15.421875 10.40625 C 14.984375 10.757812 14.984375 10.757812 14.71875 11.230469 C 14.714844 11.339844 14.714844 11.449219 14.71875 11.558594 C 14.722656 12.210938 14.316406 12.746094 13.878906 13.191406 C 13.789062 13.285156 13.695312 13.375 13.601562 13.46875 C 13.507812 13.5625 13.414062 13.65625 13.320312 13.75 C 12.84375 14.230469 12.398438 14.582031 11.71875 14.71875 C 11.609375 14.71875 11.5 14.714844 11.394531 14.710938 C 11.023438 14.726562 10.847656 14.925781 10.605469 15.183594 C 10.457031 15.328125 10.457031 15.328125 10.40625 15.515625 C 11.203125 15.773438 12 15.707031 12.753906 15.351562 C 12.78125 15.339844 12.808594 15.324219 12.839844 15.3125 C 13.167969 15.144531 13.425781 14.878906 13.6875 14.625 C 13.714844 14.597656 13.742188 14.574219 13.769531 14.546875 C 13.9375 14.382812 14.105469 14.21875 14.273438 14.054688 C 14.328125 13.996094 14.386719 13.941406 14.445312 13.882812 C 15.15625 13.1875 15.644531 12.445312 15.671875 11.421875 C 15.667969 11.089844 15.625 10.769531 15.515625 10.453125 C 15.46875 10.429688 15.46875 10.429688 15.421875 10.40625 Z M 8.808594 14.527344 C 8.773438 14.558594 8.742188 14.589844 8.707031 14.625 C 8.535156 14.800781 8.359375 14.972656 8.1875 15.144531 C 8.007812 15.324219 7.828125 15.503906 7.648438 15.683594 C 7.507812 15.820312 7.371094 15.957031 7.230469 16.097656 C 7.167969 16.164062 7.101562 16.226562 7.035156 16.292969 C 6.941406 16.386719 6.847656 16.476562 6.757812 16.570312 C 6.730469 16.597656 6.703125 16.625 6.675781 16.652344 C 6.519531 16.808594 6.40625 16.949219 6.328125 17.15625 C 6.355469 17.371094 6.390625 17.457031 6.550781 17.601562 C 6.730469 17.683594 6.796875 17.675781 6.984375 17.625 C 7.09375 17.554688 7.09375 17.554688 7.191406 17.453125 C 7.234375 17.417969 7.273438 17.378906 7.316406 17.339844 C 7.359375 17.292969 7.40625 17.25 7.453125 17.203125 C 7.492188 17.164062 7.492188 17.164062 7.53125 17.128906 C 7.742188 16.921875 7.953125 16.710938 8.164062 16.503906 C 8.230469 16.433594 8.296875 16.367188 8.363281 16.300781 C 8.503906 16.160156 8.644531 16.019531 8.785156 15.878906 C 8.964844 15.699219 9.144531 15.519531 9.324219 15.339844 C 9.464844 15.203125 9.601562 15.066406 9.742188 14.925781 C 9.808594 14.859375 9.875 14.792969 9.941406 14.726562 C 10.03125 14.636719 10.125 14.542969 10.21875 14.449219 C 10.246094 14.421875 10.273438 14.394531 10.300781 14.367188 C 10.472656 14.195312 10.582031 14.074219 10.609375 13.832031 C 10.589844 13.652344 10.53125 13.582031 10.40625 13.453125 C 9.847656 13.171875 9.167969 14.167969 8.808594 14.527344 Z M 2.855469 16.808594 C 2.75 16.914062 2.644531 17.019531 2.539062 17.125 C 1.816406 17.84375 1.332031 18.539062 1.265625 19.59375 C 1.265625 19.972656 1.324219 20.316406 1.453125 20.671875 C 1.5625 20.578125 1.671875 20.484375 1.78125 20.390625 C 1.820312 20.359375 1.859375 20.324219 1.898438 20.292969 C 2.109375 20.109375 2.109375 20.109375 2.226562 19.867188 C 2.226562 19.761719 2.226562 19.761719 2.210938 19.660156 C 2.167969 19.128906 2.414062 18.628906 2.742188 18.230469 C 2.949219 17.988281 3.175781 17.761719 3.398438 17.535156 C 3.484375 17.453125 3.566406 17.367188 3.648438 17.285156 C 4.222656 16.703125 4.738281 16.359375 5.570312 16.324219 C 5.796875 16.308594 5.910156 16.28125 6.066406 16.117188 C 6.097656 16.089844 6.125 16.058594 6.15625 16.027344 C 6.199219 15.980469 6.199219 15.980469 6.246094 15.933594 C 6.292969 15.886719 6.292969 15.886719 6.339844 15.839844 C 6.414062 15.765625 6.488281 15.6875 6.5625 15.609375 C 6.429688 15.476562 6.285156 15.46875 6.109375 15.4375 C 6.074219 15.433594 6.042969 15.425781 6.007812 15.421875 C 4.695312 15.179688 3.726562 15.929688 2.855469 16.808594 Z M 4.109375 17.992188 C 4.011719 18.089844 3.917969 18.1875 3.820312 18.285156 C 3.761719 18.347656 3.699219 18.40625 3.636719 18.46875 C 3.609375 18.5 3.582031 18.527344 3.550781 18.554688 C 3.296875 18.820312 3.050781 19.101562 3.042969 19.484375 C 3.046875 19.519531 3.046875 19.558594 3.046875 19.59375 C 3.085938 19.601562 3.125 19.609375 3.167969 19.613281 C 3.589844 19.699219 3.835938 19.824219 4.140625 20.121094 C 4.292969 20.375 4.351562 20.664062 4.40625 20.953125 C 4.460938 20.949219 4.519531 20.945312 4.578125 20.9375 C 4.609375 20.9375 4.640625 20.933594 4.671875 20.929688 C 4.914062 20.875 5.101562 20.746094 5.28125 20.578125 C 5.320312 20.539062 5.363281 20.503906 5.402344 20.464844 C 5.601562 20.277344 5.800781 20.085938 5.996094 19.890625 C 6.0625 19.824219 6.128906 19.757812 6.199219 19.691406 C 6.644531 19.269531 6.644531 19.269531 6.835938 18.703125 C 6.835938 18.667969 6.839844 18.632812 6.839844 18.59375 C 6.84375 18.570312 6.84375 18.542969 6.84375 18.515625 C 6.789062 18.503906 6.789062 18.503906 6.734375 18.492188 C 6.3125 18.398438 5.964844 18.28125 5.71875 17.90625 C 5.574219 17.667969 5.53125 17.425781 5.484375 17.15625 C 4.898438 17.078125 4.476562 17.617188 4.109375 17.992188 Z M 8.035156 17.757812 C 8.003906 17.789062 7.96875 17.820312 7.933594 17.847656 C 7.75 18.027344 7.75 18.027344 7.667969 18.261719 C 7.667969 18.378906 7.675781 18.492188 7.6875 18.609375 C 7.640625 19.246094 7.328125 19.714844 6.890625 20.15625 C 6.777344 20.269531 6.664062 20.386719 6.550781 20.503906 C 6.484375 20.574219 6.417969 20.640625 6.347656 20.710938 C 6.28125 20.777344 6.21875 20.847656 6.152344 20.914062 C 5.617188 21.453125 5.117188 21.75 4.359375 21.785156 C 4.3125 21.789062 4.265625 21.792969 4.21875 21.796875 C 4.164062 21.796875 4.164062 21.796875 4.105469 21.800781 C 3.90625 21.871094 3.785156 22.023438 3.640625 22.175781 C 3.597656 22.222656 3.597656 22.222656 3.550781 22.269531 C 3.476562 22.34375 3.402344 22.421875 3.328125 22.5 C 3.574219 22.746094 4.078125 22.730469 4.40625 22.734375 C 5.132812 22.683594 5.8125 22.445312 6.347656 21.945312 C 6.375 21.921875 6.398438 21.898438 6.421875 21.878906 C 6.699219 21.617188 6.96875 21.355469 7.238281 21.089844 C 7.296875 21.035156 7.351562 20.976562 7.410156 20.921875 C 8.085938 20.269531 8.554688 19.574219 8.625 18.609375 C 8.625 18.199219 8.582031 17.820312 8.4375 17.4375 C 8.300781 17.4375 8.128906 17.671875 8.035156 17.757812 Z M 2.292969 21.039062 C 2.253906 21.078125 2.214844 21.121094 2.171875 21.160156 C 2.085938 21.246094 2.003906 21.332031 1.917969 21.414062 C 1.789062 21.546875 1.660156 21.675781 1.53125 21.804688 C 1.449219 21.886719 1.367188 21.96875 1.285156 22.050781 C 1.226562 22.109375 1.226562 22.109375 1.167969 22.167969 C 1.132812 22.203125 1.097656 22.242188 1.058594 22.277344 C 1.027344 22.308594 0.996094 22.339844 0.964844 22.375 C 0.835938 22.515625 0.824219 22.636719 0.828125 22.824219 C 0.839844 22.9375 0.839844 22.9375 0.9375 23.0625 C 1.078125 23.15625 1.179688 23.203125 1.351562 23.191406 C 1.804688 23.042969 2.261719 22.402344 2.59375 22.070312 C 2.695312 21.964844 2.800781 21.863281 2.902344 21.757812 C 2.96875 21.695312 3.035156 21.628906 3.101562 21.5625 C 3.132812 21.53125 3.164062 21.5 3.195312 21.46875 C 3.222656 21.441406 3.25 21.410156 3.28125 21.382812 C 3.304688 21.355469 3.332031 21.332031 3.355469 21.304688 C 3.503906 21.144531 3.535156 21.027344 3.53125 20.8125 C 3.507812 20.65625 3.449219 20.585938 3.328125 20.484375 C 2.867188 20.339844 2.589844 20.738281 2.292969 21.039062 Z M 2.292969 21.039062 "/>
</g>
</svg>
