<?xml version="1.0" encoding="UTF-8"?>
<svg xmlns="http://www.w3.org/2000/svg" xmlns:xlink="http://www.w3.org/1999/xlink" width="24px" height="24px" viewBox="0 0 24 24" version="1.1">
<g id="surface1">
<path style=" stroke:none;fill-rule:nonzero;fill:rgb(0%,0%,0%);fill-opacity:1;" d="M 11.011719 -0.0078125 C 11.046875 -0.0078125 11.082031 -0.0117188 11.121094 -0.0117188 C 11.316406 -0.0117188 11.507812 -0.0117188 11.703125 -0.0117188 C 11.859375 -0.0117188 12.015625 -0.0117188 12.167969 -0.0117188 C 13.019531 -0.0195312 13.867188 -0.0078125 14.714844 0.0625 C 14.765625 0.0703125 14.765625 0.0703125 14.820312 0.0742188 C 18.394531 0.371094 18.394531 0.371094 19.171875 1.171875 C 19.234375 1.339844 19.234375 1.339844 19.21875 1.5 C 18.832031 2.085938 17.792969 2.230469 17.148438 2.371094 C 15.3125 2.746094 13.40625 2.847656 11.53125 2.8125 C 11.480469 2.8125 11.433594 2.8125 11.382812 2.808594 C 6.019531 2.707031 6.019531 2.707031 4.828125 1.59375 C 4.773438 1.433594 4.773438 1.433594 4.78125 1.265625 C 5.183594 0.65625 6.324219 0.515625 6.980469 0.375 C 7.535156 0.265625 8.09375 0.191406 8.65625 0.128906 C 8.6875 0.125 8.722656 0.121094 8.761719 0.117188 C 9.511719 0.0351562 10.257812 -0.0078125 11.011719 -0.0078125 Z M 8.390625 1.03125 C 8.398438 1.121094 8.398438 1.121094 8.4375 1.21875 C 9.339844 1.835938 10.941406 1.707031 11.980469 1.703125 C 12.027344 1.703125 12.078125 1.703125 12.125 1.703125 C 13.902344 1.738281 13.902344 1.738281 15.5625 1.21875 C 15.609375 1.121094 15.609375 1.121094 15.609375 1.03125 C 14.246094 0.046875 9.753906 0.046875 8.390625 1.03125 Z M 8.390625 1.03125 "/>
<path style=" stroke:none;fill-rule:nonzero;fill:rgb(0%,0%,0%);fill-opacity:1;" d="M 5.339844 20.910156 C 5.460938 20.960938 5.53125 21.03125 5.621094 21.121094 C 5.878906 21.355469 6.164062 21.53125 6.46875 21.703125 C 6.496094 21.71875 6.523438 21.734375 6.550781 21.75 C 8.011719 22.566406 9.785156 22.835938 11.4375 22.875 C 11.476562 22.875 11.519531 22.878906 11.5625 22.878906 C 13.953125 22.929688 16.570312 22.625 18.46875 21.046875 C 18.492188 21.019531 18.519531 20.988281 18.542969 20.960938 C 18.609375 20.90625 18.609375 20.90625 18.703125 20.910156 C 18.816406 20.960938 18.855469 21.011719 18.921875 21.109375 C 18.953125 21.152344 18.953125 21.152344 18.980469 21.199219 C 19.101562 21.402344 19.105469 21.613281 19.078125 21.84375 C 18.9375 22.332031 18.492188 22.578125 18.074219 22.808594 C 16.269531 23.773438 14.199219 24.027344 12.175781 24.019531 C 12 24.019531 11.824219 24.019531 11.644531 24.019531 C 9.578125 24.019531 6.730469 23.78125 5.144531 22.261719 C 4.949219 22.046875 4.894531 21.816406 4.90625 21.527344 C 4.9375 21.316406 5.082031 20.898438 5.339844 20.910156 Z M 5.339844 20.910156 "/>
<path style=" stroke:none;fill-rule:nonzero;fill:rgb(0%,0%,0%);fill-opacity:1;" d="M 4.78125 1.96875 C 4.855469 2.003906 4.855469 2.003906 4.929688 2.039062 C 6.269531 2.667969 7.726562 2.871094 9.1875 3 C 9.238281 3.003906 9.292969 3.011719 9.347656 3.015625 C 11.164062 3.175781 13.042969 3.171875 14.859375 3 C 14.890625 2.996094 14.921875 2.992188 14.953125 2.992188 C 16.386719 2.851562 17.949219 2.6875 19.21875 1.96875 C 19.269531 2.714844 19.269531 2.714844 19.164062 2.921875 C 19.078125 3 18.996094 3.046875 18.890625 3.09375 C 18.855469 3.113281 18.824219 3.132812 18.789062 3.152344 C 17.875 3.625 16.742188 3.765625 15.734375 3.898438 C 15.675781 3.902344 15.621094 3.910156 15.5625 3.917969 C 14.445312 4.058594 13.320312 4.09375 12.195312 4.089844 C 12.03125 4.089844 11.871094 4.089844 11.707031 4.089844 C 10.558594 4.09375 9.417969 4.046875 8.28125 3.898438 C 8.25 3.894531 8.21875 3.890625 8.1875 3.886719 C 5.777344 3.574219 5.777344 3.574219 4.96875 3 C 4.917969 2.960938 4.917969 2.960938 4.863281 2.925781 C 4.738281 2.75 4.761719 2.585938 4.769531 2.378906 C 4.769531 2.339844 4.769531 2.300781 4.773438 2.257812 C 4.773438 2.164062 4.777344 2.066406 4.78125 1.96875 Z M 4.78125 1.96875 "/>
<path style=" stroke:none;fill-rule:nonzero;fill:rgb(0%,0%,0%);fill-opacity:1;" d="M 8.578125 13.40625 C 9.234375 13.5 9.234375 13.5 9.515625 13.546875 C 9.515625 14.878906 9.515625 16.207031 9.515625 17.578125 C 8.953125 17.53125 8.953125 17.53125 8.578125 17.4375 C 8.578125 16.105469 8.578125 14.777344 8.578125 13.40625 Z M 8.578125 13.40625 "/>
<path style=" stroke:none;fill-rule:nonzero;fill:rgb(0%,0%,0%);fill-opacity:1;" d="M 15.421875 13.40625 C 15.421875 14.738281 15.421875 16.066406 15.421875 17.4375 C 14.765625 17.578125 14.765625 17.578125 14.484375 17.578125 C 14.484375 16.246094 14.484375 14.917969 14.484375 13.546875 C 15.28125 13.40625 15.28125 13.40625 15.421875 13.40625 Z M 15.421875 13.40625 "/>
<path style=" stroke:none;fill-rule:nonzero;fill:rgb(0%,0%,0%);fill-opacity:1;" d="M 15.421875 8.15625 C 15.421875 9.488281 15.421875 10.816406 15.421875 12.1875 C 14.71875 12.328125 14.71875 12.328125 14.484375 12.328125 C 14.484375 10.996094 14.484375 9.667969 14.484375 8.296875 C 15.234375 8.15625 15.234375 8.15625 15.421875 8.15625 Z M 15.421875 8.15625 "/>
<path style=" stroke:none;fill-rule:nonzero;fill:rgb(0%,0%,0%);fill-opacity:1;" d="M 8.578125 8.15625 C 8.890625 8.191406 9.203125 8.242188 9.515625 8.296875 C 9.515625 9.628906 9.515625 10.957031 9.515625 12.328125 C 9 12.28125 9 12.28125 8.578125 12.1875 C 8.578125 10.855469 8.578125 9.527344 8.578125 8.15625 Z M 8.578125 8.15625 "/>
<path style=" stroke:none;fill-rule:nonzero;fill:rgb(0%,0%,0%);fill-opacity:1;" d="M 14.15625 13.640625 C 14.15625 14.972656 14.15625 16.300781 14.15625 17.671875 C 13.734375 17.71875 13.734375 17.71875 13.265625 17.71875 C 13.265625 16.386719 13.265625 15.058594 13.265625 13.6875 C 13.6875 13.640625 13.6875 13.640625 14.15625 13.640625 Z M 14.15625 13.640625 "/>
<path style=" stroke:none;fill-rule:nonzero;fill:rgb(0%,0%,0%);fill-opacity:1;" d="M 9.84375 13.640625 C 10.3125 13.640625 10.3125 13.640625 10.734375 13.6875 C 10.734375 15.019531 10.734375 16.347656 10.734375 17.71875 C 10.265625 17.71875 10.265625 17.71875 9.84375 17.671875 C 9.84375 16.339844 9.84375 15.011719 9.84375 13.640625 Z M 9.84375 13.640625 "/>
<path style=" stroke:none;fill-rule:nonzero;fill:rgb(0%,0%,0%);fill-opacity:1;" d="M 14.15625 8.34375 C 14.15625 8.867188 14.15625 9.394531 14.160156 9.917969 C 14.160156 10.160156 14.160156 10.40625 14.160156 10.648438 C 14.160156 10.882812 14.160156 11.117188 14.160156 11.355469 C 14.160156 11.445312 14.160156 11.535156 14.160156 11.625 C 14.160156 11.75 14.160156 11.875 14.160156 12 C 14.160156 12.039062 14.160156 12.074219 14.160156 12.113281 C 14.160156 12.371094 14.160156 12.371094 14.109375 12.421875 C 13.832031 12.4375 13.550781 12.453125 13.265625 12.46875 C 13.265625 11.136719 13.265625 9.808594 13.265625 8.4375 C 14.109375 8.34375 14.109375 8.34375 14.15625 8.34375 Z M 14.15625 8.34375 "/>
<path style=" stroke:none;fill-rule:nonzero;fill:rgb(0%,0%,0%);fill-opacity:1;" d="M 9.84375 8.34375 C 10.136719 8.375 10.429688 8.40625 10.734375 8.4375 C 10.734375 9.769531 10.734375 11.097656 10.734375 12.46875 C 9.9375 12.421875 9.9375 12.421875 9.84375 12.375 C 9.84375 11.042969 9.84375 9.714844 9.84375 8.34375 Z M 9.84375 8.34375 "/>
<path style=" stroke:none;fill-rule:nonzero;fill:rgb(0%,0%,0%);fill-opacity:1;" d="M 15.421875 18.65625 C 15.421875 19.816406 15.421875 20.976562 15.421875 22.171875 C 15.242188 22.230469 15.082031 22.28125 14.898438 22.320312 C 14.863281 22.328125 14.824219 22.335938 14.78125 22.34375 C 14.671875 22.359375 14.671875 22.359375 14.484375 22.359375 C 14.484375 21.199219 14.484375 20.039062 14.484375 18.84375 C 14.691406 18.785156 14.878906 18.734375 15.085938 18.695312 C 15.128906 18.6875 15.171875 18.679688 15.21875 18.671875 C 15.328125 18.65625 15.328125 18.65625 15.421875 18.65625 Z M 15.421875 18.65625 "/>
<path style=" stroke:none;fill-rule:nonzero;fill:rgb(0%,0%,0%);fill-opacity:1;" d="M 8.578125 18.65625 C 9.46875 18.796875 9.46875 18.796875 9.515625 18.84375 C 9.519531 18.953125 9.523438 19.0625 9.519531 19.171875 C 9.519531 19.207031 9.519531 19.242188 9.519531 19.277344 C 9.519531 19.390625 9.519531 19.503906 9.519531 19.617188 C 9.519531 19.695312 9.519531 19.773438 9.519531 19.855469 C 9.519531 20.0625 9.519531 20.269531 9.519531 20.476562 C 9.519531 20.6875 9.519531 20.898438 9.519531 21.113281 C 9.515625 21.527344 9.515625 21.945312 9.515625 22.359375 C 9.179688 22.332031 8.914062 22.265625 8.578125 22.171875 C 8.578125 21.011719 8.578125 19.851562 8.578125 18.65625 Z M 8.578125 18.65625 "/>
<path style=" stroke:none;fill-rule:nonzero;fill:rgb(0%,0%,0%);fill-opacity:1;" d="M 18.46875 11.4375 C 18.480469 11.511719 18.484375 11.582031 18.492188 11.65625 C 18.496094 11.699219 18.5 11.738281 18.503906 11.78125 C 18.453125 11.957031 18.359375 11.996094 18.203125 12.085938 C 18.167969 12.101562 18.128906 12.121094 18.09375 12.140625 C 18.058594 12.15625 18.027344 12.175781 17.992188 12.191406 C 16.191406 13.082031 14.175781 13.375 12.1875 13.40625 C 12.1875 13.234375 12.1875 13.066406 12.1875 12.890625 C 12.359375 12.847656 12.503906 12.832031 12.679688 12.824219 C 12.738281 12.820312 12.800781 12.820312 12.863281 12.816406 C 12.894531 12.8125 12.925781 12.8125 12.960938 12.8125 C 14.824219 12.714844 16.667969 12.332031 18.335938 11.480469 C 18.421875 11.4375 18.421875 11.4375 18.46875 11.4375 Z M 18.46875 11.4375 "/>
<path style=" stroke:none;fill-rule:nonzero;fill:rgb(0%,0%,0%);fill-opacity:1;" d="M 5.53125 11.4375 C 5.558594 11.449219 5.582031 11.460938 5.609375 11.472656 C 7.390625 12.285156 9.195312 12.707031 11.144531 12.8125 C 11.203125 12.816406 11.261719 12.820312 11.324219 12.824219 C 11.378906 12.828125 11.433594 12.828125 11.488281 12.832031 C 11.625 12.84375 11.625 12.84375 11.8125 12.890625 C 11.8125 13.0625 11.8125 13.230469 11.8125 13.40625 C 10.046875 13.367188 6.890625 13.265625 5.53125 11.90625 C 5.527344 11.828125 5.527344 11.746094 5.527344 11.667969 C 5.527344 11.625 5.527344 11.582031 5.53125 11.539062 C 5.53125 11.503906 5.53125 11.472656 5.53125 11.4375 Z M 5.53125 11.4375 "/>
<path style=" stroke:none;fill-rule:nonzero;fill:rgb(0%,0%,0%);fill-opacity:1;" d="M 18.46875 16.734375 C 18.46875 16.890625 18.46875 17.042969 18.46875 17.203125 C 16.625 18.140625 14.578125 18.679688 12.5 18.660156 C 12.4375 18.660156 12.378906 18.660156 12.316406 18.65625 C 12.253906 18.65625 12.253906 18.65625 12.1875 18.65625 C 12.1875 18.484375 12.1875 18.316406 12.1875 18.140625 C 12.234375 18.136719 12.28125 18.132812 12.328125 18.128906 C 14.289062 17.988281 16.277344 17.765625 18.054688 16.867188 C 18.316406 16.734375 18.316406 16.734375 18.46875 16.734375 Z M 18.46875 16.734375 "/>
<path style=" stroke:none;fill-rule:nonzero;fill:rgb(0%,0%,0%);fill-opacity:1;" d="M 18.46875 6.1875 C 18.496094 6.351562 18.507812 6.492188 18.46875 6.65625 C 18.335938 6.796875 18.171875 6.859375 18 6.9375 C 17.949219 6.960938 17.894531 6.988281 17.839844 7.015625 C 16.121094 7.828125 14.085938 8.1875 12.1875 8.15625 C 12.1875 7.984375 12.1875 7.816406 12.1875 7.640625 C 12.320312 7.574219 12.4375 7.582031 12.585938 7.574219 C 12.648438 7.570312 12.710938 7.570312 12.773438 7.566406 C 12.808594 7.5625 12.84375 7.5625 12.878906 7.5625 C 14.746094 7.46875 16.582031 7.105469 18.265625 6.265625 C 18.421875 6.1875 18.421875 6.1875 18.46875 6.1875 Z M 18.46875 6.1875 "/>
<path style=" stroke:none;fill-rule:nonzero;fill:rgb(0%,0%,0%);fill-opacity:1;" d="M 5.53125 6.1875 C 5.558594 6.199219 5.582031 6.210938 5.609375 6.222656 C 7.5 7.085938 9.464844 7.53125 11.539062 7.585938 C 11.71875 7.59375 11.71875 7.59375 11.8125 7.640625 C 11.8125 7.8125 11.8125 7.980469 11.8125 8.15625 C 9.792969 8.121094 7.726562 7.8125 5.90625 6.890625 C 5.871094 6.875 5.835938 6.859375 5.800781 6.84375 C 5.691406 6.789062 5.613281 6.746094 5.53125 6.65625 C 5.5 6.496094 5.507812 6.347656 5.53125 6.1875 Z M 5.53125 6.1875 "/>
<path style=" stroke:none;fill-rule:nonzero;fill:rgb(0%,0%,0%);fill-opacity:1;" d="M 5.53125 16.734375 C 5.707031 16.757812 5.847656 16.816406 6.003906 16.898438 C 7.792969 17.804688 9.839844 18.019531 11.8125 18.140625 C 11.8125 18.3125 11.8125 18.480469 11.8125 18.65625 C 11.34375 18.664062 10.886719 18.648438 10.417969 18.601562 C 10.386719 18.597656 10.355469 18.59375 10.324219 18.589844 C 8.632812 18.421875 7.035156 17.996094 5.53125 17.203125 C 5.53125 17.046875 5.53125 16.894531 5.53125 16.734375 Z M 5.53125 16.734375 "/>
<path style=" stroke:none;fill-rule:nonzero;fill:rgb(0%,0%,0%);fill-opacity:1;" d="M 14.15625 18.890625 C 14.15625 19.347656 14.15625 19.804688 14.160156 20.261719 C 14.160156 20.476562 14.160156 20.6875 14.160156 20.902344 C 14.160156 21.105469 14.160156 21.308594 14.160156 21.515625 C 14.160156 21.59375 14.160156 21.671875 14.160156 21.75 C 14.160156 21.859375 14.160156 21.96875 14.160156 22.078125 C 14.160156 22.109375 14.160156 22.144531 14.160156 22.175781 C 14.160156 22.402344 14.160156 22.402344 14.109375 22.453125 C 14.046875 22.464844 13.984375 22.472656 13.921875 22.480469 C 13.871094 22.484375 13.871094 22.484375 13.820312 22.492188 C 13.636719 22.503906 13.449219 22.5 13.265625 22.5 C 13.265625 21.324219 13.265625 20.148438 13.265625 18.9375 C 13.574219 18.910156 13.851562 18.886719 14.15625 18.890625 Z M 14.15625 18.890625 "/>
<path style=" stroke:none;fill-rule:nonzero;fill:rgb(0%,0%,0%);fill-opacity:1;" d="M 9.84375 18.890625 C 10.136719 18.90625 10.429688 18.921875 10.734375 18.9375 C 10.734375 20.113281 10.734375 21.289062 10.734375 22.5 C 10.3125 22.5 10.3125 22.5 9.84375 22.40625 C 9.84375 21.246094 9.84375 20.085938 9.84375 18.890625 Z M 9.84375 18.890625 "/>
<path style=" stroke:none;fill-rule:nonzero;fill:rgb(0%,0%,0%);fill-opacity:1;" d="M 12.1875 13.734375 C 12.433594 13.734375 12.683594 13.734375 12.9375 13.734375 C 12.9375 15.066406 12.9375 16.394531 12.9375 17.765625 C 12.691406 17.765625 12.441406 17.765625 12.1875 17.765625 C 12.1875 16.433594 12.1875 15.105469 12.1875 13.734375 Z M 12.1875 13.734375 "/>
<path style=" stroke:none;fill-rule:nonzero;fill:rgb(0%,0%,0%);fill-opacity:1;" d="M 11.0625 13.734375 C 11.308594 13.734375 11.558594 13.734375 11.8125 13.734375 C 11.8125 15.066406 11.8125 16.394531 11.8125 17.765625 C 11.566406 17.765625 11.316406 17.765625 11.0625 17.765625 C 11.0625 16.433594 11.0625 15.105469 11.0625 13.734375 Z M 11.0625 13.734375 "/>
<path style=" stroke:none;fill-rule:nonzero;fill:rgb(0%,0%,0%);fill-opacity:1;" d="M 16.546875 13.125 C 16.546875 14.457031 16.546875 15.785156 16.546875 17.15625 C 16.300781 17.21875 16.050781 17.28125 15.796875 17.34375 C 15.796875 16.011719 15.796875 14.683594 15.796875 13.3125 C 16.40625 13.125 16.40625 13.125 16.546875 13.125 Z M 16.546875 13.125 "/>
<path style=" stroke:none;fill-rule:nonzero;fill:rgb(0%,0%,0%);fill-opacity:1;" d="M 12.1875 8.484375 C 12.433594 8.484375 12.683594 8.484375 12.9375 8.484375 C 12.9375 9.816406 12.9375 11.144531 12.9375 12.515625 C 12.691406 12.515625 12.441406 12.515625 12.1875 12.515625 C 12.1875 11.183594 12.1875 9.855469 12.1875 8.484375 Z M 12.1875 8.484375 "/>
<path style=" stroke:none;fill-rule:nonzero;fill:rgb(0%,0%,0%);fill-opacity:1;" d="M 11.0625 8.484375 C 11.308594 8.484375 11.558594 8.484375 11.8125 8.484375 C 11.8125 9.816406 11.8125 11.144531 11.8125 12.515625 C 11.566406 12.515625 11.316406 12.515625 11.0625 12.515625 C 11.0625 11.183594 11.0625 9.855469 11.0625 8.484375 Z M 11.0625 8.484375 "/>
<path style=" stroke:none;fill-rule:nonzero;fill:rgb(0%,0%,0%);fill-opacity:1;" d="M 7.453125 13.125 C 7.921875 13.21875 7.921875 13.21875 8.203125 13.3125 C 8.203125 14.644531 8.203125 15.972656 8.203125 17.34375 C 7.957031 17.28125 7.707031 17.21875 7.453125 17.15625 C 7.453125 15.824219 7.453125 14.496094 7.453125 13.125 Z M 7.453125 13.125 "/>
<path style=" stroke:none;fill-rule:nonzero;fill:rgb(0%,0%,0%);fill-opacity:1;" d="M 16.546875 7.875 C 16.546875 9.191406 16.546875 10.503906 16.546875 11.859375 C 16.171875 12 16.171875 12 15.796875 12.09375 C 15.796875 10.761719 15.796875 9.433594 15.796875 8.0625 C 16.40625 7.875 16.40625 7.875 16.546875 7.875 Z M 16.546875 7.875 "/>
<path style=" stroke:none;fill-rule:nonzero;fill:rgb(0%,0%,0%);fill-opacity:1;" d="M 7.453125 7.875 C 7.527344 7.886719 7.597656 7.902344 7.671875 7.914062 C 7.730469 7.925781 7.730469 7.925781 7.792969 7.9375 C 7.929688 7.972656 8.066406 8.015625 8.203125 8.0625 C 8.203125 9.394531 8.203125 10.722656 8.203125 12.09375 C 7.5 11.90625 7.5 11.90625 7.453125 11.859375 C 7.449219 11.734375 7.445312 11.613281 7.449219 11.488281 C 7.449219 11.449219 7.449219 11.410156 7.449219 11.371094 C 7.449219 11.242188 7.449219 11.113281 7.449219 10.984375 C 7.449219 10.894531 7.449219 10.804688 7.449219 10.714844 C 7.449219 10.480469 7.449219 10.246094 7.449219 10.007812 C 7.449219 9.769531 7.449219 9.527344 7.449219 9.289062 C 7.453125 8.816406 7.453125 8.347656 7.453125 7.875 Z M 7.453125 7.875 "/>
<path style=" stroke:none;fill-rule:nonzero;fill:rgb(0%,0%,0%);fill-opacity:1;" d="M 17.578125 12.75 C 17.578125 14.082031 17.578125 15.410156 17.578125 16.78125 C 16.96875 17.015625 16.96875 17.015625 16.875 17.015625 C 16.875 15.683594 16.875 14.355469 16.875 12.984375 C 17.484375 12.75 17.484375 12.75 17.578125 12.75 Z M 17.578125 12.75 "/>
<path style=" stroke:none;fill-rule:nonzero;fill:rgb(0%,0%,0%);fill-opacity:1;" d="M 6.421875 12.75 C 6.496094 12.769531 6.570312 12.792969 6.640625 12.8125 C 6.683594 12.828125 6.722656 12.839844 6.765625 12.851562 C 6.886719 12.890625 7.007812 12.9375 7.125 12.984375 C 7.125 14.316406 7.125 15.644531 7.125 17.015625 C 6.53125 16.835938 6.53125 16.835938 6.421875 16.734375 C 6.398438 16.597656 6.390625 16.488281 6.394531 16.351562 C 6.394531 16.3125 6.394531 16.273438 6.394531 16.234375 C 6.394531 16.105469 6.398438 15.976562 6.398438 15.847656 C 6.398438 15.761719 6.398438 15.671875 6.398438 15.582031 C 6.402344 15.347656 6.402344 15.113281 6.40625 14.878906 C 6.40625 14.636719 6.410156 14.398438 6.410156 14.160156 C 6.414062 13.691406 6.417969 13.21875 6.421875 12.75 Z M 6.421875 12.75 "/>
<path style=" stroke:none;fill-rule:nonzero;fill:rgb(0%,0%,0%);fill-opacity:1;" d="M 17.578125 7.5 C 17.578125 8.816406 17.578125 10.128906 17.578125 11.484375 C 17.203125 11.671875 17.203125 11.671875 16.875 11.765625 C 16.875 10.433594 16.875 9.105469 16.875 7.734375 C 17.484375 7.5 17.484375 7.5 17.578125 7.5 Z M 17.578125 7.5 "/>
<path style=" stroke:none;fill-rule:nonzero;fill:rgb(0%,0%,0%);fill-opacity:1;" d="M 6.421875 7.5 C 6.496094 7.519531 6.570312 7.542969 6.640625 7.5625 C 6.683594 7.578125 6.722656 7.589844 6.765625 7.601562 C 6.886719 7.640625 7.007812 7.6875 7.125 7.734375 C 7.125 9.066406 7.125 10.394531 7.125 11.765625 C 6.46875 11.53125 6.46875 11.53125 6.421875 11.484375 C 6.417969 11.359375 6.414062 11.238281 6.417969 11.113281 C 6.417969 11.074219 6.417969 11.035156 6.417969 10.996094 C 6.417969 10.867188 6.417969 10.738281 6.417969 10.609375 C 6.417969 10.519531 6.417969 10.429688 6.417969 10.339844 C 6.417969 10.105469 6.417969 9.871094 6.417969 9.632812 C 6.417969 9.394531 6.417969 9.152344 6.417969 8.914062 C 6.421875 8.441406 6.421875 7.972656 6.421875 7.5 Z M 6.421875 7.5 "/>
<path style=" stroke:none;fill-rule:nonzero;fill:rgb(0%,0%,0%);fill-opacity:1;" d="M 12.1875 18.984375 C 12.433594 18.984375 12.683594 18.984375 12.9375 18.984375 C 12.9375 20.160156 12.9375 21.335938 12.9375 22.546875 C 12.691406 22.546875 12.441406 22.546875 12.1875 22.546875 C 12.1875 21.371094 12.1875 20.195312 12.1875 18.984375 Z M 12.1875 18.984375 "/>
<path style=" stroke:none;fill-rule:nonzero;fill:rgb(0%,0%,0%);fill-opacity:1;" d="M 11.0625 18.984375 C 11.308594 18.984375 11.558594 18.984375 11.8125 18.984375 C 11.8125 20.160156 11.8125 21.335938 11.8125 22.546875 C 11.566406 22.546875 11.316406 22.546875 11.0625 22.546875 C 11.0625 21.371094 11.0625 20.195312 11.0625 18.984375 Z M 11.0625 18.984375 "/>
<path style=" stroke:none;fill-rule:nonzero;fill:rgb(0%,0%,0%);fill-opacity:1;" d="M 16.546875 18.375 C 16.546875 19.519531 16.546875 20.664062 16.546875 21.84375 C 15.890625 22.078125 15.890625 22.078125 15.796875 22.078125 C 15.796875 20.917969 15.796875 19.757812 15.796875 18.5625 C 16.453125 18.375 16.453125 18.375 16.546875 18.375 Z M 16.546875 18.375 "/>
<path style=" stroke:none;fill-rule:nonzero;fill:rgb(0%,0%,0%);fill-opacity:1;" d="M 7.453125 18.375 C 7.699219 18.4375 7.949219 18.5 8.203125 18.5625 C 8.203125 19.722656 8.203125 20.882812 8.203125 22.078125 C 7.957031 22 7.707031 21.921875 7.453125 21.84375 C 7.453125 20.699219 7.453125 19.554688 7.453125 18.375 Z M 7.453125 18.375 "/>
<path style=" stroke:none;fill-rule:nonzero;fill:rgb(0%,0%,0%);fill-opacity:1;" d="M 15.421875 4.265625 C 15.421875 5.148438 15.421875 6.027344 15.421875 6.9375 C 14.71875 7.078125 14.71875 7.078125 14.484375 7.078125 C 14.484375 6.179688 14.484375 5.285156 14.484375 4.359375 C 14.621094 4.3125 14.730469 4.296875 14.875 4.285156 C 14.917969 4.28125 14.960938 4.277344 15.003906 4.273438 C 15.144531 4.265625 15.28125 4.265625 15.421875 4.265625 Z M 15.421875 4.265625 "/>
<path style=" stroke:none;fill-rule:nonzero;fill:rgb(0%,0%,0%);fill-opacity:1;" d="M 8.578125 4.265625 C 9.375 4.3125 9.375 4.3125 9.515625 4.359375 C 9.515625 5.257812 9.515625 6.152344 9.515625 7.078125 C 9.046875 7.03125 9.046875 7.03125 8.578125 6.9375 C 8.578125 6.054688 8.578125 5.175781 8.578125 4.265625 Z M 8.578125 4.265625 "/>
<path style=" stroke:none;fill-rule:nonzero;fill:rgb(0%,0%,0%);fill-opacity:1;" d="M 14.15625 4.359375 C 14.15625 5.273438 14.15625 6.183594 14.15625 7.125 C 13.890625 7.257812 13.5625 7.203125 13.265625 7.21875 C 13.265625 6.289062 13.265625 5.363281 13.265625 4.40625 C 13.921875 4.359375 13.921875 4.359375 14.15625 4.359375 Z M 14.15625 4.359375 "/>
<path style=" stroke:none;fill-rule:nonzero;fill:rgb(0%,0%,0%);fill-opacity:1;" d="M 9.84375 4.359375 C 10.136719 4.375 10.429688 4.390625 10.734375 4.40625 C 10.734375 5.335938 10.734375 6.261719 10.734375 7.21875 C 9.9375 7.171875 9.9375 7.171875 9.84375 7.125 C 9.84375 6.210938 9.84375 5.300781 9.84375 4.359375 Z M 9.84375 4.359375 "/>
<path style=" stroke:none;fill-rule:nonzero;fill:rgb(0%,0%,0%);fill-opacity:1;" d="M 17.578125 18 C 17.578125 19.097656 17.578125 20.195312 17.578125 21.328125 C 16.96875 21.65625 16.96875 21.65625 16.875 21.65625 C 16.875 20.527344 16.875 19.398438 16.875 18.234375 C 17.484375 18 17.484375 18 17.578125 18 Z M 17.578125 18 "/>
<path style=" stroke:none;fill-rule:nonzero;fill:rgb(0%,0%,0%);fill-opacity:1;" d="M 6.421875 18 C 6.65625 18.078125 6.890625 18.15625 7.125 18.234375 C 7.125 19.363281 7.125 20.492188 7.125 21.65625 C 6.84375 21.5625 6.84375 21.5625 6.421875 21.328125 C 6.421875 20.230469 6.421875 19.132812 6.421875 18 Z M 6.421875 18 "/>
<path style=" stroke:none;fill-rule:nonzero;fill:rgb(0%,0%,0%);fill-opacity:1;" d="M 18.46875 12.328125 C 18.46875 13.644531 18.46875 14.957031 18.46875 16.3125 C 18.046875 16.546875 18.046875 16.546875 17.90625 16.546875 C 17.90625 15.230469 17.90625 13.917969 17.90625 12.5625 C 18.375 12.328125 18.375 12.328125 18.46875 12.328125 Z M 18.46875 12.328125 "/>
<path style=" stroke:none;fill-rule:nonzero;fill:rgb(0%,0%,0%);fill-opacity:1;" d="M 5.53125 12.328125 C 5.8125 12.421875 5.8125 12.421875 6.09375 12.5625 C 6.09375 13.878906 6.09375 15.191406 6.09375 16.546875 C 5.859375 16.5 5.859375 16.5 5.53125 16.3125 C 5.53125 14.996094 5.53125 13.683594 5.53125 12.328125 Z M 5.53125 12.328125 "/>
<path style=" stroke:none;fill-rule:nonzero;fill:rgb(0%,0%,0%);fill-opacity:1;" d="M 18.46875 7.078125 C 18.46875 8.394531 18.46875 9.707031 18.46875 11.0625 C 18.046875 11.296875 18.046875 11.296875 17.90625 11.296875 C 17.90625 9.980469 17.90625 8.667969 17.90625 7.3125 C 18.375 7.078125 18.375 7.078125 18.46875 7.078125 Z M 18.46875 7.078125 "/>
<path style=" stroke:none;fill-rule:nonzero;fill:rgb(0%,0%,0%);fill-opacity:1;" d="M 5.53125 7.078125 C 5.8125 7.171875 5.8125 7.171875 6.09375 7.3125 C 6.09375 8.628906 6.09375 9.941406 6.09375 11.296875 C 5.859375 11.25 5.859375 11.25 5.53125 11.0625 C 5.53125 9.746094 5.53125 8.433594 5.53125 7.078125 Z M 5.53125 7.078125 "/>
<path style=" stroke:none;fill-rule:nonzero;fill:rgb(0%,0%,0%);fill-opacity:1;" d="M 12.9375 4.40625 C 12.9375 5.351562 12.9375 6.292969 12.9375 7.265625 C 12.691406 7.265625 12.441406 7.265625 12.1875 7.265625 C 12.1875 6.335938 12.1875 5.410156 12.1875 4.453125 C 12.703125 4.40625 12.703125 4.40625 12.9375 4.40625 Z M 12.9375 4.40625 "/>
<path style=" stroke:none;fill-rule:nonzero;fill:rgb(0%,0%,0%);fill-opacity:1;" d="M 11.0625 4.40625 C 11.308594 4.421875 11.558594 4.4375 11.8125 4.453125 C 11.8125 5.382812 11.8125 6.308594 11.8125 7.265625 C 11.566406 7.265625 11.316406 7.265625 11.0625 7.265625 C 11.0625 6.320312 11.0625 5.378906 11.0625 4.40625 Z M 11.0625 4.40625 "/>
<path style=" stroke:none;fill-rule:nonzero;fill:rgb(0%,0%,0%);fill-opacity:1;" d="M 16.546875 4.125 C 16.546875 4.945312 16.546875 5.765625 16.546875 6.609375 C 16.171875 6.75 16.171875 6.75 15.796875 6.84375 C 15.796875 5.976562 15.796875 5.109375 15.796875 4.21875 C 16.265625 4.125 16.265625 4.125 16.546875 4.125 Z M 16.546875 4.125 "/>
<path style=" stroke:none;fill-rule:nonzero;fill:rgb(0%,0%,0%);fill-opacity:1;" d="M 7.453125 4.125 C 7.550781 4.132812 7.652344 4.136719 7.75 4.144531 C 7.804688 4.148438 7.859375 4.152344 7.914062 4.15625 C 8.0625 4.171875 8.0625 4.171875 8.203125 4.21875 C 8.203125 5.085938 8.203125 5.953125 8.203125 6.84375 C 7.5 6.65625 7.5 6.65625 7.453125 6.609375 C 7.449219 6.53125 7.449219 6.453125 7.449219 6.375 C 7.449219 6.328125 7.449219 6.277344 7.449219 6.226562 C 7.449219 6.171875 7.449219 6.117188 7.449219 6.0625 C 7.449219 6.007812 7.449219 5.953125 7.449219 5.894531 C 7.449219 5.71875 7.449219 5.539062 7.449219 5.363281 C 7.449219 5.246094 7.449219 5.125 7.449219 5.003906 C 7.453125 4.710938 7.453125 4.417969 7.453125 4.125 Z M 7.453125 4.125 "/>
<path style=" stroke:none;fill-rule:nonzero;fill:rgb(0%,0%,0%);fill-opacity:1;" d="M 5.53125 17.578125 C 5.71875 17.652344 5.90625 17.730469 6.09375 17.8125 C 6.09375 18.878906 6.09375 19.945312 6.09375 21.046875 C 5.867188 20.933594 5.679688 20.835938 5.53125 20.625 C 5.480469 20.390625 5.488281 20.164062 5.496094 19.925781 C 5.496094 19.859375 5.496094 19.789062 5.496094 19.722656 C 5.496094 19.546875 5.5 19.367188 5.503906 19.191406 C 5.507812 19.007812 5.511719 18.828125 5.511719 18.644531 C 5.515625 18.289062 5.523438 17.933594 5.53125 17.578125 Z M 5.53125 17.578125 "/>
<path style=" stroke:none;fill-rule:nonzero;fill:rgb(0%,0%,0%);fill-opacity:1;" d="M 18.46875 17.578125 C 18.480469 17.96875 18.488281 18.359375 18.492188 18.75 C 18.496094 18.929688 18.5 19.109375 18.503906 19.292969 C 18.507812 19.464844 18.511719 19.640625 18.511719 19.816406 C 18.515625 19.882812 18.515625 19.949219 18.519531 20.015625 C 18.539062 20.535156 18.539062 20.535156 18.363281 20.761719 C 18.058594 21.046875 18.058594 21.046875 17.90625 21.046875 C 17.894531 20.636719 17.886719 20.226562 17.882812 19.816406 C 17.878906 19.625 17.875 19.433594 17.871094 19.242188 C 17.867188 19.058594 17.863281 18.875 17.863281 18.691406 C 17.859375 18.621094 17.859375 18.550781 17.855469 18.480469 C 17.847656 18.265625 17.847656 18.066406 17.90625 17.859375 C 18.058594 17.703125 18.246094 17.578125 18.46875 17.578125 Z M 18.46875 17.578125 "/>
<path style=" stroke:none;fill-rule:nonzero;fill:rgb(0%,0%,0%);fill-opacity:1;" d="M 17.578125 3.890625 C 17.578125 4.664062 17.578125 5.4375 17.578125 6.234375 C 17.0625 6.46875 17.0625 6.46875 16.875 6.46875 C 16.875 5.664062 16.875 4.859375 16.875 4.03125 C 17.53125 3.890625 17.53125 3.890625 17.578125 3.890625 Z M 17.578125 3.890625 "/>
<path style=" stroke:none;fill-rule:nonzero;fill:rgb(0%,0%,0%);fill-opacity:1;" d="M 6.421875 3.890625 C 6.652344 3.9375 6.886719 3.984375 7.125 4.03125 C 7.125 4.835938 7.125 5.640625 7.125 6.46875 C 6.84375 6.421875 6.84375 6.421875 6.421875 6.234375 C 6.421875 5.460938 6.421875 4.6875 6.421875 3.890625 Z M 6.421875 3.890625 "/>
<path style=" stroke:none;fill-rule:nonzero;fill:rgb(0%,0%,0%);fill-opacity:1;" d="M 18.46875 3.65625 C 18.46875 4.367188 18.46875 5.078125 18.46875 5.8125 C 18.046875 6.046875 18.046875 6.046875 17.90625 6.046875 C 17.90625 5.304688 17.90625 4.5625 17.90625 3.796875 C 18.328125 3.65625 18.328125 3.65625 18.46875 3.65625 Z M 18.46875 3.65625 "/>
<path style=" stroke:none;fill-rule:nonzero;fill:rgb(0%,0%,0%);fill-opacity:1;" d="M 5.53125 3.65625 C 5.953125 3.75 5.953125 3.75 6.09375 3.796875 C 6.09375 4.539062 6.09375 5.28125 6.09375 6.046875 C 5.859375 6 5.859375 6 5.53125 5.8125 C 5.53125 5.101562 5.53125 4.390625 5.53125 3.65625 Z M 5.53125 3.65625 "/>
</g>
</svg>
