<?xml version="1.0" encoding="UTF-8"?>
<svg xmlns="http://www.w3.org/2000/svg" xmlns:xlink="http://www.w3.org/1999/xlink" width="24px" height="24px" viewBox="0 0 24 24" version="1.1">
<g id="surface1">
<path style=" stroke:none;fill-rule:nonzero;fill:rgb(0%,0%,0%);fill-opacity:1;" d="M 5.765625 0.1875 C 6.105469 0.433594 6.316406 0.691406 6.46875 1.078125 C 6.496094 1.058594 6.523438 1.039062 6.550781 1.023438 C 7.027344 0.691406 7.457031 0.53125 8.042969 0.628906 C 8.53125 0.753906 8.847656 1.023438 9.105469 1.445312 C 9.242188 1.695312 9.335938 1.957031 9.429688 2.226562 C 9.449219 2.285156 9.472656 2.347656 9.492188 2.40625 C 9.550781 2.5625 9.605469 2.722656 9.660156 2.882812 C 9.714844 3.039062 9.769531 3.195312 9.828125 3.351562 C 9.847656 3.414062 9.871094 3.476562 9.894531 3.535156 C 9.902344 3.566406 9.914062 3.597656 9.925781 3.628906 C 9.957031 3.722656 9.992188 3.8125 10.023438 3.90625 C 10.238281 4.511719 10.460938 5.117188 10.6875 5.71875 C 10.6875 5.671875 10.6875 5.671875 10.6875 5.621094 C 10.691406 5.3125 10.695312 5.003906 10.699219 4.699219 C 10.703125 4.539062 10.707031 4.382812 10.707031 4.222656 C 10.710938 4.042969 10.710938 3.859375 10.714844 3.675781 C 10.714844 3.621094 10.714844 3.566406 10.714844 3.507812 C 10.726562 2.917969 10.800781 2.425781 11.210938 1.980469 C 11.589844 1.625 12.019531 1.53125 12.523438 1.535156 C 12.75 1.550781 12.917969 1.601562 13.125 1.6875 C 13.132812 1.628906 13.132812 1.628906 13.136719 1.570312 C 13.199219 1.085938 13.320312 0.691406 13.6875 0.351562 C 14.144531 0.0078125 14.628906 -0.046875 15.1875 0 C 15.351562 0.0390625 15.472656 0.09375 15.609375 0.1875 C 15.644531 0.210938 15.679688 0.234375 15.71875 0.257812 C 16.160156 0.566406 16.324219 0.945312 16.417969 1.460938 C 16.429688 1.535156 16.441406 1.613281 16.453125 1.6875 C 16.507812 1.664062 16.566406 1.640625 16.625 1.617188 C 17.042969 1.480469 17.496094 1.488281 17.894531 1.675781 C 18.363281 1.9375 18.644531 2.292969 18.796875 2.8125 C 18.816406 2.945312 18.816406 3.074219 18.816406 3.210938 C 18.816406 3.25 18.816406 3.285156 18.816406 3.324219 C 18.816406 3.453125 18.816406 3.578125 18.816406 3.707031 C 18.816406 3.796875 18.816406 3.890625 18.820312 3.980469 C 18.820312 4.230469 18.820312 4.476562 18.820312 4.726562 C 18.820312 4.984375 18.824219 5.242188 18.824219 5.503906 C 18.824219 5.992188 18.828125 6.484375 18.828125 6.972656 C 18.828125 7.53125 18.832031 8.089844 18.832031 8.648438 C 18.835938 9.796875 18.839844 10.945312 18.84375 12.09375 C 18.882812 12.050781 18.925781 12.011719 18.964844 11.96875 C 19.117188 11.816406 19.269531 11.660156 19.421875 11.507812 C 19.488281 11.441406 19.550781 11.375 19.617188 11.308594 C 19.710938 11.214844 19.804688 11.117188 19.902344 11.023438 C 19.929688 10.992188 19.957031 10.964844 19.988281 10.933594 C 20.457031 10.460938 20.96875 10.199219 21.636719 10.171875 C 22.195312 10.175781 22.714844 10.398438 23.121094 10.78125 C 23.273438 10.953125 23.382812 11.140625 23.484375 11.34375 C 23.5 11.375 23.515625 11.402344 23.53125 11.433594 C 23.746094 11.917969 23.710938 12.492188 23.527344 12.976562 C 23.273438 13.546875 22.8125 13.945312 22.363281 14.359375 C 21.964844 14.726562 21.589844 15.113281 21.210938 15.496094 C 20.773438 15.933594 20.773438 15.933594 20.582031 16.097656 C 20.269531 16.363281 19.988281 16.664062 19.699219 16.957031 C 19.578125 17.078125 19.457031 17.203125 19.332031 17.324219 C 19.292969 17.367188 19.292969 17.367188 19.25 17.410156 C 19.222656 17.4375 19.199219 17.460938 19.171875 17.488281 C 19.148438 17.515625 19.121094 17.539062 19.097656 17.5625 C 19.03125 17.625 19.03125 17.625 18.921875 17.6875 C 18.789062 17.824219 18.8125 18.003906 18.8125 18.179688 C 18.8125 18.222656 18.8125 18.261719 18.808594 18.304688 C 18.808594 18.390625 18.808594 18.476562 18.808594 18.5625 C 18.808594 18.695312 18.804688 18.828125 18.800781 18.960938 C 18.800781 19.042969 18.800781 19.128906 18.800781 19.210938 C 18.796875 19.273438 18.796875 19.273438 18.796875 19.332031 C 18.796875 19.445312 18.804688 19.53125 18.84375 19.640625 C 18.933594 19.722656 19.019531 19.773438 19.125 19.824219 C 19.34375 19.941406 19.472656 20.15625 19.566406 20.378906 C 19.628906 20.605469 19.617188 20.839844 19.617188 21.074219 C 19.617188 21.128906 19.617188 21.1875 19.617188 21.246094 C 19.617188 21.367188 19.617188 21.484375 19.617188 21.605469 C 19.617188 21.785156 19.617188 21.96875 19.621094 22.152344 C 19.621094 22.269531 19.621094 22.382812 19.621094 22.5 C 19.621094 22.554688 19.625 22.609375 19.625 22.664062 C 19.621094 23.050781 19.546875 23.375 19.277344 23.667969 C 19 23.929688 18.703125 24.019531 18.324219 24.019531 C 18.289062 24.019531 18.25 24.019531 18.214844 24.019531 C 18.089844 24.019531 17.96875 24.019531 17.84375 24.019531 C 17.757812 24.019531 17.667969 24.019531 17.582031 24.019531 C 17.34375 24.023438 17.105469 24.023438 16.863281 24.023438 C 16.664062 24.023438 16.464844 24.023438 16.265625 24.023438 C 15.796875 24.023438 15.324219 24.023438 14.855469 24.023438 C 14.367188 24.023438 13.882812 24.023438 13.398438 24.027344 C 12.980469 24.027344 12.5625 24.027344 12.144531 24.027344 C 11.898438 24.027344 11.648438 24.027344 11.398438 24.027344 C 11.164062 24.03125 10.929688 24.03125 10.695312 24.027344 C 10.613281 24.027344 10.527344 24.027344 10.441406 24.03125 C 9.636719 24.035156 9.636719 24.035156 9.328125 23.765625 C 9.234375 23.65625 9.234375 23.65625 9.1875 23.578125 C 9.136719 23.597656 9.136719 23.597656 9.089844 23.617188 C 8.9375 23.675781 8.789062 23.730469 8.636719 23.789062 C 8.585938 23.808594 8.535156 23.828125 8.480469 23.851562 C 8.136719 23.980469 7.824219 24.046875 7.453125 24 C 7.152344 23.855469 6.988281 23.625 6.878906 23.316406 C 6.859375 23.265625 6.839844 23.214844 6.820312 23.160156 C 6.800781 23.105469 6.78125 23.050781 6.761719 22.996094 C 6.742188 22.941406 6.722656 22.882812 6.699219 22.824219 C 6.648438 22.675781 6.59375 22.523438 6.539062 22.375 C 6.484375 22.222656 6.429688 22.070312 6.375 21.917969 C 5.898438 20.589844 5.898438 20.589844 6.050781 20.226562 C 6.105469 20.132812 6.160156 20.046875 6.234375 19.96875 C 6.265625 19.96875 6.296875 19.96875 6.328125 19.96875 C 6.222656 19.765625 6.105469 19.59375 5.960938 19.417969 C 5.761719 19.179688 5.574219 18.933594 5.394531 18.6875 C 5.207031 18.433594 5.023438 18.179688 4.832031 17.933594 C 4.773438 17.859375 4.71875 17.785156 4.660156 17.710938 C 4.613281 17.648438 4.5625 17.585938 4.515625 17.523438 C 4.011719 16.871094 3.519531 16.21875 3.203125 15.457031 C 3.1875 15.417969 3.171875 15.382812 3.15625 15.34375 C 2.933594 14.804688 2.742188 14.253906 2.546875 13.703125 C 2.457031 13.449219 2.363281 13.195312 2.273438 12.941406 C 2.238281 12.84375 2.203125 12.746094 2.167969 12.652344 C 1.957031 12.0625 1.742188 11.472656 1.527344 10.886719 C 1.492188 10.792969 1.457031 10.699219 1.421875 10.609375 C 1.273438 10.199219 1.121094 9.789062 0.96875 9.382812 C 0.90625 9.203125 0.839844 9.027344 0.773438 8.847656 C 0.742188 8.765625 0.710938 8.683594 0.679688 8.601562 C 0.417969 7.894531 0.167969 7.222656 0.5 6.488281 C 0.730469 6.074219 1.054688 5.824219 1.5 5.671875 C 1.980469 5.582031 1.980469 5.582031 2.15625 5.671875 C 2.140625 5.636719 2.128906 5.601562 2.113281 5.5625 C 2.0625 5.429688 2.011719 5.292969 1.960938 5.15625 C 1.929688 5.070312 1.894531 4.984375 1.863281 4.898438 C 1.648438 4.332031 1.476562 3.789062 1.71875 3.203125 C 1.949219 2.742188 2.230469 2.511719 2.691406 2.289062 C 2.84375 2.242188 2.972656 2.242188 3.132812 2.242188 C 3.214844 2.246094 3.214844 2.246094 3.296875 2.246094 C 3.339844 2.246094 3.378906 2.25 3.421875 2.25 C 3.40625 2.210938 3.390625 2.171875 3.375 2.132812 C 3.261719 1.734375 3.269531 1.234375 3.449219 0.859375 C 3.691406 0.46875 4.003906 0.167969 4.441406 0.0195312 C 4.882812 -0.0585938 5.382812 -0.0546875 5.765625 0.1875 Z M 4.296875 1.15625 C 4.148438 1.363281 4.152344 1.527344 4.171875 1.78125 C 4.203125 1.921875 4.25 2.054688 4.300781 2.191406 C 4.316406 2.230469 4.328125 2.269531 4.34375 2.308594 C 4.390625 2.4375 4.4375 2.566406 4.484375 2.695312 C 4.519531 2.789062 4.550781 2.882812 4.585938 2.972656 C 4.695312 3.28125 4.808594 3.585938 4.921875 3.890625 C 4.960938 4 5 4.105469 5.042969 4.214844 C 5.226562 4.71875 5.414062 5.222656 5.597656 5.726562 C 5.835938 6.375 6.074219 7.019531 6.308594 7.667969 C 6.34375 7.765625 6.378906 7.859375 6.414062 7.957031 C 6.464844 8.085938 6.511719 8.21875 6.558594 8.351562 C 6.578125 8.40625 6.578125 8.40625 6.601562 8.464844 C 6.773438 8.949219 6.773438 8.949219 6.71875 9.175781 C 6.644531 9.300781 6.609375 9.335938 6.46875 9.375 C 6.179688 9.359375 6.179688 9.359375 6.066406 9.269531 C 5.988281 9.171875 5.953125 9.085938 5.910156 8.972656 C 5.894531 8.925781 5.878906 8.882812 5.859375 8.835938 C 5.84375 8.789062 5.824219 8.738281 5.808594 8.691406 C 5.777344 8.613281 5.777344 8.613281 5.75 8.535156 C 5.699219 8.394531 5.648438 8.25 5.59375 8.109375 C 5.550781 7.992188 5.507812 7.875 5.464844 7.753906 C 5.230469 7.109375 4.996094 6.460938 4.765625 5.816406 C 4.730469 5.714844 4.695312 5.617188 4.660156 5.519531 C 4.636719 5.453125 4.613281 5.386719 4.589844 5.324219 C 4.578125 5.292969 4.566406 5.261719 4.554688 5.226562 C 4.488281 5.039062 4.421875 4.851562 4.355469 4.660156 C 4.324219 4.570312 4.289062 4.484375 4.257812 4.394531 C 4.21875 4.285156 4.179688 4.175781 4.144531 4.066406 C 3.957031 3.527344 3.957031 3.527344 3.5625 3.140625 C 3.347656 3.070312 3.125 3.050781 2.90625 3.125 C 2.703125 3.230469 2.585938 3.359375 2.484375 3.5625 C 2.402344 3.875 2.488281 4.101562 2.59375 4.398438 C 2.609375 4.445312 2.628906 4.496094 2.644531 4.546875 C 2.699219 4.703125 2.757812 4.859375 2.8125 5.015625 C 2.832031 5.066406 2.847656 5.113281 2.867188 5.164062 C 2.976562 5.46875 3.085938 5.769531 3.199219 6.070312 C 3.308594 6.359375 3.414062 6.644531 3.519531 6.933594 C 3.53125 6.964844 3.542969 6.996094 3.554688 7.023438 C 3.8125 7.726562 4.066406 8.429688 4.320312 9.132812 C 4.371094 9.265625 4.417969 9.398438 4.46875 9.53125 C 4.523438 9.691406 4.582031 9.847656 4.636719 10.003906 C 4.667969 10.089844 4.699219 10.175781 4.730469 10.261719 C 4.960938 10.902344 4.960938 10.902344 4.878906 11.148438 C 4.753906 11.277344 4.667969 11.285156 4.496094 11.296875 C 4.300781 11.296875 4.300781 11.296875 4.21875 11.25 C 4.183594 11.15625 4.15625 11.0625 4.125 10.96875 C 4.09375 10.882812 4.0625 10.796875 4.03125 10.714844 C 4.015625 10.664062 3.996094 10.617188 3.976562 10.566406 C 3.949219 10.488281 3.949219 10.488281 3.917969 10.40625 C 3.898438 10.351562 3.878906 10.296875 3.855469 10.238281 C 3.757812 9.96875 3.65625 9.699219 3.558594 9.429688 C 3.5 9.277344 3.445312 9.125 3.390625 8.972656 C 3.378906 8.945312 3.367188 8.914062 3.355469 8.882812 C 3.226562 8.527344 3.097656 8.171875 2.96875 7.816406 C 2.945312 7.75 2.921875 7.6875 2.898438 7.621094 C 2.859375 7.507812 2.816406 7.394531 2.777344 7.28125 C 2.671875 6.980469 2.574219 6.734375 2.300781 6.546875 C 2.046875 6.453125 1.847656 6.460938 1.59375 6.5625 C 1.378906 6.699219 1.277344 6.832031 1.1875 7.0625 C 1.132812 7.433594 1.292969 7.785156 1.417969 8.128906 C 1.441406 8.183594 1.460938 8.242188 1.480469 8.300781 C 1.539062 8.453125 1.59375 8.609375 1.648438 8.761719 C 1.707031 8.921875 1.765625 9.082031 1.824219 9.242188 C 1.953125 9.597656 2.085938 9.957031 2.214844 10.3125 C 2.269531 10.460938 2.324219 10.605469 2.375 10.753906 C 2.707031 11.65625 3.035156 12.554688 3.375 13.453125 C 3.4375 13.441406 3.496094 13.433594 3.558594 13.421875 C 4.847656 13.214844 6.128906 13.324219 7.234375 14.070312 C 7.773438 14.460938 8.167969 14.917969 8.53125 15.46875 C 8.558594 15.511719 8.589844 15.554688 8.617188 15.597656 C 9.089844 16.355469 9.378906 17.222656 9.675781 18.0625 C 9.695312 18.121094 9.71875 18.175781 9.738281 18.238281 C 9.757812 18.289062 9.773438 18.339844 9.792969 18.394531 C 9.835938 18.519531 9.835938 18.519531 9.9375 18.609375 C 10.289062 18.480469 10.644531 18.355469 10.996094 18.226562 C 11.160156 18.167969 11.324219 18.109375 11.492188 18.050781 C 12.304688 17.757812 13.113281 17.460938 13.921875 17.15625 C 13.855469 16.964844 13.789062 16.769531 13.722656 16.578125 C 13.703125 16.523438 13.6875 16.472656 13.667969 16.417969 C 13.648438 16.363281 13.628906 16.308594 13.609375 16.253906 C 13.582031 16.175781 13.582031 16.175781 13.554688 16.09375 C 13.519531 15.992188 13.480469 15.894531 13.441406 15.796875 C 13.425781 15.75 13.40625 15.707031 13.390625 15.664062 C 13.375 15.625 13.359375 15.585938 13.339844 15.546875 C 13.269531 15.230469 13.378906 14.964844 13.515625 14.6875 C 13.539062 14.636719 13.539062 14.636719 13.566406 14.585938 C 13.617188 14.476562 13.671875 14.371094 13.722656 14.261719 C 13.757812 14.1875 13.796875 14.109375 13.832031 14.035156 C 13.90625 13.878906 13.980469 13.726562 14.054688 13.574219 C 14.195312 13.28125 14.332031 12.984375 14.46875 12.6875 C 14.519531 12.578125 14.566406 12.472656 14.617188 12.367188 C 14.640625 12.316406 14.664062 12.265625 14.691406 12.210938 C 14.8125 11.945312 14.933594 11.683594 15.058594 11.421875 C 15.277344 10.949219 15.5 10.472656 15.71875 10 C 15.75 9.929688 15.75 9.929688 15.785156 9.855469 C 15.804688 9.8125 15.824219 9.769531 15.84375 9.726562 C 15.859375 9.6875 15.878906 9.652344 15.894531 9.613281 C 16.023438 9.316406 16.035156 8.96875 15.957031 8.652344 C 15.816406 8.34375 15.546875 8.105469 15.238281 7.972656 C 14.902344 7.867188 14.625 7.898438 14.308594 8.046875 C 14.039062 8.210938 13.894531 8.359375 13.757812 8.644531 C 13.742188 8.675781 13.726562 8.707031 13.714844 8.738281 C 13.65625 8.855469 13.601562 8.976562 13.546875 9.09375 C 13.503906 9.179688 13.464844 9.269531 13.421875 9.355469 C 13.289062 9.640625 13.15625 9.921875 13.027344 10.203125 C 12.988281 10.285156 12.988281 10.285156 12.949219 10.367188 C 12.886719 10.5 12.886719 10.5 12.84375 10.640625 C 12.757812 10.691406 12.757812 10.691406 12.65625 10.734375 C 12.628906 10.75 12.597656 10.765625 12.570312 10.78125 C 12.339844 10.886719 12.078125 10.855469 11.84375 10.773438 C 11.511719 10.542969 11.410156 10.246094 11.28125 9.878906 C 11.253906 9.800781 11.253906 9.800781 11.222656 9.71875 C 11.171875 9.574219 11.121094 9.429688 11.070312 9.285156 C 11.015625 9.132812 10.960938 8.980469 10.910156 8.828125 C 10.886719 8.769531 10.863281 8.707031 10.839844 8.644531 C 10.824219 8.597656 10.824219 8.597656 10.808594 8.546875 C 10.773438 8.453125 10.738281 8.355469 10.707031 8.261719 C 10.492188 7.660156 10.269531 7.0625 10.050781 6.464844 C 9.761719 5.6875 9.476562 4.910156 9.199219 4.132812 C 9.085938 3.816406 8.972656 3.503906 8.859375 3.1875 C 8.847656 3.152344 8.835938 3.121094 8.824219 3.085938 C 8.753906 2.890625 8.679688 2.691406 8.609375 2.496094 C 8.578125 2.410156 8.546875 2.324219 8.515625 2.238281 C 8.386719 1.898438 8.285156 1.707031 7.976562 1.507812 C 7.777344 1.433594 7.613281 1.410156 7.414062 1.488281 C 7.179688 1.609375 7.023438 1.761719 6.9375 2.015625 C 6.894531 2.386719 6.988281 2.6875 7.117188 3.03125 C 7.136719 3.082031 7.15625 3.136719 7.175781 3.191406 C 7.230469 3.332031 7.28125 3.476562 7.335938 3.617188 C 7.390625 3.765625 7.445312 3.917969 7.5 4.066406 C 7.59375 4.316406 7.6875 4.566406 7.777344 4.816406 C 7.921875 5.203125 8.0625 5.585938 8.203125 5.972656 C 8.25 6.09375 8.296875 6.21875 8.339844 6.34375 C 8.355469 6.386719 8.355469 6.386719 8.375 6.433594 C 8.507812 6.796875 8.640625 7.160156 8.777344 7.519531 C 8.792969 7.566406 8.808594 7.609375 8.828125 7.65625 C 8.839844 7.695312 8.855469 7.734375 8.871094 7.773438 C 8.953125 8.007812 9.007812 8.21875 8.902344 8.453125 C 8.765625 8.570312 8.660156 8.574219 8.484375 8.578125 C 8.34375 8.515625 8.269531 8.46875 8.191406 8.335938 C 8.175781 8.292969 8.160156 8.253906 8.144531 8.214844 C 8.121094 8.144531 8.121094 8.144531 8.09375 8.074219 C 8.070312 8 8.070312 8 8.042969 7.921875 C 8.023438 7.867188 8.003906 7.816406 7.984375 7.761719 C 7.929688 7.617188 7.878906 7.472656 7.828125 7.328125 C 7.773438 7.175781 7.71875 7.027344 7.664062 6.875 C 7.5625 6.59375 7.460938 6.316406 7.363281 6.035156 C 7.253906 5.738281 7.148438 5.441406 7.042969 5.144531 C 7.007812 5.042969 6.972656 4.945312 6.933594 4.847656 C 6.917969 4.800781 6.902344 4.753906 6.882812 4.703125 C 6.816406 4.515625 6.746094 4.324219 6.679688 4.132812 C 6.644531 4.039062 6.609375 3.945312 6.578125 3.851562 C 6.488281 3.605469 6.398438 3.359375 6.3125 3.117188 C 6.222656 2.863281 6.132812 2.613281 6.039062 2.359375 C 6.007812 2.265625 5.972656 2.171875 5.9375 2.078125 C 5.890625 1.945312 5.84375 1.816406 5.796875 1.6875 C 5.777344 1.628906 5.777344 1.628906 5.757812 1.570312 C 5.652344 1.292969 5.511719 1.035156 5.25 0.882812 C 4.875 0.722656 4.550781 0.867188 4.296875 1.15625 Z M 14.140625 1.15625 C 14.027344 1.316406 14.011719 1.398438 14.011719 1.59375 C 14.011719 1.644531 14.011719 1.695312 14.011719 1.746094 C 14.011719 1.800781 14.011719 1.855469 14.011719 1.914062 C 14.011719 1.96875 14.011719 2.027344 14.011719 2.085938 C 14.011719 2.246094 14.011719 2.402344 14.011719 2.5625 C 14.011719 2.726562 14.011719 2.890625 14.011719 3.058594 C 14.011719 3.371094 14.011719 3.683594 14.011719 3.996094 C 14.011719 4.351562 14.011719 4.710938 14.011719 5.066406 C 14.015625 5.800781 14.015625 6.53125 14.015625 7.265625 C 14.058594 7.253906 14.097656 7.246094 14.140625 7.234375 C 14.195312 7.222656 14.25 7.210938 14.304688 7.195312 C 14.359375 7.183594 14.414062 7.171875 14.46875 7.15625 C 14.769531 7.09375 15.039062 7.109375 15.34375 7.171875 C 15.382812 7.179688 15.425781 7.191406 15.46875 7.199219 C 15.515625 7.207031 15.515625 7.207031 15.5625 7.21875 C 15.566406 6.472656 15.570312 5.726562 15.570312 4.984375 C 15.574219 4.636719 15.574219 4.289062 15.578125 3.945312 C 15.578125 3.644531 15.578125 3.339844 15.582031 3.039062 C 15.582031 2.878906 15.582031 2.71875 15.582031 2.558594 C 15.582031 2.382812 15.582031 2.203125 15.582031 2.023438 C 15.585938 1.972656 15.585938 1.917969 15.585938 1.867188 C 15.585938 1.5625 15.554688 1.328125 15.375 1.078125 C 15.144531 0.859375 14.953125 0.828125 14.648438 0.832031 C 14.417969 0.855469 14.289062 0.984375 14.140625 1.15625 Z M 11.777344 2.660156 C 11.566406 2.964844 11.5625 3.265625 11.558594 3.625 C 11.558594 3.671875 11.554688 3.71875 11.554688 3.769531 C 11.546875 4.269531 11.542969 4.773438 11.539062 5.277344 C 11.535156 5.511719 11.53125 5.75 11.527344 5.984375 C 11.496094 7.429688 11.542969 8.667969 12.1875 9.984375 C 12.316406 9.816406 12.40625 9.640625 12.492188 9.449219 C 12.503906 9.414062 12.519531 9.382812 12.535156 9.347656 C 12.585938 9.238281 12.632812 9.132812 12.679688 9.027344 C 12.726562 8.917969 12.773438 8.8125 12.824219 8.707031 C 12.851562 8.640625 12.882812 8.574219 12.910156 8.507812 C 12.96875 8.378906 13.019531 8.261719 13.105469 8.152344 C 13.203125 7.953125 13.191406 7.769531 13.191406 7.546875 C 13.191406 7.5 13.191406 7.453125 13.191406 7.40625 C 13.191406 7.25 13.191406 7.097656 13.191406 6.941406 C 13.191406 6.832031 13.191406 6.726562 13.191406 6.617188 C 13.191406 6.390625 13.191406 6.164062 13.191406 5.9375 C 13.1875 5.648438 13.191406 5.359375 13.191406 5.070312 C 13.191406 4.847656 13.191406 4.625 13.191406 4.402344 C 13.191406 4.292969 13.191406 4.1875 13.191406 4.082031 C 13.191406 3.929688 13.191406 3.78125 13.191406 3.632812 C 13.191406 3.589844 13.191406 3.542969 13.191406 3.5 C 13.1875 3.1875 13.152344 2.871094 12.949219 2.617188 C 12.921875 2.597656 12.894531 2.574219 12.867188 2.554688 C 12.839844 2.53125 12.8125 2.511719 12.785156 2.488281 C 12.429688 2.265625 12.050781 2.386719 11.777344 2.660156 Z M 16.605469 2.664062 C 16.402344 2.945312 16.390625 3.167969 16.390625 3.503906 C 16.390625 3.550781 16.390625 3.597656 16.390625 3.644531 C 16.386719 3.792969 16.386719 3.945312 16.386719 4.097656 C 16.386719 4.203125 16.386719 4.308594 16.386719 4.414062 C 16.382812 4.636719 16.382812 4.859375 16.382812 5.078125 C 16.382812 5.363281 16.382812 5.644531 16.378906 5.925781 C 16.375 6.144531 16.375 6.363281 16.375 6.582031 C 16.375 6.6875 16.375 6.792969 16.375 6.894531 C 16.355469 7.667969 16.355469 7.667969 16.6875 8.34375 C 16.914062 8.847656 16.84375 9.433594 16.652344 9.9375 C 16.550781 10.179688 16.433594 10.414062 16.320312 10.648438 C 16.28125 10.722656 16.246094 10.796875 16.210938 10.871094 C 16.136719 11.019531 16.066406 11.171875 15.992188 11.320312 C 15.851562 11.613281 15.710938 11.914062 15.574219 12.210938 C 15.523438 12.316406 15.476562 12.421875 15.425781 12.527344 C 15.402344 12.578125 15.378906 12.632812 15.355469 12.683594 C 15.253906 12.90625 15.152344 13.125 15.046875 13.34375 C 14.996094 13.453125 14.945312 13.566406 14.894531 13.675781 C 14.773438 13.941406 14.644531 14.207031 14.515625 14.472656 C 14.476562 14.546875 14.476562 14.546875 14.4375 14.625 C 14.394531 14.71875 14.34375 14.8125 14.296875 14.90625 C 14.191406 15.125 14.132812 15.273438 14.203125 15.507812 C 14.234375 15.589844 14.265625 15.671875 14.296875 15.75 C 14.324219 15.847656 14.355469 15.945312 14.382812 16.046875 C 14.523438 16.601562 14.523438 16.601562 14.867188 17.027344 C 15.023438 17.070312 15.023438 17.070312 15.183594 17.089844 C 15.425781 17.125 15.550781 17.253906 15.703125 17.4375 C 15.933594 17.847656 16.074219 18.3125 16.230469 18.757812 C 16.269531 18.863281 16.304688 18.96875 16.34375 19.074219 C 16.367188 19.140625 16.390625 19.207031 16.414062 19.273438 C 16.460938 19.421875 16.460938 19.421875 16.546875 19.546875 C 16.652344 19.550781 16.753906 19.550781 16.859375 19.550781 C 16.890625 19.550781 16.921875 19.550781 16.953125 19.550781 C 17.054688 19.550781 17.152344 19.550781 17.253906 19.550781 C 17.320312 19.550781 17.386719 19.550781 17.457031 19.550781 C 17.621094 19.546875 17.789062 19.546875 17.953125 19.546875 C 17.953125 19.507812 17.953125 19.507812 17.953125 19.46875 C 17.953125 19.203125 17.953125 18.933594 17.957031 18.667969 C 17.957031 18.566406 17.957031 18.464844 17.957031 18.367188 C 17.953125 18.222656 17.957031 18.078125 17.957031 17.9375 C 17.957031 17.890625 17.957031 17.847656 17.957031 17.800781 C 17.960938 17.503906 18.03125 17.351562 18.242188 17.140625 C 18.355469 17.039062 18.472656 16.9375 18.589844 16.835938 C 18.738281 16.703125 18.882812 16.558594 19.023438 16.417969 C 19.054688 16.386719 19.082031 16.359375 19.113281 16.328125 C 19.203125 16.238281 19.292969 16.144531 19.382812 16.054688 C 20.050781 15.378906 20.050781 15.378906 20.335938 15.136719 C 20.609375 14.894531 20.859375 14.628906 21.117188 14.367188 C 21.835938 13.640625 21.835938 13.640625 22.171875 13.359375 C 22.488281 13.078125 22.742188 12.796875 22.800781 12.363281 C 22.816406 11.960938 22.742188 11.703125 22.484375 11.402344 C 22.183594 11.144531 21.902344 11 21.5 11.019531 C 21.050781 11.097656 20.71875 11.414062 20.417969 11.730469 C 20.386719 11.761719 20.355469 11.792969 20.324219 11.828125 C 20.226562 11.925781 20.128906 12.027344 20.03125 12.125 C 19.902344 12.257812 19.773438 12.390625 19.644531 12.523438 C 19.613281 12.550781 19.585938 12.582031 19.554688 12.613281 C 19.367188 12.804688 19.1875 12.960938 18.910156 13.003906 C 18.667969 13 18.488281 12.988281 18.28125 12.84375 C 18.023438 12.578125 17.984375 12.296875 17.988281 11.941406 C 17.988281 11.902344 17.988281 11.863281 17.988281 11.824219 C 17.988281 11.695312 17.988281 11.570312 17.988281 11.441406 C 17.988281 11.347656 17.988281 11.257812 17.988281 11.164062 C 17.988281 10.96875 17.988281 10.769531 17.988281 10.570312 C 17.988281 10.257812 17.988281 9.945312 17.984375 9.632812 C 17.984375 8.746094 17.984375 7.855469 17.980469 6.96875 C 17.980469 6.476562 17.980469 5.984375 17.980469 5.496094 C 17.980469 5.183594 17.976562 4.875 17.980469 4.5625 C 17.980469 4.371094 17.976562 4.175781 17.976562 3.984375 C 17.976562 3.894531 17.976562 3.804688 17.976562 3.714844 C 17.976562 3.589844 17.976562 3.46875 17.976562 3.347656 C 17.976562 3.3125 17.976562 3.277344 17.976562 3.238281 C 17.972656 2.980469 17.910156 2.835938 17.765625 2.625 C 17.554688 2.429688 17.398438 2.375 17.113281 2.378906 C 16.886719 2.402344 16.757812 2.507812 16.605469 2.664062 Z M 3.703125 14.25 C 3.855469 15.292969 4.582031 16.191406 5.207031 16.992188 C 5.332031 17.15625 5.457031 17.320312 5.578125 17.484375 C 5.828125 17.816406 6.078125 18.148438 6.332031 18.476562 C 6.613281 18.847656 6.894531 19.21875 7.171875 19.59375 C 7.546875 19.488281 7.910156 19.359375 8.273438 19.226562 C 8.371094 19.191406 8.46875 19.15625 8.566406 19.121094 C 8.628906 19.101562 8.6875 19.078125 8.75 19.054688 C 8.808594 19.035156 8.863281 19.015625 8.917969 18.992188 C 9.050781 18.949219 9.050781 18.949219 9.09375 18.84375 C 9.0625 18.722656 9.0625 18.722656 9.011719 18.585938 C 8.992188 18.53125 8.972656 18.480469 8.953125 18.421875 C 8.921875 18.335938 8.921875 18.335938 8.890625 18.25 C 8.882812 18.21875 8.871094 18.191406 8.859375 18.160156 C 8.5 17.164062 8.121094 16.128906 7.40625 15.328125 C 7.355469 15.269531 7.355469 15.269531 7.304688 15.210938 C 6.613281 14.464844 5.714844 14.183594 4.722656 14.101562 C 4.414062 14.089844 3.984375 14.109375 3.703125 14.25 Z M 14.28125 17.890625 C 14.242188 17.90625 14.203125 17.917969 14.164062 17.933594 C 14.03125 17.980469 13.902344 18.027344 13.769531 18.078125 C 13.675781 18.109375 13.582031 18.144531 13.488281 18.179688 C 12.640625 18.484375 11.796875 18.796875 10.949219 19.109375 C 10.320312 19.34375 9.6875 19.574219 9.054688 19.800781 C 8.984375 19.824219 8.914062 19.847656 8.84375 19.875 C 8.539062 19.984375 8.230469 20.09375 7.921875 20.203125 C 7.796875 20.246094 7.671875 20.292969 7.546875 20.335938 C 7.460938 20.367188 7.371094 20.398438 7.285156 20.429688 C 7.207031 20.457031 7.207031 20.457031 7.128906 20.484375 C 7.082031 20.5 7.039062 20.515625 6.992188 20.53125 C 6.882812 20.570312 6.882812 20.570312 6.84375 20.671875 C 6.863281 20.765625 6.863281 20.765625 6.90625 20.871094 C 6.917969 20.910156 6.933594 20.953125 6.949219 20.996094 C 6.964844 21.039062 6.980469 21.082031 7 21.128906 C 7.015625 21.175781 7.03125 21.222656 7.046875 21.269531 C 7.101562 21.414062 7.152344 21.5625 7.207031 21.710938 C 7.242188 21.808594 7.277344 21.90625 7.3125 22.003906 C 7.449219 22.386719 7.589844 22.773438 7.734375 23.15625 C 7.902344 23.125 8.054688 23.082031 8.214844 23.023438 C 8.265625 23.007812 8.3125 22.988281 8.363281 22.972656 C 8.414062 22.953125 8.46875 22.933594 8.523438 22.914062 C 8.578125 22.894531 8.636719 22.875 8.691406 22.851562 C 8.84375 22.796875 8.996094 22.742188 9.152344 22.6875 C 9.246094 22.652344 9.34375 22.617188 9.4375 22.582031 C 10.476562 22.207031 11.511719 21.828125 12.542969 21.445312 C 13.066406 21.253906 13.59375 21.058594 14.117188 20.871094 C 14.214844 20.835938 14.3125 20.800781 14.410156 20.769531 C 14.589844 20.703125 14.769531 20.640625 14.949219 20.578125 C 15.027344 20.546875 15.109375 20.519531 15.1875 20.492188 C 15.222656 20.480469 15.257812 20.46875 15.296875 20.453125 C 15.484375 20.386719 15.636719 20.328125 15.75 20.15625 C 15.785156 19.882812 15.707031 19.664062 15.613281 19.414062 C 15.597656 19.375 15.585938 19.335938 15.570312 19.296875 C 15.539062 19.21875 15.511719 19.136719 15.480469 19.054688 C 15.433594 18.933594 15.386719 18.808594 15.34375 18.683594 C 15.3125 18.605469 15.285156 18.527344 15.253906 18.449219 C 15.242188 18.410156 15.230469 18.375 15.214844 18.335938 C 15.136719 18.136719 15.0625 17.964844 14.90625 17.8125 C 14.6875 17.714844 14.492188 17.8125 14.28125 17.890625 Z M 16.363281 20.621094 C 16.339844 20.667969 16.339844 20.667969 16.3125 20.71875 C 16.199219 20.941406 15.984375 21.066406 15.75 21.140625 C 15.75 21.15625 15.75 21.171875 15.75 21.1875 C 15.800781 21.1875 15.847656 21.1875 15.898438 21.1875 C 16.085938 21.191406 16.269531 21.195312 16.453125 21.195312 C 16.53125 21.199219 16.613281 21.199219 16.691406 21.199219 C 16.808594 21.203125 16.921875 21.203125 17.035156 21.207031 C 17.089844 21.207031 17.089844 21.207031 17.144531 21.207031 C 17.402344 21.214844 17.554688 21.273438 17.765625 21.421875 C 17.957031 21.671875 17.980469 21.875 17.972656 22.183594 C 17.972656 22.222656 17.972656 22.257812 17.976562 22.296875 C 17.972656 22.570312 17.972656 22.570312 17.890625 22.671875 C 17.761719 22.773438 17.644531 22.777344 17.484375 22.78125 C 17.359375 22.730469 17.359375 22.730469 17.25 22.640625 C 17.207031 22.492188 17.207031 22.492188 17.1875 22.328125 C 17.179688 22.246094 17.179688 22.246094 17.167969 22.160156 C 17.164062 22.117188 17.160156 22.074219 17.15625 22.03125 C 14.816406 21.910156 12.84375 21.941406 10.699219 22.96875 C 10.585938 23.019531 10.472656 23.066406 10.359375 23.109375 C 10.359375 23.125 10.359375 23.140625 10.359375 23.15625 C 11.425781 23.160156 12.492188 23.164062 13.558594 23.164062 C 14.054688 23.167969 14.546875 23.167969 15.042969 23.171875 C 15.476562 23.171875 15.90625 23.171875 16.339844 23.175781 C 16.566406 23.175781 16.796875 23.175781 17.023438 23.175781 C 17.238281 23.175781 17.453125 23.179688 17.667969 23.175781 C 17.746094 23.175781 17.828125 23.179688 17.90625 23.179688 C 18.011719 23.179688 18.121094 23.179688 18.230469 23.179688 C 18.289062 23.179688 18.347656 23.179688 18.410156 23.179688 C 18.589844 23.152344 18.644531 23.109375 18.75 22.96875 C 18.777344 22.855469 18.777344 22.855469 18.773438 22.734375 C 18.773438 22.664062 18.773438 22.664062 18.777344 22.59375 C 18.777344 22.546875 18.773438 22.496094 18.773438 22.445312 C 18.773438 22.394531 18.773438 22.339844 18.777344 22.289062 C 18.777344 22.179688 18.773438 22.070312 18.773438 21.964844 C 18.773438 21.796875 18.773438 21.632812 18.777344 21.464844 C 18.777344 21.359375 18.773438 21.253906 18.773438 21.148438 C 18.773438 21.101562 18.777344 21.050781 18.777344 21 C 18.773438 20.738281 18.773438 20.738281 18.683594 20.5 C 18.492188 20.402344 18.3125 20.40625 18.101562 20.40625 C 18.035156 20.40625 18.035156 20.40625 17.964844 20.402344 C 17.871094 20.402344 17.773438 20.402344 17.679688 20.402344 C 17.535156 20.402344 17.390625 20.398438 17.246094 20.394531 C 17.152344 20.394531 17.058594 20.394531 16.96875 20.394531 C 16.925781 20.394531 16.878906 20.390625 16.835938 20.390625 C 16.601562 20.394531 16.488281 20.410156 16.363281 20.621094 Z M 16.363281 20.621094 "/>
<path style=" stroke:none;fill-rule:nonzero;fill:rgb(0%,0%,0%);fill-opacity:1;" d="M 14.453125 18.945312 C 14.742188 19.148438 14.878906 19.441406 14.953125 19.78125 C 14.949219 19.96875 14.933594 20.066406 14.832031 20.222656 C 14.699219 20.308594 14.59375 20.328125 14.4375 20.316406 C 14.273438 20.28125 14.207031 20.191406 14.109375 20.0625 C 14.058594 19.953125 14.015625 19.84375 13.96875 19.734375 C 13.632812 19.855469 13.296875 19.976562 12.960938 20.097656 C 12.835938 20.144531 12.714844 20.1875 12.59375 20.230469 C 11.921875 20.472656 11.25 20.71875 10.582031 20.96875 C 10.488281 21 10.394531 21.035156 10.304688 21.070312 C 10.242188 21.09375 10.183594 21.117188 10.121094 21.136719 C 10.09375 21.148438 10.0625 21.160156 10.03125 21.171875 C 9.828125 21.246094 9.625 21.324219 9.421875 21.398438 C 9.316406 21.4375 9.210938 21.476562 9.105469 21.519531 C 9.054688 21.535156 9.007812 21.554688 8.957031 21.574219 C 8.332031 21.804688 8.332031 21.804688 8.070312 21.695312 C 7.960938 21.601562 7.914062 21.558594 7.875 21.421875 C 7.878906 21.257812 7.878906 21.257812 7.921875 21.09375 C 8.089844 20.933594 8.257812 20.855469 8.472656 20.777344 C 8.503906 20.765625 8.535156 20.753906 8.570312 20.742188 C 8.675781 20.703125 8.785156 20.667969 8.890625 20.628906 C 8.96875 20.601562 9.046875 20.570312 9.121094 20.542969 C 9.34375 20.464844 9.566406 20.382812 9.785156 20.304688 C 10.125 20.183594 10.464844 20.058594 10.804688 19.9375 C 10.867188 19.914062 10.925781 19.890625 10.988281 19.871094 C 11.015625 19.859375 11.046875 19.847656 11.078125 19.835938 C 11.28125 19.761719 11.488281 19.6875 11.691406 19.617188 C 12.246094 19.417969 12.792969 19.214844 13.339844 19.003906 C 13.378906 18.988281 13.414062 18.976562 13.453125 18.960938 C 13.484375 18.949219 13.515625 18.9375 13.550781 18.921875 C 13.855469 18.8125 14.160156 18.773438 14.453125 18.945312 Z M 14.453125 18.945312 "/>
</g>
</svg>
