<?xml version="1.0" encoding="UTF-8"?>
<svg xmlns="http://www.w3.org/2000/svg" xmlns:xlink="http://www.w3.org/1999/xlink" width="24px" height="24px" viewBox="0 0 24 24" version="1.1">
<g id="surface1">
<path style=" stroke:none;fill-rule:nonzero;fill:rgb(0%,0%,0%);fill-opacity:1;" d="M 9.804688 0.0507812 C 9.585938 0.117188 9.296875 0.425781 9.230469 0.664062 C 9.121094 1.082031 9.285156 1.519531 9.640625 1.738281 L 9.820312 1.851562 L 14.179688 1.851562 L 14.359375 1.738281 C 14.457031 1.679688 14.59375 1.542969 14.664062 1.4375 C 14.769531 1.28125 14.789062 1.195312 14.789062 0.9375 C 14.789062 0.679688 14.769531 0.59375 14.664062 0.4375 C 14.59375 0.332031 14.457031 0.195312 14.359375 0.136719 L 14.179688 0.0234375 L 12.070312 0.015625 C 10.820312 0.0078125 9.898438 0.0234375 9.804688 0.0507812 Z M 9.804688 0.0507812 "/>
<path style=" stroke:none;fill-rule:nonzero;fill:rgb(0%,0%,0%);fill-opacity:1;" d="M 9.3125 3.824219 C 7.476562 4.164062 6.019531 5.527344 5.574219 7.335938 C 5.320312 8.359375 5.445312 9.535156 5.910156 10.476562 C 5.992188 10.632812 6.445312 11.441406 6.929688 12.28125 C 7.71875 13.660156 7.835938 13.835938 8.15625 14.15625 C 8.78125 14.785156 9.367188 15 10.4375 15 L 11.0625 15 L 11.0625 15.617188 C 11.0625 15.984375 11.089844 16.378906 11.132812 16.570312 C 11.3125 17.410156 11.835938 18.066406 12.6875 18.511719 C 13.246094 18.800781 13.484375 19.03125 13.703125 19.492188 C 13.835938 19.777344 13.851562 19.847656 13.851562 20.253906 C 13.851562 20.675781 13.84375 20.71875 13.679688 21.054688 C 13.46875 21.484375 13.195312 21.746094 12.757812 21.953125 C 12.472656 22.085938 12.402344 22.101562 12 22.101562 C 11.597656 22.101562 11.527344 22.085938 11.242188 21.953125 C 10.578125 21.640625 10.214844 21.101562 10.125 20.328125 C 10.074219 19.847656 9.976562 19.648438 9.6875 19.460938 C 9.53125 19.359375 9.445312 19.335938 9.191406 19.335938 C 8.820312 19.335938 8.59375 19.453125 8.398438 19.75 C 8.28125 19.921875 8.273438 19.976562 8.277344 20.386719 C 8.28125 21.570312 8.921875 22.707031 9.976562 23.394531 C 10.601562 23.808594 11.183594 23.976562 12 23.976562 C 12.816406 23.976562 13.398438 23.808594 14.023438 23.394531 C 15.484375 22.4375 16.097656 20.671875 15.539062 19.027344 C 15.214844 18.078125 14.574219 17.359375 13.601562 16.855469 C 13.214844 16.660156 13.171875 16.621094 13.058594 16.398438 C 12.945312 16.175781 12.9375 16.101562 12.9375 15.578125 L 12.9375 15 L 13.5625 15 C 15.007812 15 15.773438 14.535156 16.542969 13.195312 C 16.734375 12.859375 17.160156 12.121094 17.484375 11.554688 C 17.8125 10.988281 18.132812 10.386719 18.203125 10.21875 C 18.617188 9.210938 18.664062 7.988281 18.324219 6.96875 C 17.8125 5.445312 16.570312 4.304688 14.976562 3.875 C 14.621094 3.78125 14.480469 3.777344 12.140625 3.769531 C 10.167969 3.757812 9.609375 3.769531 9.3125 3.824219 Z M 14.550781 5.71875 C 15.078125 5.855469 15.441406 6.0625 15.84375 6.46875 C 16.25 6.871094 16.457031 7.234375 16.59375 7.761719 C 16.710938 8.222656 16.710938 8.652344 16.597656 9.101562 C 16.484375 9.542969 16.421875 9.664062 15.40625 11.414062 C 14.71875 12.605469 14.558594 12.84375 14.394531 12.960938 L 14.195312 13.101562 L 9.804688 13.101562 L 9.605469 12.960938 C 9.4375 12.839844 9.285156 12.609375 8.59375 11.414062 C 7.574219 9.660156 7.515625 9.539062 7.402344 9.101562 C 7.238281 8.453125 7.328125 7.730469 7.648438 7.109375 C 7.847656 6.730469 8.417969 6.160156 8.796875 5.960938 C 9.40625 5.644531 9.519531 5.628906 11.980469 5.628906 C 14.03125 5.625 14.210938 5.628906 14.550781 5.71875 Z M 14.550781 5.71875 "/>
<path style=" stroke:none;fill-rule:nonzero;fill:rgb(0%,0%,0%);fill-opacity:1;" d="M 11.679688 7.550781 C 11.457031 7.617188 11.171875 7.925781 11.105469 8.164062 C 10.996094 8.582031 11.160156 9.019531 11.515625 9.238281 C 11.785156 9.40625 12.238281 9.398438 12.5 9.226562 C 12.792969 9.03125 12.914062 8.804688 12.914062 8.4375 C 12.914062 8.078125 12.792969 7.84375 12.515625 7.660156 C 12.3125 7.523438 11.929688 7.476562 11.679688 7.550781 Z M 11.679688 7.550781 "/>
</g>
</svg>
