<?xml version="1.0" encoding="UTF-8"?>
<svg xmlns="http://www.w3.org/2000/svg" xmlns:xlink="http://www.w3.org/1999/xlink" width="24px" height="24px" viewBox="0 0 24 24" version="1.1">
<g id="surface1">
<path style=" stroke:none;fill-rule:nonzero;fill:rgb(0%,0%,0%);fill-opacity:1;" d="M 10.234375 5.0625 C 5.25 5.363281 1.246094 7.046875 0.164062 9.304688 L -0.00390625 9.652344 L 0.0078125 11.820312 L 0.0234375 13.992188 L 0.148438 14.335938 C 1.003906 16.667969 4.433594 18.375 9.375 18.921875 C 10.484375 19.046875 13.566406 19.046875 14.648438 18.921875 C 17.703125 18.570312 20.09375 17.832031 21.84375 16.683594 C 22.425781 16.296875 23.257812 15.476562 23.527344 15.015625 C 23.640625 14.828125 23.785156 14.523438 23.851562 14.335938 L 23.976562 13.992188 L 23.976562 12.132812 C 23.976562 10.316406 23.972656 10.269531 23.878906 10.140625 C 23.828125 10.070312 23.710938 9.960938 23.621094 9.898438 C 23.507812 9.820312 23.4375 9.71875 23.363281 9.515625 C 23.011719 8.539062 22.027344 7.589844 20.617188 6.84375 C 18.921875 5.953125 16.730469 5.375 14.105469 5.132812 C 13.164062 5.042969 11.132812 5.007812 10.234375 5.0625 Z M 14.4375 6.605469 C 17.632812 7 20.148438 7.929688 21.375 9.183594 C 21.824219 9.640625 22.003906 9.976562 22.023438 10.429688 C 22.046875 10.855469 21.921875 11.1875 21.585938 11.609375 C 20.515625 12.96875 17.839844 14 14.273438 14.421875 C 13.378906 14.527344 9.964844 14.546875 9.070312 14.445312 C 5.464844 14.058594 2.675781 12.921875 1.695312 11.453125 C 1.527344 11.195312 1.523438 11.175781 1.496094 10.621094 C 1.46875 10.09375 1.472656 10.039062 1.570312 9.839844 C 2.113281 8.765625 3.910156 7.714844 6.257812 7.101562 C 7.269531 6.835938 8.554688 6.625 9.796875 6.519531 C 10.070312 6.496094 11.046875 6.484375 11.976562 6.492188 C 13.3125 6.507812 13.824219 6.53125 14.4375 6.605469 Z M 22.425781 13.773438 C 21.992188 15.273438 19.433594 16.640625 15.976562 17.226562 C 14.785156 17.429688 14.011719 17.488281 12.484375 17.515625 C 10.554688 17.550781 9.132812 17.441406 7.597656 17.152344 C 4.175781 16.496094 1.710938 15.054688 1.519531 13.597656 L 1.484375 13.355469 L 1.925781 13.664062 C 2.414062 14.011719 3.617188 14.625 4.320312 14.878906 C 5.679688 15.378906 7.238281 15.71875 9.070312 15.917969 C 9.976562 16.015625 12.542969 16.058594 13.507812 15.988281 C 17.039062 15.730469 19.925781 14.851562 21.746094 13.476562 C 21.992188 13.289062 22.261719 13.070312 22.335938 12.984375 L 22.476562 12.839844 L 22.492188 13.171875 C 22.5 13.382812 22.476562 13.609375 22.425781 13.773438 Z M 22.425781 13.773438 "/>
<path style=" stroke:none;fill-rule:nonzero;fill:rgb(0%,0%,0%);fill-opacity:1;" d="M 10.148438 7.246094 C 10.046875 7.257812 9.699219 7.289062 9.375 7.316406 C 4.640625 7.730469 2.054688 9.351562 2.960938 11.328125 C 3.109375 11.648438 3.734375 12.257812 4.175781 12.507812 C 5.96875 13.515625 9.296875 14.058594 12.820312 13.917969 C 15.929688 13.796875 18.34375 13.21875 19.726562 12.265625 C 20.15625 11.972656 20.410156 11.6875 20.597656 11.296875 C 20.726562 11.023438 20.742188 10.945312 20.742188 10.570312 C 20.742188 10.1875 20.726562 10.117188 20.585938 9.835938 C 19.984375 8.601562 17.960938 7.757812 14.648438 7.355469 C 14.007812 7.28125 13.515625 7.257812 12.09375 7.242188 C 11.128906 7.238281 10.25 7.238281 10.148438 7.246094 Z M 14.390625 8.832031 C 16.644531 9.117188 18.390625 9.65625 19.070312 10.28125 C 19.3125 10.507812 19.320312 10.625 19.101562 10.871094 C 18.695312 11.320312 17.335938 11.832031 15.796875 12.113281 C 12.554688 12.707031 8.335938 12.488281 5.859375 11.597656 C 5.058594 11.3125 4.367188 10.890625 4.289062 10.640625 C 4.21875 10.425781 4.65625 10.035156 5.273438 9.753906 C 6.210938 9.324219 7.773438 8.96875 9.398438 8.8125 C 9.683594 8.789062 10 8.757812 10.101562 8.746094 C 10.613281 8.699219 13.835938 8.761719 14.390625 8.832031 Z M 14.390625 8.832031 "/>
</g>
</svg>
