<?xml version="1.0" encoding="UTF-8"?>
<svg xmlns="http://www.w3.org/2000/svg" xmlns:xlink="http://www.w3.org/1999/xlink" width="24px" height="24px" viewBox="0 0 24 24" version="1.1">
<g id="surface1">
<path style=" stroke:none;fill-rule:nonzero;fill:rgb(0%,0%,0%);fill-opacity:1;" d="M 13.171875 0.5625 C 13.292969 0.621094 13.292969 0.621094 13.417969 0.691406 C 13.464844 0.71875 13.511719 0.746094 13.5625 0.777344 C 13.609375 0.804688 13.660156 0.835938 13.714844 0.867188 C 13.769531 0.898438 13.820312 0.929688 13.875 0.960938 C 13.988281 1.027344 14.101562 1.097656 14.21875 1.164062 C 14.386719 1.261719 14.554688 1.363281 14.726562 1.460938 C 14.953125 1.59375 15.179688 1.726562 15.40625 1.859375 C 15.632812 1.992188 15.863281 2.128906 16.089844 2.261719 C 16.117188 2.277344 16.144531 2.292969 16.175781 2.3125 C 16.261719 2.363281 16.34375 2.410156 16.429688 2.460938 C 16.742188 2.644531 17.054688 2.828125 17.367188 3.011719 C 17.511719 3.09375 17.65625 3.179688 17.796875 3.265625 C 17.824219 3.28125 17.855469 3.296875 17.882812 3.3125 C 18.28125 3.546875 18.683594 3.78125 19.085938 4.011719 C 19.496094 4.25 19.910156 4.488281 20.320312 4.734375 C 20.734375 4.980469 21.152344 5.226562 21.570312 5.464844 C 21.621094 5.496094 21.671875 5.523438 21.722656 5.554688 C 21.925781 5.671875 22.128906 5.785156 22.328125 5.902344 C 22.484375 5.992188 22.640625 6.082031 22.792969 6.167969 C 22.839844 6.195312 22.886719 6.222656 22.933594 6.25 C 22.976562 6.277344 23.019531 6.300781 23.066406 6.328125 C 23.105469 6.347656 23.140625 6.371094 23.179688 6.394531 C 23.484375 6.59375 23.484375 6.59375 23.578125 6.703125 C 23.605469 6.84375 23.617188 6.949219 23.617188 7.089844 C 23.617188 7.128906 23.617188 7.167969 23.617188 7.207031 C 23.621094 7.335938 23.621094 7.46875 23.621094 7.597656 C 23.621094 7.691406 23.621094 7.785156 23.621094 7.875 C 23.625 8.128906 23.625 8.382812 23.625 8.636719 C 23.628906 8.792969 23.628906 8.953125 23.628906 9.109375 C 23.632812 9.664062 23.632812 10.214844 23.632812 10.765625 C 23.632812 11.28125 23.636719 11.792969 23.640625 12.308594 C 23.644531 12.75 23.648438 13.191406 23.648438 13.632812 C 23.648438 13.898438 23.648438 14.160156 23.652344 14.425781 C 23.652344 14.671875 23.65625 14.921875 23.652344 15.167969 C 23.652344 15.257812 23.652344 15.351562 23.65625 15.441406 C 23.664062 16 23.664062 16 23.578125 16.21875 C 23.394531 16.40625 23.210938 16.492188 22.96875 16.59375 C 22.867188 16.652344 22.769531 16.710938 22.667969 16.769531 C 22.410156 16.917969 22.152344 17.066406 21.894531 17.214844 C 21.765625 17.289062 21.640625 17.363281 21.511719 17.4375 C 21.445312 17.476562 21.378906 17.511719 21.3125 17.550781 C 21.269531 17.578125 21.269531 17.578125 21.226562 17.605469 C 21.0625 17.699219 20.953125 17.738281 20.765625 17.71875 C 20.644531 17.664062 20.644531 17.664062 20.515625 17.585938 C 20.46875 17.558594 20.421875 17.527344 20.371094 17.5 C 20.324219 17.46875 20.273438 17.4375 20.222656 17.40625 C 20.03125 17.292969 19.835938 17.175781 19.640625 17.0625 C 19.589844 17.03125 19.542969 17 19.492188 16.96875 C 19.445312 16.941406 19.394531 16.914062 19.347656 16.886719 C 19.304688 16.859375 19.261719 16.835938 19.21875 16.808594 C 19.058594 16.777344 19.015625 16.792969 18.875 16.863281 C 18.765625 16.941406 18.714844 16.984375 18.671875 17.113281 C 18.65625 17.234375 18.660156 17.351562 18.664062 17.472656 C 18.664062 17.515625 18.664062 17.5625 18.664062 17.605469 C 18.664062 17.746094 18.664062 17.886719 18.667969 18.027344 C 18.667969 18.167969 18.671875 18.308594 18.671875 18.445312 C 18.671875 18.535156 18.671875 18.621094 18.675781 18.707031 C 18.675781 19 18.675781 19 18.578125 19.144531 C 18.460938 19.222656 18.347656 19.296875 18.222656 19.367188 C 18.175781 19.394531 18.125 19.421875 18.074219 19.453125 C 18.023438 19.480469 17.972656 19.511719 17.917969 19.539062 C 17.835938 19.585938 17.753906 19.632812 17.671875 19.679688 C 17.617188 19.710938 17.558594 19.746094 17.503906 19.777344 C 17.308594 19.886719 17.117188 20 16.925781 20.113281 C 16.875 20.140625 16.824219 20.171875 16.773438 20.203125 C 16.675781 20.261719 16.578125 20.320312 16.480469 20.375 C 16.4375 20.402344 16.390625 20.429688 16.347656 20.453125 C 16.308594 20.476562 16.269531 20.5 16.230469 20.523438 C 16.128906 20.574219 16.050781 20.609375 15.9375 20.625 C 15.820312 20.582031 15.71875 20.53125 15.609375 20.476562 C 15.578125 20.460938 15.546875 20.441406 15.511719 20.425781 C 15.316406 20.324219 15.125 20.214844 14.9375 20.097656 C 14.894531 20.074219 14.855469 20.046875 14.8125 20.019531 C 14.730469 19.96875 14.648438 19.917969 14.566406 19.863281 C 14.527344 19.839844 14.492188 19.816406 14.453125 19.792969 C 14.417969 19.769531 14.386719 19.75 14.351562 19.726562 C 14.21875 19.675781 14.148438 19.695312 14.015625 19.734375 C 13.9375 19.78125 13.859375 19.828125 13.78125 19.875 C 13.75 19.875 13.71875 19.875 13.6875 19.875 C 13.6875 19.9375 13.691406 19.996094 13.691406 20.0625 C 13.695312 20.289062 13.695312 20.519531 13.699219 20.746094 C 13.699219 20.84375 13.699219 20.945312 13.703125 21.042969 C 13.703125 21.183594 13.703125 21.324219 13.707031 21.46875 C 13.707031 21.511719 13.707031 21.554688 13.707031 21.601562 C 13.707031 21.90625 13.707031 21.90625 13.601562 22.054688 C 13.429688 22.171875 13.429688 22.171875 13.335938 22.222656 C 13.304688 22.238281 13.273438 22.257812 13.242188 22.273438 C 13.207031 22.292969 13.171875 22.3125 13.136719 22.328125 C 12.726562 22.550781 12.328125 22.785156 11.925781 23.019531 C 11.835938 23.074219 11.746094 23.125 11.65625 23.175781 C 11.574219 23.222656 11.496094 23.273438 11.414062 23.324219 C 11.378906 23.34375 11.339844 23.367188 11.304688 23.390625 C 11.273438 23.410156 11.242188 23.429688 11.210938 23.449219 C 11.03125 23.511719 10.878906 23.460938 10.710938 23.382812 C 10.675781 23.359375 10.636719 23.335938 10.597656 23.3125 C 10.554688 23.289062 10.511719 23.261719 10.464844 23.234375 C 10.417969 23.207031 10.371094 23.179688 10.324219 23.148438 C 10.222656 23.089844 10.121094 23.03125 10.019531 22.96875 C 9.96875 22.9375 9.914062 22.90625 9.863281 22.875 C 9.605469 22.722656 9.351562 22.578125 9.09375 22.429688 C 8.65625 22.175781 8.21875 21.921875 7.78125 21.667969 C 7.4375 21.46875 7.09375 21.269531 6.75 21.070312 C 6.3125 20.816406 5.875 20.5625 5.4375 20.308594 C 5.09375 20.109375 4.75 19.910156 4.40625 19.710938 C 3.96875 19.457031 3.53125 19.207031 3.097656 18.949219 C 2.800781 18.777344 2.503906 18.605469 2.207031 18.433594 C 1.773438 18.1875 1.339844 17.933594 0.910156 17.679688 C 0.851562 17.640625 0.851562 17.640625 0.792969 17.605469 C 0.523438 17.445312 0.523438 17.445312 0.46875 17.390625 C 0.460938 17.265625 0.460938 17.144531 0.460938 17.019531 C 0.457031 16.960938 0.457031 16.960938 0.457031 16.902344 C 0.457031 16.769531 0.453125 16.636719 0.453125 16.503906 C 0.453125 16.410156 0.453125 16.316406 0.449219 16.222656 C 0.441406 15.355469 0.4375 14.492188 0.433594 13.628906 C 0.429688 12.988281 0.425781 12.351562 0.417969 11.710938 C 0.414062 11.261719 0.410156 10.816406 0.410156 10.367188 C 0.410156 10.097656 0.40625 9.828125 0.402344 9.5625 C 0.398438 9.308594 0.398438 9.054688 0.398438 8.804688 C 0.398438 8.710938 0.398438 8.617188 0.394531 8.527344 C 0.382812 7.957031 0.382812 7.957031 0.46875 7.734375 C 0.652344 7.542969 0.832031 7.460938 1.078125 7.359375 C 1.171875 7.304688 1.269531 7.25 1.363281 7.195312 C 1.457031 7.136719 1.554688 7.082031 1.648438 7.027344 C 1.730469 6.984375 1.808594 6.9375 1.886719 6.890625 C 1.96875 6.84375 2.050781 6.796875 2.132812 6.75 C 2.394531 6.601562 2.652344 6.453125 2.914062 6.300781 C 2.988281 6.257812 2.988281 6.257812 3.066406 6.214844 C 3.589844 5.910156 4.117188 5.605469 4.640625 5.296875 C 5.269531 4.929688 5.898438 4.5625 6.527344 4.199219 C 6.867188 4.003906 7.207031 3.808594 7.546875 3.609375 C 7.988281 3.351562 8.429688 3.097656 8.871094 2.839844 C 9.210938 2.644531 9.550781 2.449219 9.890625 2.25 C 10.332031 1.992188 10.773438 1.738281 11.214844 1.484375 C 11.628906 1.246094 12.039062 1.003906 12.449219 0.765625 C 12.496094 0.738281 12.539062 0.710938 12.585938 0.6875 C 12.625 0.664062 12.664062 0.640625 12.703125 0.617188 C 12.886719 0.511719 12.960938 0.515625 13.171875 0.5625 Z M 12.78125 1.132812 C 12.726562 1.167969 12.671875 1.199219 12.617188 1.234375 C 12.589844 1.253906 12.558594 1.269531 12.527344 1.289062 C 12.433594 1.34375 12.34375 1.402344 12.25 1.460938 C 12.1875 1.5 12.125 1.539062 12.058594 1.578125 C 11.851562 1.703125 11.640625 1.832031 11.4375 1.96875 C 11.4375 2 11.4375 2.03125 11.4375 2.0625 C 11.527344 2.128906 11.527344 2.128906 11.644531 2.191406 C 11.6875 2.21875 11.734375 2.242188 11.78125 2.269531 C 11.828125 2.296875 11.878906 2.328125 11.929688 2.355469 C 12.035156 2.414062 12.136719 2.476562 12.242188 2.535156 C 12.320312 2.582031 12.320312 2.582031 12.402344 2.628906 C 12.644531 2.765625 12.886719 2.90625 13.125 3.046875 C 13.21875 3.101562 13.3125 3.15625 13.40625 3.210938 C 13.59375 3.320312 13.78125 3.429688 13.96875 3.539062 C 14.015625 3.566406 14.0625 3.59375 14.109375 3.621094 C 14.203125 3.675781 14.296875 3.730469 14.390625 3.785156 C 14.621094 3.921875 14.855469 4.054688 15.085938 4.191406 C 15.480469 4.421875 15.875 4.648438 16.269531 4.882812 C 16.382812 4.949219 16.496094 5.015625 16.609375 5.082031 C 16.640625 5.101562 16.667969 5.117188 16.699219 5.132812 C 17.15625 5.402344 17.617188 5.667969 18.078125 5.933594 C 18.4375 6.144531 18.796875 6.351562 19.15625 6.566406 C 19.394531 6.707031 19.632812 6.847656 19.871094 6.984375 C 19.898438 7 19.925781 7.015625 19.957031 7.03125 C 20.089844 7.109375 20.226562 7.1875 20.359375 7.265625 C 20.410156 7.292969 20.457031 7.320312 20.507812 7.347656 C 20.554688 7.375 20.597656 7.402344 20.644531 7.429688 C 20.746094 7.488281 20.835938 7.550781 20.929688 7.617188 C 21.035156 7.699219 21.035156 7.699219 21.128906 7.679688 C 21.269531 7.628906 21.390625 7.558594 21.519531 7.488281 C 21.546875 7.472656 21.574219 7.457031 21.605469 7.441406 C 21.660156 7.410156 21.71875 7.378906 21.777344 7.347656 C 21.863281 7.296875 21.949219 7.25 22.039062 7.203125 C 22.09375 7.171875 22.152344 7.140625 22.207031 7.109375 C 22.257812 7.078125 22.308594 7.050781 22.359375 7.023438 C 22.496094 6.941406 22.613281 6.851562 22.734375 6.75 C 22.09375 6.367188 21.453125 5.988281 20.804688 5.617188 C 20.351562 5.363281 19.898438 5.101562 19.449219 4.839844 C 19.109375 4.636719 18.765625 4.441406 18.421875 4.242188 C 17.984375 3.988281 17.546875 3.734375 17.109375 3.480469 C 16.765625 3.28125 16.421875 3.082031 16.078125 2.882812 C 15.683594 2.65625 15.292969 2.429688 14.898438 2.199219 C 14.855469 2.171875 14.808594 2.148438 14.761719 2.121094 C 14.519531 1.976562 14.277344 1.835938 14.03125 1.691406 C 13.980469 1.664062 13.929688 1.632812 13.878906 1.601562 C 13.78125 1.546875 13.683594 1.488281 13.585938 1.429688 C 13.542969 1.40625 13.5 1.378906 13.453125 1.351562 C 13.414062 1.332031 13.375 1.308594 13.335938 1.285156 C 13.296875 1.261719 13.257812 1.242188 13.21875 1.21875 C 13.175781 1.191406 13.128906 1.160156 13.082031 1.128906 C 12.9375 1.058594 12.9375 1.058594 12.78125 1.132812 Z M 10.59375 2.445312 C 10.535156 2.480469 10.535156 2.480469 10.476562 2.511719 C 10.4375 2.539062 10.394531 2.5625 10.351562 2.585938 C 10.261719 2.636719 10.171875 2.6875 10.085938 2.742188 C 10.039062 2.765625 9.992188 2.792969 9.941406 2.820312 C 9.695312 2.964844 9.445312 3.105469 9.195312 3.246094 C 9.125 3.285156 9.125 3.285156 9.050781 3.328125 C 8.941406 3.390625 8.828125 3.453125 8.71875 3.515625 C 8.84375 3.648438 8.960938 3.742188 9.121094 3.832031 C 9.164062 3.855469 9.207031 3.878906 9.25 3.902344 C 9.316406 3.941406 9.316406 3.941406 9.386719 3.976562 C 9.484375 4.03125 9.582031 4.085938 9.679688 4.140625 C 9.730469 4.171875 9.78125 4.199219 9.832031 4.226562 C 10.070312 4.363281 10.308594 4.5 10.542969 4.636719 C 10.589844 4.664062 10.636719 4.691406 10.683594 4.71875 C 10.78125 4.777344 10.875 4.832031 10.96875 4.886719 C 11.199219 5.023438 11.433594 5.15625 11.664062 5.292969 C 11.710938 5.320312 11.757812 5.347656 11.804688 5.375 C 12.203125 5.605469 12.601562 5.835938 12.996094 6.066406 C 13.382812 6.289062 13.769531 6.511719 14.15625 6.738281 C 14.5 6.9375 14.84375 7.136719 15.1875 7.335938 C 15.578125 7.5625 15.96875 7.789062 16.359375 8.015625 C 16.765625 8.253906 17.171875 8.488281 17.578125 8.726562 C 17.628906 8.753906 17.679688 8.785156 17.730469 8.8125 C 17.824219 8.867188 17.921875 8.921875 18.015625 8.976562 C 18.140625 9.046875 18.140625 9.046875 18.238281 9.121094 C 18.335938 9.1875 18.398438 9.222656 18.515625 9.234375 C 18.730469 9.160156 18.910156 9.046875 19.097656 8.921875 C 19.152344 8.890625 19.207031 8.859375 19.261719 8.824219 C 19.367188 8.757812 19.476562 8.691406 19.582031 8.625 C 19.71875 8.542969 19.855469 8.460938 19.992188 8.382812 C 20.027344 8.363281 20.066406 8.339844 20.105469 8.316406 C 20.171875 8.28125 20.242188 8.242188 20.308594 8.203125 C 20.386719 8.15625 20.457031 8.109375 20.53125 8.0625 C 20.53125 8.03125 20.53125 8 20.53125 7.96875 C 20.441406 7.902344 20.441406 7.902344 20.324219 7.839844 C 20.28125 7.8125 20.234375 7.789062 20.1875 7.761719 C 20.113281 7.71875 20.113281 7.71875 20.039062 7.675781 C 19.933594 7.617188 19.832031 7.554688 19.726562 7.496094 C 19.671875 7.464844 19.621094 7.433594 19.566406 7.402344 C 19.324219 7.265625 19.082031 7.125 18.84375 6.984375 C 18.75 6.929688 18.65625 6.875 18.5625 6.820312 C 13.5 3.867188 13.5 3.867188 13.359375 3.785156 C 13.265625 3.730469 13.171875 3.675781 13.078125 3.621094 C 12.839844 3.480469 12.597656 3.339844 12.359375 3.199219 C 12.125 3.0625 11.890625 2.925781 11.652344 2.789062 C 11.574219 2.746094 11.496094 2.699219 11.421875 2.652344 C 11.328125 2.597656 11.234375 2.542969 11.140625 2.492188 C 11.089844 2.460938 11.039062 2.433594 10.988281 2.402344 C 10.8125 2.3125 10.757812 2.351562 10.59375 2.445312 Z M 7.871094 4.015625 C 7.824219 4.042969 7.773438 4.070312 7.726562 4.097656 C 7.675781 4.128906 7.621094 4.15625 7.570312 4.1875 C 7.519531 4.214844 7.464844 4.246094 7.414062 4.277344 C 6.957031 4.535156 6.5 4.796875 6.046875 5.0625 C 6.261719 5.253906 6.503906 5.382812 6.757812 5.519531 C 7.167969 5.75 7.578125 5.988281 7.984375 6.226562 C 8.453125 6.507812 8.921875 6.78125 9.394531 7.054688 C 9.875 7.328125 10.351562 7.609375 10.828125 7.886719 C 11.0625 8.023438 11.296875 8.160156 11.53125 8.296875 C 11.625 8.351562 11.71875 8.40625 11.8125 8.460938 C 11.859375 8.488281 11.90625 8.515625 11.953125 8.542969 C 12.09375 8.625 12.234375 8.707031 12.375 8.789062 C 12.445312 8.828125 12.445312 8.828125 12.515625 8.871094 C 12.609375 8.925781 12.703125 8.980469 12.796875 9.035156 C 13.027344 9.171875 13.261719 9.304688 13.492188 9.441406 C 13.535156 9.464844 13.582031 9.492188 13.628906 9.519531 C 13.71875 9.574219 13.8125 9.625 13.902344 9.679688 C 14.140625 9.816406 14.378906 9.957031 14.613281 10.101562 C 14.738281 10.175781 14.859375 10.25 14.984375 10.324219 C 15.046875 10.359375 15.105469 10.398438 15.164062 10.433594 C 15.25 10.488281 15.332031 10.539062 15.417969 10.585938 C 15.464844 10.617188 15.515625 10.648438 15.5625 10.675781 C 15.730469 10.746094 15.8125 10.738281 15.984375 10.6875 C 16.105469 10.636719 16.105469 10.636719 16.21875 10.566406 C 16.261719 10.542969 16.308594 10.515625 16.351562 10.492188 C 16.398438 10.464844 16.445312 10.4375 16.492188 10.410156 C 16.539062 10.382812 16.585938 10.355469 16.632812 10.328125 C 16.730469 10.269531 16.828125 10.214844 16.921875 10.160156 C 17.050781 10.085938 17.179688 10.011719 17.308594 9.9375 C 17.382812 9.898438 17.457031 9.855469 17.527344 9.8125 C 17.5625 9.796875 17.597656 9.777344 17.628906 9.757812 C 17.730469 9.699219 17.730469 9.699219 17.859375 9.609375 C 17.859375 9.5625 17.859375 9.515625 17.859375 9.46875 C 17.8125 9.441406 17.761719 9.417969 17.714844 9.390625 C 17.148438 9.078125 16.589844 8.753906 16.035156 8.429688 C 15.800781 8.292969 15.566406 8.15625 15.335938 8.019531 C 15.289062 7.992188 15.242188 7.964844 15.195312 7.9375 C 14.796875 7.707031 14.398438 7.476562 14.003906 7.246094 C 13.617188 7.023438 13.230469 6.800781 12.84375 6.574219 C 12.5 6.375 12.15625 6.175781 11.8125 5.976562 C 11.28125 5.671875 10.75 5.359375 10.21875 5.050781 C 10.074219 4.964844 9.929688 4.882812 9.78125 4.796875 C 9.734375 4.769531 9.683594 4.738281 9.636719 4.710938 C 9.539062 4.65625 9.441406 4.597656 9.347656 4.542969 C 9.140625 4.421875 8.933594 4.300781 8.730469 4.175781 C 8.699219 4.15625 8.664062 4.136719 8.632812 4.117188 C 8.574219 4.082031 8.515625 4.042969 8.453125 4.007812 C 8.214844 3.859375 8.113281 3.878906 7.871094 4.015625 Z M 5.15625 5.585938 C 5.117188 5.609375 5.117188 5.609375 5.074219 5.632812 C 4.988281 5.683594 4.902344 5.734375 4.8125 5.785156 C 4.753906 5.820312 4.695312 5.855469 4.632812 5.890625 C 4.226562 6.125 3.824219 6.363281 3.421875 6.609375 C 3.609375 6.769531 3.804688 6.886719 4.023438 7 C 4.367188 7.191406 4.707031 7.382812 5.046875 7.582031 C 5.09375 7.609375 5.140625 7.636719 5.1875 7.667969 C 5.285156 7.722656 5.382812 7.78125 5.480469 7.835938 C 5.714844 7.972656 5.949219 8.109375 6.179688 8.246094 C 6.226562 8.273438 6.273438 8.300781 6.320312 8.328125 C 6.71875 8.558594 7.117188 8.789062 7.511719 9.019531 C 7.898438 9.242188 8.285156 9.464844 8.671875 9.691406 C 9.015625 9.890625 9.359375 10.089844 9.703125 10.289062 C 10.234375 10.59375 10.765625 10.90625 11.296875 11.214844 C 11.542969 11.359375 11.789062 11.5 12.035156 11.644531 C 12.125 11.695312 12.210938 11.75 12.300781 11.800781 C 12.34375 11.824219 12.386719 11.851562 12.429688 11.875 C 12.523438 11.929688 12.617188 11.988281 12.710938 12.046875 C 12.761719 12.078125 12.8125 12.109375 12.863281 12.140625 C 12.90625 12.167969 12.953125 12.195312 12.996094 12.226562 C 13.148438 12.292969 13.203125 12.289062 13.359375 12.234375 C 13.449219 12.191406 13.539062 12.140625 13.625 12.089844 C 13.675781 12.0625 13.726562 12.03125 13.777344 12 C 13.832031 11.96875 13.886719 11.9375 13.9375 11.90625 C 13.996094 11.875 14.050781 11.84375 14.105469 11.808594 C 14.5 11.578125 14.890625 11.347656 15.28125 11.109375 C 15.164062 10.976562 15.03125 10.902344 14.878906 10.8125 C 14.828125 10.785156 14.773438 10.753906 14.71875 10.722656 C 14.691406 10.707031 14.664062 10.691406 14.632812 10.675781 C 14.484375 10.589844 14.335938 10.507812 14.1875 10.421875 C 14.15625 10.40625 14.125 10.386719 14.09375 10.371094 C 13.8125 10.210938 13.53125 10.046875 13.253906 9.882812 C 13.207031 9.859375 13.164062 9.832031 13.117188 9.804688 C 13.023438 9.75 12.933594 9.695312 12.839844 9.644531 C 12.609375 9.507812 12.378906 9.371094 12.148438 9.238281 C 12.101562 9.210938 12.054688 9.183594 12.007812 9.15625 C 11.609375 8.925781 11.210938 8.695312 10.816406 8.464844 C 10.429688 8.242188 10.042969 8.019531 9.65625 7.792969 C 9.3125 7.59375 8.96875 7.394531 8.625 7.195312 C 8.09375 6.890625 7.5625 6.582031 7.035156 6.269531 C 6.882812 6.183594 6.726562 6.09375 6.574219 6.003906 C 6.523438 5.972656 6.472656 5.945312 6.417969 5.914062 C 6.320312 5.855469 6.21875 5.796875 6.121094 5.738281 C 6.054688 5.699219 6.054688 5.699219 5.984375 5.660156 C 5.925781 5.625 5.925781 5.625 5.867188 5.589844 C 5.785156 5.542969 5.703125 5.492188 5.625 5.4375 C 5.410156 5.4375 5.339844 5.480469 5.15625 5.585938 Z M 2.613281 7.074219 C 2.5625 7.101562 2.507812 7.128906 2.457031 7.160156 C 2.402344 7.191406 2.347656 7.21875 2.292969 7.25 C 2.242188 7.28125 2.1875 7.308594 2.132812 7.339844 C 1.714844 7.574219 1.714844 7.574219 1.3125 7.828125 C 1.3125 7.859375 1.3125 7.890625 1.3125 7.921875 C 1.34375 7.941406 1.375 7.957031 1.40625 7.976562 C 1.96875 8.300781 2.53125 8.625 3.09375 8.953125 C 3.484375 9.179688 3.875 9.40625 4.265625 9.632812 C 4.890625 9.992188 5.515625 10.355469 6.140625 10.722656 C 6.722656 11.0625 7.304688 11.402344 7.886719 11.738281 C 8.226562 11.933594 8.566406 12.128906 8.90625 12.328125 C 9.3125 12.566406 9.71875 12.800781 10.125 13.039062 C 10.175781 13.066406 10.226562 13.097656 10.277344 13.125 C 10.371094 13.179688 10.46875 13.234375 10.5625 13.289062 C 10.6875 13.359375 10.6875 13.359375 10.78125 13.433594 C 10.882812 13.507812 10.9375 13.535156 11.0625 13.546875 C 11.308594 13.460938 11.527344 13.332031 11.75 13.195312 C 11.8125 13.160156 11.875 13.125 11.9375 13.089844 C 12.1875 12.945312 12.429688 12.796875 12.65625 12.609375 C 11.765625 12.082031 10.867188 11.5625 9.972656 11.042969 C 9.585938 10.820312 9.199219 10.597656 8.8125 10.371094 C 8.46875 10.171875 8.125 9.972656 7.78125 9.773438 C 7.15625 9.414062 6.53125 9.050781 5.90625 8.683594 C 5.320312 8.339844 4.730469 7.996094 4.136719 7.65625 C 3.800781 7.464844 3.464844 7.265625 3.132812 7.070312 C 2.878906 6.917969 2.867188 6.929688 2.613281 7.074219 Z M 22.726562 7.394531 C 22.675781 7.425781 22.625 7.453125 22.570312 7.480469 C 22.515625 7.511719 22.460938 7.542969 22.402344 7.578125 C 22.375 7.59375 22.347656 7.609375 22.316406 7.625 C 21.875 7.871094 21.441406 8.121094 21.007812 8.375 C 20.648438 8.582031 20.292969 8.789062 19.933594 8.992188 C 19.90625 9.011719 19.878906 9.027344 19.851562 9.042969 C 19.710938 9.121094 19.570312 9.199219 19.433594 9.28125 C 19.183594 9.421875 18.9375 9.5625 18.691406 9.703125 C 18.609375 9.75 18.527344 9.796875 18.445312 9.84375 C 18.199219 9.984375 17.949219 10.128906 17.699219 10.269531 C 17.03125 10.652344 16.363281 11.03125 15.691406 11.410156 C 15.5625 11.484375 15.429688 11.558594 15.296875 11.632812 C 14.402344 12.140625 13.503906 12.644531 12.601562 13.140625 C 12.5625 13.164062 12.5625 13.164062 12.519531 13.1875 C 12.097656 13.421875 11.675781 13.648438 11.25 13.875 C 11.25 14.695312 11.25 15.515625 11.25 16.359375 C 11.792969 16.089844 11.792969 16.089844 12.320312 15.789062 C 12.382812 15.753906 12.445312 15.714844 12.511719 15.675781 C 12.539062 15.660156 12.570312 15.640625 12.597656 15.621094 C 12.703125 15.5625 12.703125 15.5625 12.8125 15.515625 C 12.933594 15.464844 13.027344 15.414062 13.125 15.328125 C 13.1875 15.167969 13.179688 15.015625 13.175781 14.84375 C 13.175781 14.796875 13.175781 14.75 13.179688 14.703125 C 13.179688 14.554688 13.175781 14.40625 13.175781 14.257812 C 13.175781 14.160156 13.175781 14.058594 13.175781 13.957031 C 13.175781 13.710938 13.175781 13.464844 13.171875 13.21875 C 13.207031 13.207031 13.238281 13.191406 13.273438 13.179688 C 13.496094 13.089844 13.703125 12.96875 13.914062 12.855469 C 13.960938 12.828125 14.011719 12.800781 14.0625 12.773438 C 14.945312 12.296875 14.945312 12.296875 15.796875 11.765625 C 15.941406 11.75 15.941406 11.75 16.078125 11.765625 C 16.195312 11.9375 16.1875 12.078125 16.191406 12.277344 C 16.191406 12.316406 16.191406 12.351562 16.195312 12.386719 C 16.195312 12.503906 16.199219 12.621094 16.203125 12.734375 C 16.203125 12.8125 16.203125 12.890625 16.207031 12.96875 C 16.210938 13.164062 16.214844 13.355469 16.21875 13.546875 C 16.414062 13.488281 16.582031 13.414062 16.757812 13.308594 C 16.804688 13.28125 16.851562 13.253906 16.902344 13.226562 C 16.949219 13.195312 17 13.167969 17.050781 13.136719 C 17.097656 13.109375 17.148438 13.078125 17.199219 13.050781 C 17.292969 12.992188 17.390625 12.933594 17.484375 12.875 C 17.625 12.796875 17.625 12.796875 17.765625 12.75 C 17.917969 12.6875 17.992188 12.648438 18.09375 12.515625 C 18.171875 12.1875 18.136719 11.835938 18.125 11.503906 C 18.117188 11.367188 18.113281 11.226562 18.113281 11.085938 C 18.109375 11 18.109375 10.914062 18.101562 10.828125 C 18.101562 10.707031 18.105469 10.613281 18.140625 10.5 C 18.25 10.390625 18.375 10.332031 18.515625 10.265625 C 18.558594 10.242188 18.601562 10.214844 18.648438 10.1875 C 18.6875 10.167969 18.726562 10.144531 18.769531 10.121094 C 18.816406 10.097656 18.859375 10.070312 18.910156 10.042969 C 18.957031 10.019531 19.003906 9.992188 19.054688 9.964844 C 19.375 9.785156 19.691406 9.609375 20.007812 9.417969 C 20.058594 9.386719 20.109375 9.359375 20.160156 9.328125 C 20.257812 9.269531 20.355469 9.207031 20.453125 9.148438 C 20.496094 9.121094 20.539062 9.097656 20.585938 9.070312 C 20.640625 9.035156 20.640625 9.035156 20.703125 8.996094 C 20.835938 8.941406 20.910156 8.957031 21.046875 9 C 21.144531 9.097656 21.105469 9.296875 21.109375 9.429688 C 21.109375 9.488281 21.109375 9.488281 21.113281 9.546875 C 21.113281 9.671875 21.117188 9.792969 21.121094 9.917969 C 21.121094 10 21.125 10.082031 21.125 10.167969 C 21.132812 10.371094 21.136719 10.578125 21.140625 10.78125 C 21.328125 10.710938 21.5 10.621094 21.671875 10.519531 C 21.703125 10.503906 21.730469 10.488281 21.757812 10.472656 C 21.847656 10.421875 21.9375 10.371094 22.023438 10.320312 C 22.085938 10.285156 22.144531 10.25 22.203125 10.214844 C 22.3125 10.152344 22.421875 10.089844 22.535156 10.027344 C 22.695312 9.933594 22.855469 9.84375 23.015625 9.75 C 23.015625 8.929688 23.015625 8.109375 23.015625 7.265625 C 22.914062 7.265625 22.808594 7.351562 22.726562 7.394531 Z M 0.984375 8.34375 C 0.96875 8.691406 0.957031 9.039062 0.949219 9.382812 C 0.949219 9.503906 0.945312 9.621094 0.9375 9.738281 C 0.882812 10.34375 0.882812 10.34375 1.035156 10.914062 C 1.191406 11.070312 1.390625 11.132812 1.59375 11.203125 C 1.691406 11.257812 1.785156 11.3125 1.878906 11.371094 C 1.976562 11.425781 2.074219 11.480469 2.171875 11.539062 C 2.277344 11.597656 2.386719 11.660156 2.492188 11.722656 C 2.546875 11.753906 2.601562 11.785156 2.65625 11.816406 C 2.894531 11.953125 3.136719 12.09375 3.375 12.234375 C 3.765625 12.460938 4.15625 12.6875 4.546875 12.914062 C 4.984375 13.167969 5.421875 13.421875 5.859375 13.675781 C 6.203125 13.875 6.546875 14.074219 6.890625 14.273438 C 7.519531 14.632812 8.144531 15 8.765625 15.363281 C 9.28125 15.664062 9.792969 15.964844 10.308594 16.257812 C 10.351562 16.285156 10.394531 16.308594 10.4375 16.332031 C 10.496094 16.367188 10.496094 16.367188 10.554688 16.398438 C 10.585938 16.417969 10.621094 16.4375 10.65625 16.457031 C 10.726562 16.503906 10.726562 16.503906 10.78125 16.5 C 10.78125 15.679688 10.78125 14.859375 10.78125 14.015625 C 10.605469 13.914062 10.429688 13.8125 10.25 13.707031 C 10.1875 13.671875 10.128906 13.640625 10.066406 13.605469 C 9.796875 13.445312 9.523438 13.289062 9.25 13.132812 C 8.523438 12.714844 7.800781 12.292969 7.078125 11.871094 C 6.496094 11.53125 5.914062 11.191406 5.332031 10.855469 C 4.945312 10.632812 4.558594 10.410156 4.171875 10.183594 C 3.78125 9.953125 3.382812 9.726562 2.988281 9.5 C 2.585938 9.265625 2.183594 9.03125 1.78125 8.796875 C 1.714844 8.757812 1.714844 8.757812 1.652344 8.71875 C 1.613281 8.699219 1.578125 8.675781 1.539062 8.652344 C 1.355469 8.546875 1.167969 8.445312 0.984375 8.34375 Z M 20.378906 9.816406 C 20.320312 9.851562 20.320312 9.851562 20.257812 9.886719 C 20.214844 9.910156 20.171875 9.9375 20.128906 9.960938 C 20.085938 9.984375 20.046875 10.011719 20 10.035156 C 19.898438 10.097656 19.792969 10.15625 19.6875 10.21875 C 19.742188 10.382812 19.769531 10.394531 19.910156 10.476562 C 19.945312 10.496094 19.980469 10.515625 20.015625 10.539062 C 20.054688 10.558594 20.089844 10.582031 20.128906 10.601562 C 20.183594 10.636719 20.183594 10.636719 20.242188 10.667969 C 20.421875 10.785156 20.421875 10.785156 20.625 10.828125 C 20.625 10.457031 20.625 10.085938 20.625 9.703125 C 20.535156 9.703125 20.453125 9.773438 20.378906 9.816406 Z M 22.6875 10.355469 C 22.609375 10.402344 22.609375 10.402344 22.535156 10.449219 C 22.507812 10.464844 22.480469 10.480469 22.453125 10.496094 C 21.96875 10.785156 21.480469 11.070312 20.992188 11.351562 C 20.445312 11.660156 19.898438 11.976562 19.355469 12.292969 C 18.683594 12.6875 18.007812 13.082031 17.332031 13.472656 C 16.992188 13.667969 16.652344 13.863281 16.3125 14.0625 C 15.871094 14.320312 15.429688 14.574219 14.988281 14.832031 C 14.648438 15.027344 14.308594 15.222656 13.96875 15.421875 C 13.574219 15.652344 13.179688 15.882812 12.78125 16.109375 C 12.730469 16.140625 12.679688 16.167969 12.628906 16.199219 C 12.433594 16.308594 12.242188 16.421875 12.046875 16.535156 C 11.921875 16.605469 11.796875 16.679688 11.667969 16.75 C 11.632812 16.773438 11.59375 16.796875 11.554688 16.816406 C 11.394531 16.902344 11.394531 16.902344 11.25 17.015625 C 11.246094 17.09375 11.246094 17.171875 11.246094 17.25 C 11.246094 17.296875 11.246094 17.347656 11.246094 17.398438 C 11.246094 17.453125 11.246094 17.507812 11.246094 17.5625 C 11.246094 17.617188 11.246094 17.671875 11.246094 17.730469 C 11.246094 17.90625 11.246094 18.085938 11.246094 18.261719 C 11.246094 18.378906 11.246094 18.5 11.246094 18.621094 C 11.25 18.914062 11.25 19.207031 11.25 19.5 C 11.625 19.296875 12 19.089844 12.371094 18.882812 C 12.425781 18.851562 12.476562 18.824219 12.53125 18.792969 C 12.605469 18.753906 12.605469 18.753906 12.679688 18.710938 C 12.726562 18.683594 12.769531 18.660156 12.816406 18.632812 C 12.855469 18.609375 12.894531 18.585938 12.9375 18.5625 C 12.972656 18.546875 13.007812 18.527344 13.046875 18.511719 C 13.179688 18.359375 13.140625 18.175781 13.132812 17.980469 C 13.128906 17.890625 13.128906 17.800781 13.128906 17.710938 C 13.125 17.570312 13.121094 17.429688 13.117188 17.289062 C 13.085938 16.503906 13.085938 16.503906 13.289062 16.269531 C 13.449219 16.171875 13.605469 16.101562 13.78125 16.03125 C 13.882812 15.976562 13.980469 15.917969 14.078125 15.855469 C 14.335938 15.707031 14.59375 15.5625 14.851562 15.414062 C 14.988281 15.335938 15.121094 15.257812 15.257812 15.175781 C 15.332031 15.132812 15.40625 15.089844 15.480469 15.046875 C 15.511719 15.027344 15.546875 15.007812 15.582031 14.984375 C 15.734375 14.898438 15.828125 14.859375 16.007812 14.871094 C 16.066406 14.886719 16.066406 14.886719 16.125 14.90625 C 16.183594 15.078125 16.183594 15.238281 16.1875 15.417969 C 16.1875 15.457031 16.1875 15.492188 16.191406 15.527344 C 16.191406 15.644531 16.195312 15.761719 16.199219 15.875 C 16.199219 15.953125 16.203125 16.03125 16.203125 16.109375 C 16.210938 16.304688 16.214844 16.496094 16.21875 16.6875 C 16.546875 16.527344 16.871094 16.359375 17.1875 16.171875 C 17.21875 16.152344 17.253906 16.132812 17.289062 16.109375 C 17.355469 16.070312 17.421875 16.03125 17.488281 15.992188 C 17.570312 15.941406 17.648438 15.894531 17.730469 15.847656 C 17.921875 15.742188 17.921875 15.742188 18.09375 15.609375 C 18.089844 15.511719 18.085938 15.410156 18.078125 15.3125 C 17.984375 13.84375 17.984375 13.84375 18.230469 13.449219 C 18.46875 13.234375 18.757812 13.140625 19.058594 13.042969 C 19.339844 12.941406 19.589844 12.785156 19.847656 12.632812 C 19.945312 12.578125 20.039062 12.527344 20.136719 12.472656 C 20.320312 12.371094 20.5 12.257812 20.671875 12.132812 C 20.765625 12.09375 20.765625 12.09375 21.09375 12.09375 C 21.109375 12.695312 21.125 13.300781 21.140625 13.921875 C 21.574219 13.707031 21.574219 13.707031 21.996094 13.472656 C 22.070312 13.433594 22.070312 13.433594 22.144531 13.390625 C 22.214844 13.347656 22.214844 13.347656 22.289062 13.304688 C 22.339844 13.273438 22.386719 13.246094 22.4375 13.214844 C 22.632812 13.101562 22.632812 13.101562 22.828125 12.984375 C 22.882812 12.953125 22.882812 12.953125 22.9375 12.921875 C 23.027344 12.847656 23.027344 12.847656 23.039062 12.722656 C 23.035156 12.652344 23.035156 12.652344 23.035156 12.578125 C 23.035156 12.523438 23.035156 12.46875 23.035156 12.414062 C 23.03125 12.351562 23.03125 12.292969 23.03125 12.234375 C 23.027344 12.144531 23.027344 12.144531 23.027344 12.050781 C 23.019531 11.441406 22.996094 10.828125 22.96875 10.21875 C 22.871094 10.21875 22.765625 10.308594 22.6875 10.355469 Z M 18.609375 10.78125 C 18.609375 11.277344 18.609375 11.769531 18.609375 12.28125 C 18.964844 12.085938 19.316406 11.890625 19.664062 11.6875 C 19.710938 11.660156 19.753906 11.632812 19.800781 11.605469 C 19.867188 11.566406 19.867188 11.566406 19.933594 11.527344 C 19.992188 11.492188 19.992188 11.492188 20.054688 11.457031 C 20.148438 11.394531 20.222656 11.332031 20.296875 11.25 C 20.125 11.148438 19.953125 11.050781 19.777344 10.949219 C 19.71875 10.914062 19.660156 10.882812 19.601562 10.847656 C 19.519531 10.796875 19.433594 10.75 19.347656 10.699219 C 19.296875 10.671875 19.246094 10.640625 19.195312 10.613281 C 18.933594 10.464844 18.996094 10.566406 18.609375 10.78125 Z M 0.984375 11.484375 C 0.984375 12.304688 0.984375 13.125 0.984375 13.96875 C 1.519531 14.269531 1.519531 14.269531 2.0625 14.578125 C 2.246094 14.683594 2.429688 14.789062 2.609375 14.898438 C 3.019531 15.136719 3.425781 15.371094 3.835938 15.605469 C 4.414062 15.9375 4.992188 16.269531 5.566406 16.601562 C 5.820312 16.746094 6.074219 16.894531 6.328125 17.039062 C 6.429688 17.097656 6.53125 17.15625 6.632812 17.214844 C 6.683594 17.242188 6.734375 17.273438 6.785156 17.304688 C 8.460938 18.269531 8.460938 18.269531 8.613281 18.359375 C 8.714844 18.414062 8.816406 18.472656 8.914062 18.53125 C 9.152344 18.667969 9.390625 18.808594 9.628906 18.945312 C 9.742188 19.007812 9.855469 19.074219 9.96875 19.140625 C 10.046875 19.183594 10.125 19.230469 10.207031 19.277344 C 10.253906 19.304688 10.300781 19.332031 10.351562 19.363281 C 10.394531 19.386719 10.4375 19.410156 10.480469 19.4375 C 10.578125 19.492188 10.679688 19.542969 10.78125 19.59375 C 10.796875 19.246094 10.808594 18.898438 10.816406 18.554688 C 10.816406 18.433594 10.820312 18.316406 10.828125 18.199219 C 10.882812 17.59375 10.882812 17.59375 10.730469 17.023438 C 10.574219 16.867188 10.375 16.804688 10.171875 16.734375 C 10.070312 16.675781 9.96875 16.617188 9.867188 16.558594 C 9.761719 16.5 9.660156 16.4375 9.554688 16.378906 C 9.4375 16.3125 9.320312 16.246094 9.207031 16.183594 C 9.175781 16.164062 9.148438 16.148438 9.117188 16.132812 C 8.828125 15.964844 8.539062 15.800781 8.25 15.632812 C 7.855469 15.40625 7.457031 15.175781 7.0625 14.949219 C 6.582031 14.675781 6.105469 14.402344 5.628906 14.121094 C 5.242188 13.898438 4.855469 13.675781 4.46875 13.457031 C 4.074219 13.230469 3.675781 13 3.28125 12.773438 C 2.871094 12.535156 2.460938 12.300781 2.050781 12.0625 C 1.992188 12.03125 1.9375 12 1.878906 11.964844 C 1.800781 11.921875 1.71875 11.875 1.640625 11.828125 C 1.59375 11.804688 1.550781 11.777344 1.503906 11.75 C 1.332031 11.65625 1.160156 11.570312 0.984375 11.484375 Z M 15.367188 12.675781 C 15.332031 12.699219 15.292969 12.722656 15.253906 12.746094 C 15.214844 12.769531 15.175781 12.796875 15.132812 12.820312 C 15.09375 12.84375 15.054688 12.871094 15.015625 12.894531 C 14.914062 12.957031 14.816406 13.015625 14.71875 13.078125 C 14.8125 13.179688 14.90625 13.253906 15.023438 13.324219 C 15.054688 13.34375 15.085938 13.363281 15.117188 13.382812 C 15.148438 13.398438 15.179688 13.417969 15.214844 13.4375 C 15.261719 13.46875 15.261719 13.46875 15.3125 13.496094 C 15.472656 13.605469 15.472656 13.605469 15.65625 13.640625 C 15.65625 13.285156 15.65625 12.929688 15.65625 12.5625 C 15.53125 12.5625 15.476562 12.609375 15.367188 12.675781 Z M 20.328125 12.910156 C 20.265625 12.945312 20.265625 12.945312 20.207031 12.980469 C 20.164062 13.003906 20.121094 13.03125 20.078125 13.054688 C 20.039062 13.078125 19.996094 13.105469 19.953125 13.128906 C 19.847656 13.191406 19.746094 13.25 19.640625 13.3125 C 19.742188 13.421875 19.839844 13.496094 19.96875 13.570312 C 20.003906 13.589844 20.039062 13.609375 20.074219 13.632812 C 20.109375 13.652344 20.148438 13.675781 20.1875 13.695312 C 20.242188 13.730469 20.242188 13.730469 20.296875 13.761719 C 20.453125 13.871094 20.453125 13.871094 20.625 13.921875 C 20.625 13.550781 20.625 13.179688 20.625 12.796875 C 20.5 12.796875 20.4375 12.847656 20.328125 12.910156 Z M 13.765625 13.542969 C 13.585938 13.765625 13.652344 14.109375 13.664062 14.382812 C 13.664062 14.449219 13.667969 14.519531 13.667969 14.589844 C 13.671875 14.757812 13.679688 14.925781 13.6875 15.09375 C 13.847656 15.03125 13.996094 14.964844 14.144531 14.878906 C 14.183594 14.855469 14.226562 14.828125 14.269531 14.804688 C 14.332031 14.769531 14.332031 14.769531 14.398438 14.730469 C 14.441406 14.707031 14.484375 14.683594 14.527344 14.65625 C 14.652344 14.585938 14.78125 14.511719 14.90625 14.4375 C 14.953125 14.410156 14.996094 14.386719 15.042969 14.359375 C 15.085938 14.335938 15.128906 14.308594 15.171875 14.285156 C 15.230469 14.25 15.230469 14.25 15.289062 14.214844 C 15.316406 14.195312 15.347656 14.175781 15.375 14.15625 C 15.375 14.125 15.375 14.09375 15.375 14.0625 C 15.324219 14.035156 15.277344 14.007812 15.222656 13.976562 C 15.15625 13.941406 15.089844 13.902344 15.023438 13.867188 C 14.988281 13.847656 14.953125 13.828125 14.917969 13.808594 C 14.742188 13.710938 14.570312 13.609375 14.402344 13.496094 C 14.164062 13.355469 13.988281 13.394531 13.765625 13.542969 Z M 22.726562 13.628906 C 22.675781 13.660156 22.625 13.6875 22.570312 13.714844 C 22.515625 13.746094 22.460938 13.777344 22.402344 13.8125 C 22.375 13.828125 22.347656 13.84375 22.316406 13.859375 C 21.878906 14.101562 21.441406 14.355469 21.007812 14.609375 C 20.648438 14.820312 20.289062 15.027344 19.929688 15.230469 C 19.503906 15.472656 19.078125 15.714844 18.65625 15.960938 C 18.207031 16.21875 17.757812 16.476562 17.308594 16.734375 C 16.914062 16.960938 16.519531 17.1875 16.125 17.414062 C 15.570312 17.734375 15.011719 18.054688 14.453125 18.375 C 14.257812 18.484375 14.0625 18.597656 13.867188 18.707031 C 13.34375 19.007812 12.824219 19.304688 12.300781 19.601562 C 12.257812 19.625 12.21875 19.648438 12.175781 19.671875 C 11.882812 19.835938 11.589844 19.996094 11.296875 20.15625 C 11.296875 20.976562 11.296875 21.796875 11.296875 22.640625 C 11.488281 22.5625 11.652344 22.484375 11.828125 22.378906 C 11.859375 22.363281 11.886719 22.347656 11.914062 22.332031 C 12.003906 22.28125 12.09375 22.230469 12.179688 22.179688 C 12.242188 22.144531 12.300781 22.109375 12.359375 22.074219 C 12.46875 22.011719 12.578125 21.949219 12.691406 21.886719 C 12.84375 21.796875 12.84375 21.796875 12.933594 21.761719 C 13.039062 21.71875 13.039062 21.71875 13.171875 21.609375 C 13.214844 21.460938 13.207031 21.316406 13.199219 21.160156 C 13.199219 21.070312 13.199219 20.980469 13.195312 20.890625 C 13.195312 20.75 13.1875 20.605469 13.183594 20.464844 C 13.179688 20.328125 13.179688 20.191406 13.179688 20.054688 C 13.175781 20.011719 13.175781 19.972656 13.171875 19.929688 C 13.171875 19.804688 13.175781 19.710938 13.21875 19.59375 C 13.34375 19.46875 13.484375 19.394531 13.640625 19.3125 C 13.6875 19.285156 13.734375 19.253906 13.785156 19.226562 C 13.828125 19.199219 13.871094 19.175781 13.914062 19.152344 C 13.960938 19.121094 14.011719 19.09375 14.0625 19.066406 C 14.113281 19.039062 14.164062 19.007812 14.214844 18.976562 C 14.296875 18.933594 14.375 18.886719 14.457031 18.839844 C 14.539062 18.792969 14.621094 18.746094 14.703125 18.699219 C 14.851562 18.613281 15 18.527344 15.148438 18.4375 C 15.191406 18.414062 15.238281 18.386719 15.28125 18.359375 C 15.367188 18.308594 15.449219 18.261719 15.53125 18.210938 C 15.890625 18 15.890625 18 16.125 18.046875 C 16.242188 18.21875 16.234375 18.359375 16.238281 18.558594 C 16.238281 18.597656 16.238281 18.632812 16.242188 18.667969 C 16.242188 18.785156 16.246094 18.902344 16.25 19.015625 C 16.25 19.09375 16.25 19.171875 16.253906 19.25 C 16.257812 19.445312 16.261719 19.636719 16.265625 19.828125 C 16.460938 19.769531 16.628906 19.695312 16.804688 19.589844 C 16.851562 19.5625 16.898438 19.535156 16.949219 19.507812 C 16.996094 19.476562 17.046875 19.449219 17.097656 19.417969 C 17.144531 19.390625 17.195312 19.359375 17.246094 19.332031 C 17.339844 19.273438 17.4375 19.214844 17.53125 19.15625 C 17.671875 19.078125 17.671875 19.078125 17.8125 19.03125 C 17.96875 18.96875 18.039062 18.933594 18.140625 18.796875 C 18.214844 18.464844 18.179688 18.105469 18.167969 17.765625 C 18.160156 17.578125 18.15625 17.390625 18.152344 17.203125 C 18.148438 17.160156 18.148438 17.117188 18.144531 17.074219 C 18.144531 16.949219 18.148438 16.851562 18.1875 16.734375 C 18.3125 16.609375 18.453125 16.53125 18.609375 16.453125 C 18.679688 16.410156 18.679688 16.410156 18.753906 16.367188 C 18.816406 16.332031 18.816406 16.332031 18.878906 16.296875 C 18.925781 16.273438 18.972656 16.246094 19.023438 16.21875 C 19.097656 16.179688 19.097656 16.179688 19.171875 16.136719 C 19.558594 15.921875 19.945312 15.703125 20.324219 15.472656 C 20.515625 15.359375 20.695312 15.257812 20.90625 15.1875 C 20.96875 15.21875 21.03125 15.25 21.09375 15.28125 C 21.109375 15.855469 21.125 16.425781 21.140625 17.015625 C 21.320312 16.945312 21.472656 16.871094 21.636719 16.777344 C 21.6875 16.75 21.738281 16.722656 21.789062 16.695312 C 21.839844 16.664062 21.894531 16.636719 21.945312 16.605469 C 21.996094 16.578125 22.046875 16.546875 22.101562 16.519531 C 22.25 16.433594 22.398438 16.351562 22.546875 16.265625 C 22.585938 16.25 22.625 16.230469 22.667969 16.210938 C 22.804688 16.148438 22.90625 16.085938 23.015625 15.984375 C 23.078125 15.792969 23.070312 15.613281 23.0625 15.414062 C 23.0625 15.359375 23.058594 15.304688 23.058594 15.246094 C 23.058594 15.074219 23.050781 14.898438 23.046875 14.726562 C 23.042969 14.605469 23.039062 14.488281 23.039062 14.371094 C 23.035156 14.078125 23.027344 13.789062 23.015625 13.5 C 22.914062 13.5 22.808594 13.585938 22.726562 13.628906 Z M 18.691406 13.824219 C 18.507812 14.046875 18.574219 14.390625 18.585938 14.664062 C 18.585938 14.730469 18.589844 14.800781 18.589844 14.871094 C 18.59375 15.039062 18.601562 15.207031 18.609375 15.375 C 18.804688 15.304688 18.984375 15.207031 19.164062 15.101562 C 19.191406 15.085938 19.222656 15.066406 19.253906 15.050781 C 19.316406 15.015625 19.378906 14.976562 19.441406 14.941406 C 19.535156 14.886719 19.632812 14.832031 19.726562 14.777344 C 19.789062 14.738281 19.847656 14.703125 19.910156 14.667969 C 19.9375 14.652344 19.96875 14.636719 19.996094 14.621094 C 20.167969 14.519531 20.167969 14.519531 20.25 14.34375 C 20.066406 14.234375 19.882812 14.125 19.695312 14.015625 C 19.644531 13.984375 19.589844 13.953125 19.539062 13.921875 C 19.488281 13.890625 19.4375 13.863281 19.386719 13.832031 C 19.339844 13.804688 19.292969 13.777344 19.246094 13.746094 C 19.03125 13.640625 18.878906 13.699219 18.691406 13.824219 Z M 0.984375 14.625 C 0.972656 14.96875 0.964844 15.308594 0.960938 15.652344 C 0.960938 15.765625 0.957031 15.882812 0.953125 16 C 0.949219 16.167969 0.945312 16.335938 0.941406 16.5 C 0.941406 16.554688 0.9375 16.605469 0.9375 16.660156 C 0.933594 16.929688 0.933594 16.929688 1.070312 17.152344 C 1.179688 17.226562 1.289062 17.285156 1.40625 17.34375 C 1.457031 17.375 1.503906 17.402344 1.554688 17.433594 C 1.597656 17.457031 1.644531 17.484375 1.691406 17.507812 C 1.742188 17.539062 1.792969 17.566406 1.84375 17.597656 C 1.886719 17.621094 1.886719 17.621094 1.925781 17.640625 C 2.070312 17.722656 2.21875 17.808594 2.363281 17.890625 C 2.40625 17.914062 2.40625 17.914062 2.453125 17.941406 C 2.757812 18.113281 3.058594 18.292969 3.359375 18.472656 C 3.820312 18.746094 4.285156 19.019531 4.753906 19.289062 C 5.234375 19.5625 5.710938 19.84375 6.1875 20.121094 C 6.421875 20.257812 6.65625 20.394531 6.890625 20.53125 C 6.984375 20.585938 7.078125 20.640625 7.171875 20.695312 C 7.21875 20.722656 7.265625 20.75 7.3125 20.777344 C 7.453125 20.859375 7.59375 20.941406 7.734375 21.023438 C 7.78125 21.050781 7.828125 21.078125 7.875 21.105469 C 7.96875 21.160156 8.0625 21.214844 8.15625 21.269531 C 8.390625 21.40625 8.628906 21.546875 8.867188 21.683594 C 8.960938 21.738281 9.058594 21.792969 9.152344 21.851562 C 9.199219 21.875 9.246094 21.902344 9.292969 21.929688 C 9.523438 22.066406 9.75 22.199219 9.980469 22.339844 C 10.042969 22.378906 10.042969 22.378906 10.109375 22.417969 C 10.191406 22.46875 10.273438 22.515625 10.355469 22.566406 C 10.390625 22.589844 10.429688 22.613281 10.464844 22.632812 C 10.496094 22.652344 10.527344 22.671875 10.5625 22.691406 C 10.640625 22.742188 10.640625 22.742188 10.734375 22.734375 C 10.929688 21.363281 10.929688 21.363281 10.640625 20.078125 C 10.394531 19.835938 10.09375 19.742188 9.769531 19.644531 C 9.503906 19.558594 9.28125 19.410156 9.046875 19.265625 C 8.953125 19.210938 8.859375 19.15625 8.765625 19.101562 C 8.578125 18.992188 8.394531 18.882812 8.207031 18.773438 C 7.726562 18.492188 7.242188 18.214844 6.757812 17.9375 C 6.339844 17.695312 5.925781 17.453125 5.515625 17.207031 C 5.085938 16.949219 4.652344 16.699219 4.21875 16.453125 C 3.785156 16.207031 3.351562 15.957031 2.921875 15.699219 C 2.515625 15.457031 2.105469 15.214844 1.695312 14.976562 C 1.617188 14.929688 1.535156 14.882812 1.457031 14.835938 C 1.40625 14.808594 1.359375 14.78125 1.308594 14.753906 C 1.265625 14.726562 1.222656 14.703125 1.179688 14.675781 C 1.082031 14.617188 1.082031 14.617188 0.984375 14.625 Z M 15.1875 15.90625 C 15.148438 15.933594 15.109375 15.957031 15.066406 15.980469 C 15.03125 16.003906 14.992188 16.027344 14.953125 16.050781 C 14.917969 16.070312 14.882812 16.09375 14.847656 16.113281 C 14.757812 16.167969 14.757812 16.167969 14.71875 16.265625 C 14.867188 16.351562 15.011719 16.4375 15.160156 16.523438 C 15.203125 16.546875 15.246094 16.574219 15.289062 16.597656 C 15.347656 16.632812 15.347656 16.632812 15.410156 16.667969 C 15.445312 16.691406 15.484375 16.710938 15.523438 16.734375 C 15.601562 16.785156 15.601562 16.785156 15.65625 16.78125 C 15.65625 16.410156 15.65625 16.039062 15.65625 15.65625 C 15.507812 15.65625 15.3125 15.832031 15.1875 15.90625 Z M 20.367188 16.003906 C 20.328125 16.027344 20.285156 16.050781 20.242188 16.074219 C 20.195312 16.097656 20.152344 16.125 20.105469 16.148438 C 20.039062 16.183594 20.039062 16.183594 19.972656 16.222656 C 19.859375 16.285156 19.75 16.34375 19.640625 16.40625 C 19.695312 16.574219 19.726562 16.582031 19.875 16.664062 C 19.910156 16.683594 19.949219 16.703125 19.988281 16.726562 C 20.027344 16.746094 20.066406 16.769531 20.105469 16.789062 C 20.164062 16.824219 20.164062 16.824219 20.226562 16.855469 C 20.414062 16.972656 20.414062 16.972656 20.625 17.015625 C 20.625 16.644531 20.625 16.273438 20.625 15.890625 C 20.53125 15.890625 20.445312 15.960938 20.367188 16.003906 Z M 13.996094 16.527344 C 13.863281 16.601562 13.78125 16.660156 13.6875 16.78125 C 13.632812 17.03125 13.648438 17.273438 13.660156 17.523438 C 13.664062 17.59375 13.664062 17.664062 13.667969 17.730469 C 13.671875 17.898438 13.679688 18.066406 13.6875 18.234375 C 14.058594 18.054688 14.417969 17.855469 14.773438 17.640625 C 14.824219 17.609375 14.878906 17.578125 14.933594 17.546875 C 14.984375 17.515625 15.035156 17.488281 15.089844 17.457031 C 15.132812 17.429688 15.179688 17.402344 15.226562 17.375 C 15.261719 17.347656 15.292969 17.324219 15.328125 17.296875 C 15.328125 17.25 15.328125 17.203125 15.328125 17.15625 C 15.167969 17.0625 15.011719 16.972656 14.851562 16.882812 C 14.804688 16.855469 14.761719 16.828125 14.714844 16.800781 C 14.671875 16.777344 14.625 16.75 14.582031 16.726562 C 14.542969 16.703125 14.5 16.679688 14.460938 16.65625 C 14.238281 16.527344 14.238281 16.527344 13.996094 16.527344 Z M 15.367188 18.863281 C 15.332031 18.886719 15.292969 18.910156 15.253906 18.933594 C 15.214844 18.957031 15.175781 18.984375 15.132812 19.007812 C 15.09375 19.03125 15.054688 19.058594 15.015625 19.082031 C 14.914062 19.144531 14.816406 19.203125 14.71875 19.265625 C 14.871094 19.4375 15.039062 19.542969 15.242188 19.652344 C 15.269531 19.667969 15.300781 19.6875 15.332031 19.703125 C 15.484375 19.796875 15.484375 19.796875 15.65625 19.828125 C 15.65625 19.472656 15.65625 19.117188 15.65625 18.75 C 15.53125 18.75 15.476562 18.796875 15.367188 18.863281 Z M 15.367188 18.863281 "/>
<path style=" stroke:none;fill-rule:nonzero;fill:rgb(0%,0%,0%);fill-opacity:1;" d="M 6.890625 15.328125 C 6.984375 15.375 7.074219 15.425781 7.164062 15.476562 C 7.214844 15.507812 7.265625 15.535156 7.320312 15.566406 C 7.375 15.601562 7.433594 15.632812 7.488281 15.664062 C 7.546875 15.699219 7.605469 15.730469 7.664062 15.765625 C 7.78125 15.835938 7.902344 15.90625 8.023438 15.972656 C 8.195312 16.074219 8.371094 16.171875 8.542969 16.273438 C 8.648438 16.332031 8.753906 16.394531 8.863281 16.457031 C 8.910156 16.484375 8.960938 16.511719 9.007812 16.539062 C 9.855469 17.027344 9.855469 17.027344 9.984375 17.15625 C 9.996094 17.367188 9.996094 17.574219 9.996094 17.785156 C 9.996094 17.84375 9.996094 17.90625 10 17.964844 C 10 18.050781 10 18.050781 10 18.136719 C 10 18.191406 10 18.242188 10 18.296875 C 9.996094 18.335938 9.988281 18.378906 9.984375 18.421875 C 9.84375 18.515625 9.84375 18.515625 9.710938 18.507812 C 9.558594 18.46875 9.445312 18.414062 9.3125 18.335938 C 9.261719 18.308594 9.214844 18.277344 9.167969 18.25 C 9.117188 18.21875 9.0625 18.191406 9.011719 18.15625 C 8.929688 18.109375 8.847656 18.0625 8.765625 18.015625 C 8.683594 17.964844 8.597656 17.914062 8.511719 17.867188 C 8.296875 17.738281 8.078125 17.613281 7.859375 17.484375 C 7.46875 17.261719 7.082031 17.039062 6.699219 16.8125 C 6.671875 16.792969 6.644531 16.777344 6.613281 16.757812 C 6.429688 16.648438 6.429688 16.648438 6.375 16.59375 C 6.359375 16.394531 6.359375 16.191406 6.359375 15.992188 C 6.355469 15.933594 6.355469 15.875 6.351562 15.816406 C 6.351562 15.765625 6.351562 15.710938 6.351562 15.652344 C 6.347656 15.578125 6.347656 15.578125 6.347656 15.503906 C 6.375 15.375 6.375 15.375 6.476562 15.28125 C 6.652344 15.21875 6.722656 15.25 6.890625 15.328125 Z M 6.890625 15.984375 C 6.851562 16.136719 6.851562 16.136719 6.890625 16.3125 C 7.035156 16.441406 7.203125 16.523438 7.371094 16.613281 C 7.472656 16.671875 7.574219 16.726562 7.679688 16.785156 C 7.734375 16.8125 7.789062 16.84375 7.84375 16.875 C 8.023438 16.972656 8.203125 17.074219 8.378906 17.179688 C 8.4375 17.210938 8.5 17.246094 8.558594 17.28125 C 8.589844 17.300781 8.617188 17.316406 8.648438 17.332031 C 8.675781 17.351562 8.707031 17.367188 8.734375 17.382812 C 8.765625 17.402344 8.792969 17.417969 8.824219 17.4375 C 8.90625 17.484375 8.988281 17.53125 9.070312 17.578125 C 9.117188 17.605469 9.167969 17.632812 9.214844 17.660156 C 9.320312 17.726562 9.320312 17.726562 9.421875 17.71875 C 9.441406 17.585938 9.441406 17.585938 9.421875 17.4375 C 9.328125 17.34375 9.328125 17.34375 9.191406 17.273438 C 9.164062 17.257812 9.136719 17.242188 9.109375 17.226562 C 9.011719 17.171875 8.914062 17.117188 8.8125 17.0625 C 8.71875 17.011719 8.628906 16.960938 8.535156 16.90625 C 8.382812 16.820312 8.230469 16.738281 8.078125 16.652344 C 7.757812 16.472656 7.441406 16.292969 7.132812 16.101562 C 7.019531 16.019531 7.019531 16.019531 6.890625 15.984375 Z M 6.890625 15.984375 "/>
<path style=" stroke:none;fill-rule:nonzero;fill:rgb(0%,0%,0%);fill-opacity:1;" d="M 6.84375 18.421875 C 6.988281 18.488281 6.988281 18.488281 7.136719 18.570312 C 7.160156 18.585938 7.1875 18.597656 7.214844 18.613281 C 7.304688 18.664062 7.390625 18.710938 7.476562 18.761719 C 7.539062 18.796875 7.597656 18.828125 7.660156 18.863281 C 7.78125 18.933594 7.90625 19.003906 8.027344 19.070312 C 8.234375 19.1875 8.441406 19.304688 8.648438 19.421875 C 8.738281 19.472656 8.828125 19.523438 8.914062 19.574219 C 9.109375 19.6875 9.292969 19.789062 9.503906 19.867188 C 9.878906 20.019531 9.878906 20.019531 9.984375 20.203125 C 10.070312 20.605469 10.058594 21.0625 9.984375 21.46875 C 9.890625 21.5625 9.890625 21.5625 9.761719 21.578125 C 9.585938 21.558594 9.488281 21.511719 9.335938 21.421875 C 9.285156 21.394531 9.234375 21.363281 9.179688 21.332031 C 9.125 21.296875 9.066406 21.265625 9.011719 21.230469 C 8.953125 21.199219 8.894531 21.164062 8.835938 21.128906 C 8.714844 21.058594 8.597656 20.988281 8.476562 20.917969 C 8.253906 20.785156 8.027344 20.65625 7.804688 20.53125 C 7.703125 20.46875 7.597656 20.410156 7.496094 20.351562 C 7.285156 20.222656 7.078125 20.105469 6.847656 20.011719 C 6.648438 19.929688 6.511719 19.859375 6.375 19.6875 C 6.292969 19.332031 6.234375 18.753906 6.425781 18.425781 C 6.574219 18.339844 6.683594 18.382812 6.84375 18.421875 Z M 6.890625 19.125 C 6.890625 19.234375 6.890625 19.339844 6.890625 19.453125 C 6.921875 19.46875 6.949219 19.484375 6.980469 19.503906 C 7.601562 19.847656 8.214844 20.195312 8.828125 20.558594 C 8.871094 20.582031 8.914062 20.609375 8.960938 20.636719 C 9 20.660156 9.035156 20.679688 9.078125 20.707031 C 9.1875 20.765625 9.300781 20.8125 9.421875 20.859375 C 9.421875 20.75 9.421875 20.644531 9.421875 20.53125 C 9.390625 20.515625 9.363281 20.5 9.332031 20.480469 C 8.710938 20.136719 8.097656 19.789062 7.484375 19.425781 C 7.441406 19.402344 7.398438 19.375 7.351562 19.347656 C 7.3125 19.324219 7.277344 19.304688 7.234375 19.277344 C 7.125 19.21875 7.011719 19.171875 6.890625 19.125 Z M 6.890625 19.125 "/>
<path style=" stroke:none;fill-rule:nonzero;fill:rgb(0%,0%,0%);fill-opacity:1;" d="M 2.015625 15.671875 C 2.277344 15.691406 2.492188 15.851562 2.710938 15.988281 C 2.808594 16.046875 2.910156 16.109375 3.011719 16.167969 C 3.0625 16.199219 3.117188 16.230469 3.167969 16.265625 C 3.429688 16.421875 3.695312 16.570312 3.957031 16.722656 C 4.3125 16.925781 4.667969 17.132812 5.019531 17.335938 C 5.050781 17.355469 5.085938 17.375 5.117188 17.394531 C 5.339844 17.527344 5.339844 17.527344 5.390625 17.578125 C 5.40625 17.769531 5.40625 17.964844 5.40625 18.15625 C 5.410156 18.238281 5.410156 18.238281 5.414062 18.324219 C 5.414062 18.375 5.414062 18.429688 5.414062 18.480469 C 5.417969 18.554688 5.417969 18.554688 5.417969 18.628906 C 5.390625 18.75 5.390625 18.75 5.289062 18.84375 C 5.113281 18.90625 5.042969 18.875 4.875 18.796875 C 4.789062 18.753906 4.703125 18.707031 4.621094 18.660156 C 4.546875 18.621094 4.546875 18.621094 4.472656 18.578125 C 4.421875 18.550781 4.375 18.523438 4.320312 18.492188 C 4.269531 18.460938 4.214844 18.433594 4.160156 18.402344 C 3.8125 18.203125 3.464844 18.003906 3.117188 17.796875 C 2.949219 17.695312 2.777344 17.597656 2.609375 17.5 C 2.558594 17.46875 2.507812 17.441406 2.453125 17.410156 C 2.351562 17.351562 2.246094 17.292969 2.144531 17.234375 C 2.097656 17.207031 2.050781 17.179688 2.003906 17.152344 C 1.960938 17.128906 1.921875 17.105469 1.878906 17.078125 C 1.78125 17.015625 1.78125 17.015625 1.734375 16.921875 C 1.722656 16.753906 1.722656 16.582031 1.722656 16.414062 C 1.722656 16.363281 1.722656 16.316406 1.71875 16.269531 C 1.71875 16.222656 1.71875 16.179688 1.71875 16.132812 C 1.71875 16.089844 1.71875 16.046875 1.71875 16.003906 C 1.746094 15.804688 1.820312 15.714844 2.015625 15.671875 Z M 2.296875 16.453125 C 2.261719 16.582031 2.261719 16.582031 2.296875 16.734375 C 2.417969 16.855469 2.570312 16.933594 2.71875 17.015625 C 2.746094 17.03125 2.773438 17.046875 2.804688 17.0625 C 2.9375 17.136719 3.070312 17.210938 3.203125 17.285156 C 3.578125 17.492188 3.949219 17.707031 4.316406 17.925781 C 4.363281 17.953125 4.410156 17.980469 4.457031 18.007812 C 4.5 18.035156 4.539062 18.058594 4.582031 18.082031 C 4.691406 18.144531 4.691406 18.144531 4.828125 18.1875 C 4.828125 18.078125 4.828125 17.972656 4.828125 17.859375 C 4.796875 17.839844 4.765625 17.824219 4.734375 17.804688 C 4.640625 17.753906 4.550781 17.699219 4.457031 17.644531 C 4.347656 17.582031 4.238281 17.519531 4.128906 17.457031 C 3.867188 17.304688 3.609375 17.15625 3.347656 17.003906 C 3.234375 16.9375 3.121094 16.871094 3.011719 16.808594 C 2.929688 16.761719 2.851562 16.714844 2.769531 16.667969 C 2.722656 16.640625 2.671875 16.609375 2.625 16.582031 C 2.582031 16.558594 2.539062 16.53125 2.492188 16.507812 C 2.394531 16.445312 2.394531 16.445312 2.296875 16.453125 Z M 2.296875 16.453125 "/>
<path style=" stroke:none;fill-rule:nonzero;fill:rgb(0%,0%,0%);fill-opacity:1;" d="M 2.011719 9.53125 C 2.289062 9.550781 2.527344 9.730469 2.757812 9.871094 C 2.839844 9.917969 2.917969 9.964844 3 10.015625 C 3.085938 10.066406 3.167969 10.113281 3.253906 10.164062 C 3.519531 10.324219 3.792969 10.480469 4.0625 10.632812 C 4.398438 10.828125 4.734375 11.023438 5.066406 11.21875 C 5.09375 11.238281 5.121094 11.253906 5.152344 11.273438 C 5.335938 11.382812 5.335938 11.382812 5.390625 11.4375 C 5.402344 11.632812 5.402344 11.824219 5.402344 12.019531 C 5.402344 12.074219 5.402344 12.128906 5.40625 12.1875 C 5.40625 12.265625 5.40625 12.265625 5.40625 12.34375 C 5.40625 12.394531 5.40625 12.441406 5.40625 12.492188 C 5.402344 12.53125 5.394531 12.570312 5.390625 12.609375 C 5.222656 12.722656 5.167969 12.726562 4.96875 12.703125 C 4.839844 12.652344 4.71875 12.582031 4.601562 12.507812 C 4.5625 12.488281 4.527344 12.46875 4.488281 12.445312 C 4.367188 12.375 4.246094 12.304688 4.125 12.234375 C 4.039062 12.183594 3.949219 12.132812 3.863281 12.082031 C 3.675781 11.972656 3.488281 11.863281 3.300781 11.753906 C 3.089844 11.628906 2.875 11.507812 2.660156 11.382812 C 2.574219 11.335938 2.488281 11.289062 2.40625 11.242188 C 2.324219 11.195312 2.242188 11.148438 2.160156 11.105469 C 2.113281 11.074219 2.0625 11.046875 2.011719 11.019531 C 1.96875 10.996094 1.925781 10.96875 1.878906 10.945312 C 1.78125 10.875 1.78125 10.875 1.734375 10.734375 C 1.722656 10.570312 1.722656 10.410156 1.722656 10.246094 C 1.722656 10.179688 1.722656 10.179688 1.71875 10.109375 C 1.71875 10.066406 1.71875 10.023438 1.71875 9.980469 C 1.71875 9.9375 1.71875 9.898438 1.71875 9.859375 C 1.746094 9.664062 1.820312 9.574219 2.011719 9.53125 Z M 2.34375 10.265625 C 2.320312 10.398438 2.320312 10.398438 2.34375 10.546875 C 2.453125 10.652344 2.453125 10.652344 2.605469 10.726562 C 2.632812 10.742188 2.660156 10.757812 2.691406 10.777344 C 2.75 10.808594 2.804688 10.839844 2.863281 10.875 C 2.949219 10.921875 3.035156 10.96875 3.117188 11.015625 C 3.28125 11.113281 3.445312 11.207031 3.613281 11.300781 C 3.722656 11.363281 3.835938 11.425781 3.945312 11.488281 C 4.023438 11.535156 4.023438 11.535156 4.105469 11.582031 C 4.3125 11.699219 4.519531 11.820312 4.722656 11.941406 C 4.816406 12.003906 4.816406 12.003906 4.875 12 C 4.914062 11.847656 4.914062 11.847656 4.875 11.671875 C 4.730469 11.542969 4.5625 11.460938 4.394531 11.371094 C 4.292969 11.3125 4.191406 11.257812 4.085938 11.199219 C 4.03125 11.171875 3.976562 11.140625 3.921875 11.109375 C 3.742188 11.011719 3.5625 10.910156 3.386719 10.804688 C 3.328125 10.773438 3.265625 10.738281 3.207031 10.703125 C 3.175781 10.683594 3.148438 10.667969 3.117188 10.652344 C 3.074219 10.625 3.074219 10.625 3.03125 10.601562 C 3 10.582031 2.972656 10.566406 2.941406 10.546875 C 2.859375 10.5 2.777344 10.453125 2.695312 10.40625 C 2.648438 10.378906 2.597656 10.351562 2.550781 10.324219 C 2.445312 10.257812 2.445312 10.257812 2.34375 10.265625 Z M 2.34375 10.265625 "/>
<path style=" stroke:none;fill-rule:nonzero;fill:rgb(0%,0%,0%);fill-opacity:1;" d="M 2.066406 12.648438 C 2.320312 12.707031 2.539062 12.855469 2.757812 12.992188 C 2.855469 13.050781 2.957031 13.109375 3.058594 13.167969 C 3.109375 13.199219 3.160156 13.230469 3.214844 13.265625 C 3.480469 13.421875 3.746094 13.574219 4.011719 13.726562 C 4.347656 13.917969 4.683594 14.113281 5.015625 14.3125 C 5.042969 14.328125 5.070312 14.34375 5.101562 14.363281 C 5.210938 14.425781 5.300781 14.488281 5.390625 14.578125 C 5.410156 14.765625 5.40625 14.949219 5.40625 15.136719 C 5.40625 15.191406 5.40625 15.242188 5.40625 15.296875 C 5.40625 15.34375 5.40625 15.394531 5.40625 15.445312 C 5.40625 15.492188 5.40625 15.539062 5.40625 15.585938 C 5.390625 15.703125 5.390625 15.703125 5.335938 15.789062 C 5.207031 15.871094 5.117188 15.859375 4.96875 15.84375 C 4.851562 15.792969 4.851562 15.792969 4.738281 15.726562 C 4.695312 15.699219 4.652344 15.671875 4.605469 15.644531 C 4.558594 15.617188 4.511719 15.589844 4.464844 15.558594 C 4.363281 15.5 4.261719 15.4375 4.164062 15.378906 C 4.109375 15.347656 4.058594 15.316406 4.003906 15.285156 C 3.742188 15.125 3.472656 14.972656 3.207031 14.820312 C 3.058594 14.734375 2.910156 14.648438 2.757812 14.5625 C 2.675781 14.511719 2.589844 14.464844 2.507812 14.417969 C 2.40625 14.359375 2.308594 14.300781 2.210938 14.242188 C 2.128906 14.199219 2.128906 14.199219 2.050781 14.152344 C 1.90625 14.050781 1.824219 13.980469 1.734375 13.828125 C 1.707031 13.671875 1.707031 13.519531 1.710938 13.359375 C 1.710938 13.316406 1.710938 13.277344 1.707031 13.234375 C 1.710938 13.039062 1.722656 12.914062 1.808594 12.742188 C 1.921875 12.65625 1.921875 12.65625 2.066406 12.648438 Z M 2.34375 13.359375 C 2.34375 13.46875 2.34375 13.574219 2.34375 13.6875 C 2.378906 13.707031 2.410156 13.726562 2.445312 13.746094 C 2.578125 13.820312 2.710938 13.894531 2.839844 13.96875 C 2.898438 14.003906 2.960938 14.039062 3.019531 14.070312 C 3.34375 14.257812 3.667969 14.445312 3.992188 14.632812 C 4.042969 14.664062 4.09375 14.695312 4.144531 14.726562 C 4.246094 14.78125 4.34375 14.839844 4.441406 14.898438 C 4.484375 14.925781 4.527344 14.949219 4.570312 14.976562 C 4.609375 15 4.648438 15.023438 4.6875 15.046875 C 4.777344 15.101562 4.777344 15.101562 4.875 15.09375 C 4.910156 14.964844 4.910156 14.964844 4.875 14.8125 C 4.753906 14.691406 4.601562 14.613281 4.453125 14.53125 C 4.410156 14.507812 4.410156 14.507812 4.367188 14.484375 C 4.234375 14.410156 4.101562 14.335938 3.96875 14.261719 C 3.59375 14.054688 3.222656 13.839844 2.855469 13.621094 C 2.808594 13.59375 2.761719 13.566406 2.714844 13.539062 C 2.671875 13.511719 2.632812 13.488281 2.589844 13.464844 C 2.480469 13.402344 2.480469 13.402344 2.34375 13.359375 Z M 2.34375 13.359375 "/>
<path style=" stroke:none;fill-rule:nonzero;fill:rgb(0%,0%,0%);fill-opacity:1;" d="M 6.652344 12.183594 C 6.925781 12.238281 7.164062 12.398438 7.398438 12.535156 C 7.453125 12.566406 7.503906 12.597656 7.558594 12.625 C 7.710938 12.714844 7.863281 12.800781 8.015625 12.890625 C 8.054688 12.914062 8.089844 12.933594 8.128906 12.957031 C 8.289062 13.046875 8.445312 13.140625 8.601562 13.234375 C 8.769531 13.335938 8.941406 13.433594 9.109375 13.53125 C 9.160156 13.5625 9.210938 13.59375 9.265625 13.625 C 9.367188 13.683594 9.472656 13.742188 9.574219 13.800781 C 9.621094 13.828125 9.667969 13.855469 9.714844 13.882812 C 9.757812 13.910156 9.796875 13.933594 9.839844 13.957031 C 9.9375 14.015625 9.9375 14.015625 9.984375 14.0625 C 9.996094 14.265625 9.992188 14.464844 9.992188 14.667969 C 9.992188 14.726562 9.996094 14.785156 9.996094 14.84375 C 9.996094 14.898438 9.996094 14.949219 9.996094 15.007812 C 9.996094 15.058594 9.996094 15.109375 9.996094 15.160156 C 9.984375 15.28125 9.984375 15.28125 9.890625 15.375 C 9.539062 15.375 9.300781 15.222656 9.007812 15.039062 C 8.90625 14.980469 8.804688 14.921875 8.707031 14.859375 C 8.652344 14.828125 8.601562 14.800781 8.550781 14.765625 C 8.339844 14.640625 8.128906 14.519531 7.917969 14.398438 C 7.8125 14.339844 7.710938 14.277344 7.605469 14.21875 C 7.382812 14.085938 7.160156 13.960938 6.917969 13.863281 C 6.496094 13.679688 6.496094 13.679688 6.375 13.5 C 6.277344 13.132812 6.285156 12.695312 6.375 12.328125 C 6.46875 12.203125 6.492188 12.1875 6.652344 12.183594 Z M 6.890625 12.890625 C 6.855469 13.019531 6.855469 13.019531 6.890625 13.171875 C 7.171875 13.417969 7.542969 13.585938 7.867188 13.765625 C 8.285156 14 8.703125 14.234375 9.113281 14.476562 C 9.257812 14.578125 9.257812 14.578125 9.421875 14.625 C 9.421875 14.515625 9.421875 14.410156 9.421875 14.296875 C 9.386719 14.277344 9.355469 14.257812 9.320312 14.238281 C 9.1875 14.164062 9.054688 14.089844 8.925781 14.015625 C 8.867188 13.980469 8.804688 13.945312 8.746094 13.914062 C 8.421875 13.726562 8.097656 13.539062 7.773438 13.351562 C 7.722656 13.320312 7.671875 13.289062 7.621094 13.257812 C 7.519531 13.203125 7.421875 13.144531 7.324219 13.085938 C 7.28125 13.058594 7.238281 13.035156 7.195312 13.007812 C 7.15625 12.984375 7.117188 12.960938 7.078125 12.9375 C 6.988281 12.882812 6.988281 12.882812 6.890625 12.890625 Z M 6.890625 12.890625 "/>
</g>
</svg>
