<?xml version="1.0" encoding="UTF-8"?>
<svg xmlns="http://www.w3.org/2000/svg" xmlns:xlink="http://www.w3.org/1999/xlink" width="24px" height="24px" viewBox="0 0 24 24" version="1.1">
<g id="surface1">
<path style=" stroke:none;fill-rule:nonzero;fill:rgb(0%,0%,0%);fill-opacity:1;" d="M 11 0.265625 C 11.289062 0.472656 11.492188 0.710938 11.652344 1.023438 C 11.730469 1.171875 11.757812 1.214844 11.90625 1.300781 C 12.046875 1.320312 12.046875 1.320312 12.167969 1.273438 C 12.304688 1.152344 12.363281 1.027344 12.449219 0.867188 C 12.6875 0.453125 13.050781 0.144531 13.515625 0.015625 C 14.148438 -0.0703125 14.667969 0 15.203125 0.363281 C 15.632812 0.710938 15.816406 1.226562 15.886719 1.757812 C 15.890625 1.804688 15.894531 1.851562 15.902344 1.898438 C 15.929688 2.023438 15.929688 2.023438 16.039062 2.109375 C 16.171875 2.167969 16.171875 2.167969 16.3125 2.128906 C 16.460938 2.058594 16.574219 1.980469 16.703125 1.878906 C 17.164062 1.539062 17.625 1.480469 18.1875 1.546875 C 18.703125 1.667969 19.101562 2 19.382812 2.445312 C 19.644531 2.925781 19.664062 3.433594 19.515625 3.964844 C 19.496094 4.027344 19.496094 4.027344 19.476562 4.097656 C 19.449219 4.246094 19.472656 4.320312 19.546875 4.453125 C 19.683594 4.539062 19.777344 4.558594 19.9375 4.519531 C 19.980469 4.507812 20.019531 4.496094 20.0625 4.484375 C 20.558594 4.332031 21.050781 4.355469 21.515625 4.59375 C 21.980469 4.871094 22.320312 5.285156 22.453125 5.8125 C 22.519531 6.320312 22.484375 6.832031 22.171875 7.253906 C 22.105469 7.332031 22.039062 7.410156 21.96875 7.488281 C 21.878906 7.609375 21.847656 7.675781 21.84375 7.828125 C 21.882812 7.960938 21.882812 7.960938 21.984375 8.0625 C 22.105469 8.097656 22.210938 8.117188 22.332031 8.128906 C 22.800781 8.199219 23.246094 8.371094 23.578125 8.71875 C 23.683594 8.871094 23.773438 9.023438 23.859375 9.1875 C 23.875 9.214844 23.890625 9.242188 23.910156 9.273438 C 24.082031 9.640625 24.0625 10.207031 23.945312 10.59375 C 23.75 11.066406 23.429688 11.421875 22.976562 11.652344 C 22.828125 11.730469 22.785156 11.757812 22.699219 11.90625 C 22.679688 12.046875 22.679688 12.046875 22.726562 12.167969 C 22.847656 12.304688 22.972656 12.363281 23.132812 12.449219 C 23.546875 12.6875 23.855469 13.050781 23.984375 13.515625 C 24.070312 14.148438 24 14.667969 23.636719 15.203125 C 23.289062 15.632812 22.773438 15.816406 22.242188 15.886719 C 22.195312 15.890625 22.148438 15.894531 22.101562 15.902344 C 21.976562 15.929688 21.976562 15.929688 21.890625 16.039062 C 21.832031 16.171875 21.832031 16.171875 21.871094 16.3125 C 21.941406 16.460938 22.019531 16.574219 22.121094 16.703125 C 22.460938 17.164062 22.519531 17.625 22.453125 18.1875 C 22.332031 18.703125 22 19.101562 21.554688 19.382812 C 21.074219 19.644531 20.566406 19.664062 20.035156 19.515625 C 19.992188 19.503906 19.949219 19.488281 19.902344 19.476562 C 19.753906 19.449219 19.679688 19.472656 19.546875 19.546875 C 19.460938 19.683594 19.441406 19.777344 19.480469 19.9375 C 19.5 20 19.5 20 19.515625 20.0625 C 19.667969 20.558594 19.644531 21.050781 19.40625 21.515625 C 19.128906 21.980469 18.714844 22.320312 18.1875 22.453125 C 17.679688 22.519531 17.167969 22.484375 16.746094 22.171875 C 16.667969 22.105469 16.589844 22.039062 16.511719 21.96875 C 16.390625 21.878906 16.324219 21.847656 16.171875 21.84375 C 16.039062 21.882812 16.039062 21.882812 15.9375 21.984375 C 15.902344 22.105469 15.882812 22.210938 15.871094 22.332031 C 15.800781 22.800781 15.628906 23.246094 15.28125 23.578125 C 14.886719 23.855469 14.511719 24.027344 14.027344 24.023438 C 13.992188 24.023438 13.953125 24.023438 13.914062 24.023438 C 13.429688 24.007812 13.054688 23.832031 12.703125 23.496094 C 12.574219 23.351562 12.480469 23.199219 12.386719 23.03125 C 12.273438 22.816406 12.273438 22.816406 12.078125 22.691406 C 11.90625 22.6875 11.851562 22.71875 11.71875 22.828125 C 11.679688 22.890625 11.644531 22.957031 11.609375 23.019531 C 11.375 23.46875 11.058594 23.757812 10.59375 23.953125 C 10.058594 24.097656 9.480469 24.039062 9 23.765625 C 8.53125 23.492188 8.296875 23.0625 8.15625 22.546875 C 8.132812 22.398438 8.113281 22.253906 8.097656 22.101562 C 8.070312 21.976562 8.070312 21.976562 7.960938 21.890625 C 7.828125 21.832031 7.828125 21.832031 7.6875 21.871094 C 7.539062 21.941406 7.425781 22.019531 7.296875 22.121094 C 6.835938 22.460938 6.375 22.519531 5.8125 22.453125 C 5.296875 22.332031 4.898438 22 4.617188 21.554688 C 4.355469 21.074219 4.335938 20.566406 4.484375 20.035156 C 4.496094 19.992188 4.511719 19.949219 4.523438 19.902344 C 4.550781 19.753906 4.527344 19.679688 4.453125 19.546875 C 4.316406 19.460938 4.222656 19.441406 4.0625 19.480469 C 4.019531 19.492188 3.980469 19.503906 3.9375 19.515625 C 3.441406 19.667969 2.949219 19.644531 2.484375 19.40625 C 2.019531 19.128906 1.679688 18.714844 1.546875 18.1875 C 1.480469 17.679688 1.515625 17.167969 1.828125 16.746094 C 1.894531 16.667969 1.960938 16.589844 2.03125 16.511719 C 2.121094 16.390625 2.152344 16.324219 2.15625 16.171875 C 2.117188 16.039062 2.117188 16.039062 2.015625 15.9375 C 1.894531 15.902344 1.789062 15.882812 1.667969 15.871094 C 1.199219 15.800781 0.753906 15.628906 0.421875 15.28125 C 0.316406 15.128906 0.226562 14.976562 0.140625 14.8125 C 0.117188 14.769531 0.117188 14.769531 0.0898438 14.726562 C -0.0820312 14.359375 -0.0625 13.792969 0.0546875 13.40625 C 0.25 12.933594 0.570312 12.578125 1.023438 12.347656 C 1.171875 12.269531 1.214844 12.242188 1.300781 12.09375 C 1.320312 11.953125 1.320312 11.953125 1.273438 11.832031 C 1.152344 11.695312 1.027344 11.636719 0.867188 11.550781 C 0.453125 11.3125 0.144531 10.949219 0.015625 10.484375 C -0.0703125 9.851562 0 9.332031 0.363281 8.796875 C 0.710938 8.367188 1.226562 8.183594 1.757812 8.113281 C 1.804688 8.109375 1.851562 8.105469 1.898438 8.097656 C 2.023438 8.070312 2.023438 8.070312 2.109375 7.960938 C 2.167969 7.828125 2.167969 7.828125 2.128906 7.6875 C 2.058594 7.539062 1.980469 7.425781 1.878906 7.296875 C 1.539062 6.835938 1.480469 6.375 1.546875 5.8125 C 1.667969 5.296875 2 4.898438 2.445312 4.617188 C 2.925781 4.355469 3.433594 4.335938 3.964844 4.484375 C 4.007812 4.496094 4.050781 4.511719 4.097656 4.523438 C 4.246094 4.550781 4.320312 4.527344 4.453125 4.453125 C 4.539062 4.316406 4.558594 4.222656 4.519531 4.0625 C 4.5 4 4.5 4 4.484375 3.9375 C 4.332031 3.441406 4.355469 2.949219 4.59375 2.484375 C 4.871094 2.019531 5.285156 1.679688 5.8125 1.546875 C 6.320312 1.480469 6.832031 1.515625 7.253906 1.828125 C 7.332031 1.894531 7.410156 1.960938 7.488281 2.03125 C 7.609375 2.121094 7.675781 2.152344 7.828125 2.15625 C 7.960938 2.117188 7.960938 2.117188 8.0625 2.015625 C 8.097656 1.894531 8.117188 1.789062 8.128906 1.667969 C 8.199219 1.199219 8.371094 0.753906 8.71875 0.421875 C 8.871094 0.316406 9.023438 0.226562 9.1875 0.140625 C 9.214844 0.125 9.242188 0.109375 9.273438 0.0898438 C 9.804688 -0.164062 10.519531 -0.0273438 11 0.265625 Z M 9.695312 1.527344 C 9.585938 1.671875 9.578125 1.773438 9.5625 1.953125 C 9.496094 2.496094 9.328125 2.871094 8.90625 3.234375 C 8.417969 3.5625 7.898438 3.664062 7.320312 3.558594 C 7.011719 3.46875 6.738281 3.316406 6.5 3.101562 C 6.382812 2.988281 6.382812 2.988281 6.230469 2.972656 C 6.050781 3.007812 5.976562 3.042969 5.859375 3.1875 C 5.863281 3.339844 5.878906 3.460938 5.90625 3.609375 C 6.019531 4.285156 6.003906 4.753906 5.625 5.34375 C 5.324219 5.707031 4.898438 5.921875 4.433594 5.996094 C 4.113281 6.019531 3.792969 5.941406 3.484375 5.882812 C 3.359375 5.859375 3.359375 5.859375 3.1875 5.859375 C 3.042969 5.976562 3.003906 6.046875 2.984375 6.226562 C 3.003906 6.410156 3.058594 6.480469 3.175781 6.621094 C 3.515625 7.066406 3.652344 7.5 3.582031 8.054688 C 3.496094 8.511719 3.289062 8.953125 2.90625 9.234375 C 2.566406 9.441406 2.234375 9.550781 1.839844 9.578125 C 1.699219 9.59375 1.644531 9.609375 1.519531 9.6875 C 1.425781 9.84375 1.425781 9.945312 1.453125 10.125 C 1.574219 10.269531 1.703125 10.355469 1.867188 10.445312 C 2.304688 10.703125 2.566406 11.023438 2.707031 11.515625 C 2.828125 12.078125 2.71875 12.539062 2.453125 13.035156 C 2.210938 13.339844 1.929688 13.5625 1.582031 13.734375 C 1.492188 13.777344 1.492188 13.777344 1.453125 13.875 C 1.429688 14.101562 1.429688 14.101562 1.523438 14.304688 C 1.679688 14.421875 1.832031 14.433594 2.023438 14.457031 C 2.511719 14.53125 2.925781 14.683594 3.234375 15.09375 C 3.550781 15.597656 3.667969 16.09375 3.558594 16.679688 C 3.46875 16.988281 3.316406 17.261719 3.101562 17.5 C 2.988281 17.617188 2.988281 17.617188 2.972656 17.769531 C 3.007812 17.949219 3.042969 18.023438 3.1875 18.140625 C 3.339844 18.136719 3.460938 18.121094 3.609375 18.09375 C 4.285156 17.980469 4.753906 17.996094 5.34375 18.375 C 5.707031 18.675781 5.921875 19.101562 5.996094 19.566406 C 6.019531 19.886719 5.941406 20.207031 5.882812 20.515625 C 5.855469 20.683594 5.84375 20.785156 5.929688 20.933594 C 6.046875 21 6.136719 21.039062 6.277344 21.03125 C 6.460938 20.972656 6.605469 20.839844 6.757812 20.722656 C 7.152344 20.433594 7.601562 20.351562 8.078125 20.417969 C 8.523438 20.511719 8.960938 20.722656 9.234375 21.09375 C 9.441406 21.433594 9.550781 21.765625 9.578125 22.160156 C 9.59375 22.300781 9.609375 22.355469 9.6875 22.480469 C 9.84375 22.574219 9.945312 22.574219 10.125 22.546875 C 10.269531 22.425781 10.355469 22.296875 10.445312 22.132812 C 10.703125 21.695312 11.023438 21.433594 11.515625 21.292969 C 12.078125 21.171875 12.539062 21.28125 13.039062 21.546875 C 13.339844 21.789062 13.5625 22.070312 13.734375 22.417969 C 13.777344 22.507812 13.777344 22.507812 13.875 22.546875 C 14.105469 22.570312 14.105469 22.570312 14.304688 22.472656 C 14.414062 22.328125 14.421875 22.226562 14.4375 22.046875 C 14.503906 21.503906 14.671875 21.128906 15.09375 20.765625 C 15.535156 20.46875 16.027344 20.347656 16.554688 20.414062 C 16.910156 20.488281 17.230469 20.65625 17.5 20.898438 C 17.617188 21.011719 17.617188 21.011719 17.769531 21.027344 C 17.949219 20.992188 18.023438 20.957031 18.140625 20.8125 C 18.136719 20.660156 18.121094 20.539062 18.09375 20.390625 C 17.980469 19.714844 17.996094 19.246094 18.375 18.65625 C 18.675781 18.292969 19.101562 18.078125 19.566406 18.003906 C 19.886719 17.980469 20.207031 18.058594 20.515625 18.117188 C 20.640625 18.140625 20.640625 18.140625 20.8125 18.140625 C 20.957031 18.023438 20.996094 17.953125 21.015625 17.773438 C 20.996094 17.589844 20.941406 17.519531 20.824219 17.378906 C 20.488281 16.941406 20.355469 16.519531 20.417969 15.972656 C 20.5 15.5 20.703125 15.058594 21.09375 14.765625 C 21.402344 14.554688 21.71875 14.488281 22.082031 14.445312 C 22.242188 14.421875 22.347656 14.402344 22.476562 14.304688 C 22.582031 14.15625 22.570312 14.050781 22.546875 13.875 C 22.425781 13.730469 22.296875 13.644531 22.132812 13.554688 C 21.695312 13.296875 21.433594 12.976562 21.292969 12.484375 C 21.171875 11.921875 21.28125 11.460938 21.546875 10.960938 C 21.789062 10.660156 22.070312 10.4375 22.417969 10.265625 C 22.507812 10.222656 22.507812 10.222656 22.546875 10.125 C 22.570312 9.898438 22.570312 9.898438 22.476562 9.695312 C 22.320312 9.578125 22.167969 9.566406 21.976562 9.542969 C 21.488281 9.46875 21.074219 9.316406 20.765625 8.90625 C 20.453125 8.410156 20.324219 7.886719 20.441406 7.308594 C 20.535156 7.007812 20.6875 6.734375 20.898438 6.5 C 21.011719 6.382812 21.011719 6.382812 21.027344 6.230469 C 20.992188 6.050781 20.957031 5.976562 20.8125 5.859375 C 20.660156 5.863281 20.539062 5.878906 20.390625 5.90625 C 19.714844 6.019531 19.246094 6.003906 18.65625 5.625 C 18.292969 5.324219 18.078125 4.898438 18.003906 4.433594 C 17.980469 4.113281 18.058594 3.792969 18.117188 3.484375 C 18.140625 3.359375 18.140625 3.359375 18.140625 3.1875 C 18.023438 3.042969 17.953125 3.003906 17.773438 2.984375 C 17.589844 3.003906 17.519531 3.058594 17.378906 3.175781 C 16.933594 3.515625 16.5 3.652344 15.945312 3.582031 C 15.488281 3.496094 15.046875 3.289062 14.765625 2.90625 C 14.558594 2.566406 14.449219 2.234375 14.421875 1.839844 C 14.40625 1.699219 14.390625 1.644531 14.3125 1.519531 C 14.15625 1.425781 14.054688 1.425781 13.875 1.453125 C 13.730469 1.574219 13.644531 1.703125 13.554688 1.867188 C 13.296875 2.304688 12.976562 2.566406 12.484375 2.707031 C 11.921875 2.828125 11.460938 2.71875 10.960938 2.453125 C 10.660156 2.210938 10.4375 1.929688 10.265625 1.582031 C 10.222656 1.492188 10.222656 1.492188 10.125 1.453125 C 9.894531 1.429688 9.894531 1.429688 9.695312 1.527344 Z M 9.695312 1.527344 "/>
<path style=" stroke:none;fill-rule:nonzero;fill:rgb(0%,0%,0%);fill-opacity:1;" d="M 11.992188 5.285156 C 12.027344 5.285156 12.0625 5.285156 12.097656 5.285156 C 13.933594 5.289062 15.59375 6.035156 16.890625 7.328125 C 17.675781 8.128906 18.195312 9.105469 18.515625 10.171875 C 18.53125 10.21875 18.542969 10.265625 18.558594 10.3125 C 19.023438 12.011719 18.71875 13.859375 17.867188 15.382812 C 16.964844 16.914062 15.492188 18.042969 13.78125 18.515625 C 13.546875 18.570312 13.3125 18.617188 13.078125 18.65625 C 13.035156 18.664062 12.992188 18.671875 12.949219 18.679688 C 12.6875 18.71875 12.421875 18.714844 12.15625 18.714844 C 12.054688 18.714844 11.953125 18.714844 11.851562 18.71875 C 10.109375 18.730469 8.5 17.945312 7.25 16.765625 C 6.773438 16.285156 6.351562 15.699219 6.046875 15.09375 C 6.019531 15.042969 5.996094 14.996094 5.96875 14.945312 C 5.199219 13.40625 5.089844 11.570312 5.609375 9.933594 C 6.195312 8.191406 7.414062 6.796875 9.046875 5.953125 C 9.984375 5.503906 10.957031 5.285156 11.992188 5.285156 Z M 10.6875 6.890625 C 10.632812 6.90625 10.574219 6.921875 10.515625 6.9375 C 9.8125 7.148438 9.191406 7.503906 8.625 7.96875 C 8.589844 7.996094 8.558594 8.023438 8.523438 8.050781 C 8.253906 8.273438 8.039062 8.535156 7.828125 8.8125 C 7.785156 8.867188 7.785156 8.867188 7.742188 8.921875 C 7.238281 9.601562 6.921875 10.417969 6.796875 11.25 C 6.792969 11.28125 6.785156 11.316406 6.78125 11.347656 C 6.609375 12.628906 6.949219 13.996094 7.714844 15.039062 C 8.613281 16.203125 9.761719 16.953125 11.214844 17.230469 C 11.921875 17.304688 12.671875 17.308594 13.359375 17.109375 C 13.417969 17.09375 13.476562 17.078125 13.535156 17.058594 C 14.90625 16.644531 16.023438 15.710938 16.699219 14.457031 C 17.34375 13.203125 17.484375 11.792969 17.078125 10.441406 C 16.644531 9.105469 15.71875 7.988281 14.484375 7.3125 C 13.332031 6.742188 11.9375 6.527344 10.6875 6.890625 Z M 10.6875 6.890625 "/>
</g>
</svg>
