<?xml version="1.0" encoding="UTF-8"?>
<svg xmlns="http://www.w3.org/2000/svg" xmlns:xlink="http://www.w3.org/1999/xlink" width="24px" height="24px" viewBox="0 0 24 24" version="1.1">
<g id="surface1">
<path style=" stroke:none;fill-rule:nonzero;fill:rgb(0%,0%,0%);fill-opacity:1;" d="M 19.828125 3.46875 C 19.855469 3.484375 19.886719 3.5 19.917969 3.515625 C 21.769531 4.53125 23.144531 6.359375 23.734375 8.375 C 23.894531 8.953125 24.007812 9.542969 24.007812 10.144531 C 24.011719 10.179688 24.011719 10.21875 24.011719 10.257812 C 24.019531 11.777344 24.019531 11.777344 23.859375 12.421875 C 23.851562 12.460938 23.839844 12.5 23.832031 12.539062 C 23.464844 14.011719 22.574219 16.023438 21.207031 16.855469 C 21 16.984375 20.878906 17.078125 20.820312 17.324219 C 20.804688 17.527344 20.808594 17.730469 20.820312 17.933594 C 20.820312 18.070312 20.824219 18.207031 20.824219 18.347656 C 20.824219 18.378906 20.824219 18.414062 20.824219 18.449219 C 20.816406 19.265625 20.433594 20.042969 19.875 20.625 C 19.203125 21.269531 18.375 21.570312 17.453125 21.570312 C 17.414062 21.570312 17.375 21.570312 17.332031 21.570312 C 17.199219 21.570312 17.066406 21.570312 16.933594 21.570312 C 16.839844 21.570312 16.746094 21.570312 16.648438 21.570312 C 16.335938 21.574219 16.023438 21.574219 15.714844 21.574219 C 15.605469 21.574219 15.496094 21.574219 15.390625 21.574219 C 14.886719 21.574219 14.378906 21.574219 13.875 21.578125 C 13.292969 21.578125 12.710938 21.578125 12.128906 21.578125 C 11.675781 21.582031 11.226562 21.582031 10.777344 21.582031 C 10.507812 21.582031 10.238281 21.582031 9.96875 21.582031 C 9.714844 21.585938 9.460938 21.585938 9.210938 21.585938 C 9.117188 21.585938 9.023438 21.585938 8.929688 21.585938 C 8.804688 21.585938 8.675781 21.585938 8.550781 21.585938 C 8.496094 21.585938 8.496094 21.585938 8.4375 21.585938 C 8.265625 21.585938 8.164062 21.566406 8.015625 21.472656 C 7.921875 21.375 7.921875 21.375 7.890625 21.28125 C 7.894531 21.234375 7.894531 21.234375 7.894531 21.1875 C 7.894531 21.140625 7.894531 21.140625 7.894531 21.09375 C 7.933594 20.953125 7.992188 20.902344 8.109375 20.8125 C 8.246094 20.792969 8.359375 20.789062 8.496094 20.789062 C 8.554688 20.789062 8.554688 20.789062 8.617188 20.789062 C 8.746094 20.789062 8.878906 20.789062 9.011719 20.789062 C 9.105469 20.789062 9.199219 20.789062 9.296875 20.789062 C 9.5 20.789062 9.703125 20.789062 9.90625 20.789062 C 10.230469 20.789062 10.554688 20.789062 10.875 20.789062 C 11.503906 20.785156 12.132812 20.785156 12.757812 20.785156 C 13.558594 20.785156 14.355469 20.785156 15.152344 20.785156 C 15.472656 20.78125 15.792969 20.78125 16.113281 20.785156 C 16.3125 20.785156 16.515625 20.785156 16.714844 20.78125 C 16.808594 20.78125 16.898438 20.78125 16.992188 20.785156 C 17.855469 20.785156 18.65625 20.699219 19.316406 20.070312 C 19.90625 19.394531 20.042969 18.6875 20.039062 17.820312 C 20.039062 17.734375 20.039062 17.652344 20.039062 17.570312 C 20.039062 17.351562 20.039062 17.128906 20.039062 16.910156 C 20.039062 16.675781 20.039062 16.445312 20.039062 16.210938 C 20.039062 15.820312 20.039062 15.429688 20.039062 15.039062 C 20.035156 14.589844 20.035156 14.140625 20.035156 13.691406 C 20.039062 13.257812 20.035156 12.824219 20.035156 12.386719 C 20.035156 12.203125 20.035156 12.019531 20.035156 11.835938 C 20.035156 11.617188 20.035156 11.402344 20.035156 11.183594 C 20.035156 11.105469 20.035156 11.027344 20.035156 10.945312 C 20.039062 9.660156 19.632812 8.546875 18.734375 7.609375 C 17.847656 6.753906 16.738281 6.441406 15.535156 6.457031 C 14.457031 6.488281 13.507812 6.996094 12.742188 7.738281 C 12.089844 8.433594 11.625 9.441406 11.617188 10.402344 C 11.617188 10.457031 11.617188 10.511719 11.617188 10.566406 C 11.617188 10.625 11.617188 10.683594 11.613281 10.742188 C 11.613281 10.835938 11.613281 10.925781 11.613281 11.019531 C 11.609375 11.246094 11.609375 11.472656 11.605469 11.699219 C 11.597656 13.042969 11.484375 14.183594 10.5 15.195312 C 9.804688 15.875 8.890625 16.183594 7.929688 16.183594 C 6.980469 16.171875 6.144531 15.804688 5.449219 15.160156 C 5.054688 14.738281 4.777344 14.261719 4.585938 13.722656 C 4.402344 13.210938 4.160156 12.804688 3.65625 12.5625 C 3.316406 12.433594 3.003906 12.402344 2.640625 12.40625 C 2.59375 12.40625 2.542969 12.40625 2.492188 12.40625 C 2.386719 12.40625 2.28125 12.40625 2.175781 12.410156 C 2.015625 12.410156 1.855469 12.410156 1.691406 12.410156 C 1.589844 12.410156 1.488281 12.410156 1.386719 12.414062 C 1.335938 12.414062 1.289062 12.414062 1.238281 12.414062 C 1.195312 12.414062 1.152344 12.414062 1.105469 12.414062 C 1.066406 12.414062 1.027344 12.414062 0.984375 12.414062 C 0.886719 12.414062 0.886719 12.414062 0.796875 12.46875 C 0.78125 12.746094 0.832031 12.980469 0.90625 13.25 C 0.917969 13.292969 0.929688 13.335938 0.941406 13.382812 C 0.980469 13.527344 1.019531 13.675781 1.058594 13.820312 C 1.085938 13.921875 1.113281 14.027344 1.140625 14.128906 C 1.214844 14.402344 1.285156 14.671875 1.359375 14.945312 C 1.429688 15.214844 1.503906 15.488281 1.574219 15.757812 C 1.699219 16.226562 1.824219 16.691406 1.949219 17.15625 C 2.019531 17.421875 2.089844 17.683594 2.160156 17.945312 C 2.195312 18.085938 2.234375 18.230469 2.273438 18.375 C 2.296875 18.464844 2.320312 18.558594 2.34375 18.652344 C 2.542969 19.394531 2.890625 20.015625 3.546875 20.4375 C 4.292969 20.816406 5.0625 20.789062 5.878906 20.785156 C 6.027344 20.785156 6.171875 20.785156 6.320312 20.785156 C 6.363281 20.785156 6.40625 20.785156 6.453125 20.785156 C 6.667969 20.785156 6.765625 20.789062 6.945312 20.921875 C 7.03125 21.046875 7.03125 21.046875 7.03125 21.21875 C 6.988281 21.367188 6.96875 21.425781 6.84375 21.515625 C 6.734375 21.570312 6.667969 21.570312 6.546875 21.570312 C 6.507812 21.570312 6.464844 21.570312 6.421875 21.570312 C 6.375 21.570312 6.332031 21.570312 6.285156 21.570312 C 6.238281 21.574219 6.1875 21.574219 6.140625 21.574219 C 6.039062 21.574219 5.941406 21.574219 5.839844 21.574219 C 5.6875 21.574219 5.539062 21.574219 5.386719 21.578125 C 4.289062 21.582031 3.324219 21.402344 2.5 20.617188 C 1.804688 19.890625 1.601562 18.972656 1.355469 18.027344 C 1.328125 17.925781 1.300781 17.824219 1.273438 17.722656 C 1.203125 17.453125 1.128906 17.1875 1.058594 16.921875 C 0.976562 16.601562 0.890625 16.28125 0.804688 15.960938 C 0.734375 15.703125 0.667969 15.445312 0.597656 15.1875 C 0.484375 14.757812 0.371094 14.332031 0.253906 13.902344 C 0.234375 13.839844 0.214844 13.773438 0.199219 13.710938 C 0.167969 13.597656 0.136719 13.488281 0.105469 13.375 C -0.113281 12.585938 -0.121094 11.738281 0.265625 11.007812 C 0.597656 10.605469 0.964844 10.339844 1.488281 10.273438 C 1.738281 10.253906 1.984375 10.257812 2.234375 10.257812 C 2.320312 10.257812 2.320312 10.257812 2.410156 10.253906 C 2.464844 10.253906 2.519531 10.253906 2.574219 10.253906 C 2.625 10.253906 2.675781 10.253906 2.726562 10.253906 C 2.859375 10.265625 2.9375 10.289062 3.046875 10.359375 C 3.144531 10.484375 3.140625 10.550781 3.132812 10.714844 C 3.082031 10.925781 3.082031 10.925781 2.953125 11.015625 C 2.816406 11.035156 2.816406 11.035156 2.65625 11.035156 C 2.566406 11.035156 2.566406 11.035156 2.476562 11.039062 C 2.414062 11.039062 2.351562 11.039062 2.289062 11.039062 C 1.75 11.042969 1.335938 11.046875 0.9375 11.4375 C 0.90625 11.5 0.871094 11.5625 0.84375 11.625 C 1.195312 11.621094 1.542969 11.621094 1.894531 11.617188 C 2.011719 11.613281 2.132812 11.613281 2.25 11.613281 C 3.128906 11.605469 3.992188 11.566406 4.820312 11.238281 C 4.875 11.21875 4.875 11.21875 4.929688 11.195312 C 5.71875 10.882812 6.371094 10.425781 6.980469 9.835938 C 7.078125 9.742188 7.179688 9.660156 7.285156 9.574219 C 7.804688 9.144531 7.902344 8.613281 8.015625 7.96875 C 7.972656 8.011719 7.929688 8.054688 7.882812 8.101562 C 7.722656 8.265625 7.558594 8.429688 7.394531 8.589844 C 7.324219 8.660156 7.253906 8.734375 7.183594 8.804688 C 7.082031 8.90625 6.980469 9.007812 6.878906 9.109375 C 6.835938 9.15625 6.835938 9.15625 6.785156 9.203125 C 6.148438 9.839844 5.28125 10.628906 4.347656 10.753906 C 4.21875 10.734375 4.21875 10.734375 4.109375 10.65625 C 4.011719 10.519531 3.988281 10.433594 3.984375 10.265625 C 4.054688 10.105469 4.101562 10.042969 4.257812 9.960938 C 4.339844 9.933594 4.339844 9.933594 4.421875 9.902344 C 5.191406 9.597656 5.757812 9.066406 6.332031 8.484375 C 6.371094 8.445312 6.410156 8.40625 6.453125 8.363281 C 6.558594 8.257812 6.667969 8.148438 6.773438 8.042969 C 6.886719 7.929688 7 7.8125 7.113281 7.699219 C 7.402344 7.414062 7.6875 7.125 7.976562 6.835938 C 8.285156 6.527344 8.59375 6.214844 8.90625 5.90625 C 9.019531 5.792969 9.128906 5.679688 9.242188 5.566406 C 9.367188 5.441406 9.492188 5.316406 9.617188 5.191406 C 9.652344 5.152344 9.691406 5.117188 9.726562 5.078125 C 10.328125 4.480469 10.980469 3.933594 11.71875 3.515625 C 11.796875 3.46875 11.796875 3.46875 11.875 3.421875 C 14.304688 2.027344 17.40625 2.144531 19.828125 3.46875 Z M 10.710938 5.230469 C 10.640625 5.296875 10.570312 5.359375 10.503906 5.425781 C 9.132812 6.710938 8.421875 8.601562 8.34375 10.453125 C 8.316406 12.0625 8.792969 13.519531 9.65625 14.859375 C 9.851562 14.734375 10.011719 14.605469 10.171875 14.4375 C 10.109375 14.265625 10.027344 14.109375 9.9375 13.945312 C 9.429688 13.039062 9.128906 12.011719 9.09375 10.96875 C 9.09375 10.921875 9.089844 10.878906 9.089844 10.832031 C 9.054688 9.292969 9.53125 7.722656 10.5 6.515625 C 10.519531 6.492188 10.539062 6.46875 10.558594 6.441406 C 11.34375 5.460938 12.359375 4.726562 13.546875 4.3125 C 13.578125 4.300781 13.609375 4.292969 13.640625 4.28125 C 15.402344 3.679688 17.269531 3.863281 18.929688 4.671875 C 19.304688 4.863281 19.644531 5.078125 19.96875 5.34375 C 19.996094 5.367188 20.023438 5.386719 20.050781 5.410156 C 21.15625 6.308594 21.925781 7.488281 22.3125 8.859375 C 22.328125 8.914062 22.34375 8.96875 22.359375 9.027344 C 22.445312 9.347656 22.519531 9.703125 22.453125 10.03125 C 22.367188 10.117188 22.367188 10.117188 22.265625 10.171875 C 22.097656 10.171875 22.097656 10.171875 21.9375 10.125 C 21.796875 9.941406 21.765625 9.769531 21.734375 9.546875 C 21.484375 8.089844 20.605469 6.675781 19.40625 5.816406 C 18.039062 4.859375 16.453125 4.449219 14.792969 4.707031 C 13.742188 4.898438 12.765625 5.351562 11.953125 6.046875 C 11.929688 6.066406 11.90625 6.085938 11.882812 6.105469 C 10.671875 7.125 9.960938 8.613281 9.8125 10.175781 C 9.710938 11.414062 10.039062 12.546875 10.59375 13.640625 C 10.859375 13.242188 10.847656 12.710938 10.84375 12.25 C 10.847656 12.125 10.847656 12.003906 10.847656 11.882812 C 10.847656 11.695312 10.847656 11.503906 10.847656 11.316406 C 10.847656 10.417969 10.851562 9.515625 11.234375 8.679688 C 11.25 8.644531 11.265625 8.609375 11.28125 8.570312 C 11.816406 7.402344 12.785156 6.460938 13.996094 6.011719 C 15.289062 5.554688 16.695312 5.570312 17.949219 6.148438 C 18.769531 6.550781 19.488281 7.140625 19.96875 7.921875 C 20.015625 7.992188 20.015625 7.992188 20.058594 8.0625 C 20.261719 8.386719 20.402344 8.714844 20.523438 9.078125 C 20.539062 9.117188 20.550781 9.15625 20.566406 9.195312 C 20.757812 9.796875 20.78125 10.386719 20.785156 11.011719 C 20.785156 11.09375 20.785156 11.179688 20.789062 11.261719 C 20.789062 11.484375 20.792969 11.703125 20.792969 11.921875 C 20.796875 12.148438 20.796875 12.375 20.800781 12.601562 C 20.804688 13.039062 20.808594 13.480469 20.8125 13.921875 C 21.011719 13.726562 21.113281 13.53125 21.230469 13.28125 C 21.253906 13.238281 21.273438 13.191406 21.292969 13.148438 C 21.550781 12.59375 21.699219 12.027344 21.808594 11.425781 C 21.84375 11.292969 21.871094 11.234375 21.984375 11.15625 C 22.269531 11.125 22.269531 11.125 22.390625 11.214844 C 22.519531 11.386719 22.472656 11.609375 22.453125 11.8125 C 22.269531 12.886719 21.820312 14.15625 21.015625 14.933594 C 20.855469 15.09375 20.792969 15.203125 20.785156 15.433594 C 20.785156 15.523438 20.789062 15.613281 20.796875 15.699219 C 20.796875 15.746094 20.796875 15.792969 20.796875 15.839844 C 20.800781 15.949219 20.808594 16.0625 20.8125 16.171875 C 22.207031 15.003906 23.027344 13.269531 23.25 11.484375 C 23.285156 10.664062 23.320312 9.800781 23.109375 9 C 23.101562 8.960938 23.089844 8.925781 23.082031 8.886719 C 22.734375 7.578125 22.117188 6.464844 21.1875 5.484375 C 21.125 5.417969 21.125 5.417969 21.0625 5.347656 C 20.539062 4.800781 19.9375 4.378906 19.265625 4.03125 C 19.234375 4.015625 19.207031 4 19.175781 3.984375 C 18.402344 3.585938 17.59375 3.355469 16.734375 3.234375 C 16.695312 3.226562 16.652344 3.222656 16.613281 3.214844 C 14.480469 2.945312 12.238281 3.75 10.710938 5.230469 Z M 7.59375 10.3125 C 7.542969 10.363281 7.492188 10.417969 7.441406 10.46875 C 6.621094 11.296875 5.5625 11.828125 4.453125 12.140625 C 4.488281 12.175781 4.523438 12.207031 4.558594 12.242188 C 4.90625 12.601562 5.125 12.988281 5.296875 13.453125 C 5.4375 13.832031 5.59375 14.128906 5.859375 14.4375 C 5.890625 14.476562 5.917969 14.515625 5.949219 14.554688 C 6.359375 15.042969 7.019531 15.324219 7.640625 15.421875 C 8.097656 15.457031 8.511719 15.40625 8.953125 15.28125 C 8.953125 15.132812 8.9375 15.097656 8.863281 14.972656 C 8.84375 14.941406 8.824219 14.90625 8.804688 14.875 C 8.785156 14.839844 8.765625 14.800781 8.742188 14.765625 C 7.941406 13.355469 7.671875 11.917969 7.640625 10.3125 C 7.625 10.3125 7.609375 10.3125 7.59375 10.3125 Z M 7.59375 10.3125 "/>
<path style=" stroke:none;fill-rule:nonzero;fill:rgb(0%,0%,0%);fill-opacity:1;" d="M 17.523438 8.441406 C 18.082031 8.925781 18.503906 9.53125 18.574219 10.285156 C 18.613281 11.136719 18.464844 11.863281 17.894531 12.527344 C 17.371094 13.078125 16.691406 13.398438 15.933594 13.417969 C 15.117188 13.429688 14.394531 13.171875 13.800781 12.59375 C 13.261719 11.996094 13.007812 11.253906 13.039062 10.457031 C 13.125 9.648438 13.476562 8.957031 14.109375 8.4375 C 15.15625 7.710938 16.480469 7.664062 17.523438 8.441406 Z M 14.203125 9.421875 C 14.113281 9.542969 14.039062 9.664062 13.96875 9.796875 C 13.953125 9.824219 13.9375 9.855469 13.921875 9.882812 C 13.742188 10.3125 13.757812 10.910156 13.902344 11.34375 C 14.136719 11.882812 14.511719 12.308594 15.0625 12.535156 C 15.136719 12.5625 15.207031 12.585938 15.28125 12.609375 C 15.324219 12.621094 15.324219 12.621094 15.367188 12.636719 C 15.953125 12.75 16.511719 12.632812 17.003906 12.300781 C 17.402344 11.988281 17.710938 11.566406 17.8125 11.0625 C 17.878906 10.453125 17.785156 9.933594 17.425781 9.429688 C 17.035156 8.953125 16.539062 8.675781 15.929688 8.613281 C 15.25 8.585938 14.632812 8.902344 14.203125 9.421875 Z M 14.203125 9.421875 "/>
</g>
</svg>
