<svg xmlns="http://www.w3.org/2000/svg" viewBox="0 0 1600 900" role="img" aria-label="AI Studio dashboard mockup">
  <defs>
    <linearGradient id="bg3" x1="0" y1="0" x2="1" y2="1">
      <stop offset="0%" stop-color="#07131a"/>
      <stop offset="100%" stop-color="#18122b"/>
    </linearGradient>
    <linearGradient id="line" x1="0" y1="0" x2="1" y2="0">
      <stop offset="0%" stop-color="#0ea5a4"/>
      <stop offset="100%" stop-color="#f4c95d"/>
    </linearGradient>
  </defs>
  <rect width="1600" height="900" fill="url(#bg3)"/>
  <rect x="95" y="75" width="1410" height="750" rx="34" fill="#ffffff" opacity="0.04" stroke="#ffffff" stroke-opacity="0.12"/>
  <rect x="145" y="130" width="1320" height="85" rx="22" fill="#ffffff" opacity="0.05"/>
  <text x="190" y="185" fill="#f8fafc" font-family="Inter, Arial, sans-serif" font-size="28" font-weight="600">AI Studio Dashboard</text>
  <rect x="145" y="250" width="420" height="500" rx="26" fill="#ffffff" opacity="0.04" stroke="#ffffff" stroke-opacity="0.10"/>
  <rect x="595" y="250" width="420" height="500" rx="26" fill="#ffffff" opacity="0.04" stroke="#ffffff" stroke-opacity="0.10"/>
  <rect x="1045" y="250" width="420" height="500" rx="26" fill="#ffffff" opacity="0.04" stroke="#ffffff" stroke-opacity="0.10"/>
  <text x="355" y="315" fill="#f8fafc" font-family="Inter, Arial, sans-serif" font-size="24" text-anchor="middle">Summary</text>
  <rect x="205" y="365" width="300" height="18" rx="9" fill="#ffffff" opacity="0.08"/>
  <rect x="205" y="365" width="230" height="18" rx="9" fill="url(#line)"/>
  <text x="355" y="430" fill="#cbd5e1" font-family="Inter, Arial, sans-serif" font-size="20" text-anchor="middle">Detected capabilities</text>
  <rect x="205" y="470" width="300" height="52" rx="16" fill="#0ea5a4" opacity="0.9"/>
  <text x="355" y="503" fill="#08111f" font-family="Inter, Arial, sans-serif" font-size="20" font-weight="700" text-anchor="middle">Confidence 87%</text>
  <text x="805" y="315" fill="#f8fafc" font-family="Inter, Arial, sans-serif" font-size="24" text-anchor="middle">Architecture</text>
  <text x="1255" y="315" fill="#f8fafc" font-family="Inter, Arial, sans-serif" font-size="24" text-anchor="middle">Roadmap</text>
  <rect x="1120" y="365" width="270" height="18" rx="9" fill="url(#line)"/>
  <rect x="1120" y="410" width="270" height="18" rx="9" fill="#ffffff" opacity="0.08"/>
  <rect x="1120" y="455" width="220" height="18" rx="9" fill="#f4c95d" opacity="0.9"/>
  <rect x="1120" y="500" width="180" height="18" rx="9" fill="#ffffff" opacity="0.08"/>
  <rect x="1120" y="545" width="240" height="18" rx="9" fill="#0ea5a4" opacity="0.85"/>
</svg>